{"glyphs":{"0":{"ha":867,"x_min":64,"x_max":808,"o":"m 379 -11 q 142 81 219 -11 q 64 314 64 174 q 120 557 64 449 q 274 726 176 665 q 494 788 372 788 q 731 697 654 788 q 808 463 808 606 q 753 222 808 331 q 599 51 697 114 q 379 -11 501 -11 m 393 60 q 522 122 472 60 q 593 276 571 183 q 615 463 615 368 q 582 649 615 579 q 475 718 549 718 q 346 655 396 718 q 275 500 296 592 q 254 315 254 408 q 288 131 254 201 q 393 60 321 60 z "},"1":{"ha":628,"x_min":54,"x_max":544,"o":"m 207 82 l 283 619 q 107 578 169 589 l 96 651 q 253 708 164 667 q 401 788 343 749 l 490 767 l 392 82 l 544 64 l 539 0 l 54 0 l 61 64 l 207 82 z "},"2":{"ha":833,"x_min":29,"x_max":769,"o":"m 29 64 q 375 301 239 174 q 511 540 511 429 q 476 640 511 604 q 376 675 442 675 q 244 643 308 675 q 143 575 181 611 l 100 650 q 231 743 143 699 q 433 788 319 788 q 644 725 581 788 q 708 571 708 663 q 563 314 708 440 q 215 89 418 188 l 613 118 l 685 247 l 769 219 l 707 0 l 47 0 l 29 64 z "},"3":{"ha":744,"x_min":-3,"x_max":650,"o":"m 142 -242 q -3 -224 88 -242 l 19 -136 q 108 -146 68 -146 q 297 -112 217 -146 q 418 -20 376 -78 q 460 107 460 38 q 418 208 460 169 q 286 246 376 246 l 257 244 l 168 219 l 181 307 q 384 404 306 335 q 463 561 463 474 q 433 641 463 611 q 346 671 403 671 q 118 588 222 671 l 83 658 q 160 716 108 686 q 278 767 211 746 q 415 788 346 788 q 583 739 518 788 q 649 597 649 690 q 575 429 649 510 q 401 307 501 349 q 438 308 414 308 q 596 257 542 308 q 650 119 650 206 q 579 -68 650 14 q 392 -196 508 -150 q 142 -242 275 -242 z "},"4":{"ha":854,"x_min":-10,"x_max":785,"o":"m 450 0 l 28 0 l -10 56 q 224 419 88 181 q 444 851 360 658 l 468 851 l 636 774 q 453 486 581 674 q 238 178 326 299 l 151 76 l 464 96 l 496 346 l 672 392 l 639 110 l 785 119 l 769 0 l 619 0 l 589 -254 l 417 -254 l 450 0 z "},"5":{"ha":756,"x_min":28,"x_max":710,"o":"m 40 -142 q 111 -150 76 -150 q 299 -110 218 -150 q 422 -7 379 -71 q 465 129 465 57 q 420 258 465 213 q 285 303 375 303 q 198 291 239 303 q 115 260 157 279 l 79 289 l 185 778 l 600 778 l 614 788 l 710 788 l 674 651 l 317 651 l 242 364 q 317 392 267 379 q 408 404 367 404 q 601 338 533 404 q 668 165 668 272 q 597 -47 668 46 q 408 -189 526 -139 q 150 -239 289 -239 q 84 -233 124 -239 q 28 -224 44 -228 l 40 -142 z "},"6":{"ha":829,"x_min":72,"x_max":760,"o":"m 389 -14 q 224 31 296 -14 q 112 155 151 76 q 72 332 72 233 q 150 651 72 499 q 363 913 228 804 q 667 1065 499 1022 l 697 989 q 521 894 606 960 q 375 744 436 829 q 289 578 314 660 q 376 644 321 618 q 506 671 431 671 q 692 598 625 671 q 760 411 760 525 q 712 202 760 300 q 578 45 664 104 q 389 -14 493 -14 m 394 68 q 498 115 456 68 q 560 232 540 161 q 581 375 581 303 q 544 518 581 471 q 447 565 507 565 q 269 465 343 565 q 251 283 251 374 q 394 68 251 68 z "},"7":{"ha":743,"x_min":54,"x_max":754,"o":"m 604 668 l 235 668 l 174 511 l 54 511 l 103 778 l 732 778 l 754 746 l 353 -242 l 178 -186 l 604 668 z "},"8":{"ha":839,"x_min":67,"x_max":794,"o":"m 67 233 q 140 406 67 326 q 324 531 213 485 q 181 781 181 654 q 224 919 181 857 q 343 1017 267 982 q 517 1053 419 1053 q 725 1001 656 1053 q 794 850 794 949 q 732 692 794 765 q 565 567 669 618 q 702 434 649 507 q 756 281 756 361 q 701 126 756 193 q 558 23 646 60 q 376 -14 471 -14 q 156 47 246 -14 q 67 233 67 107 m 493 622 q 603 712 563 657 q 644 842 644 767 q 607 947 644 911 q 513 983 569 983 q 392 938 438 983 q 346 817 346 893 q 383 717 346 763 q 493 622 421 672 m 235 238 q 277 114 235 165 q 399 63 319 63 q 528 113 475 63 q 581 246 581 163 q 558 329 581 293 q 503 392 536 365 q 396 475 471 419 q 281 376 326 436 q 235 238 236 317 z "},"9":{"ha":846,"x_min":85,"x_max":771,"o":"m 456 788 q 621 747 550 788 q 731 631 692 707 q 771 450 771 554 q 692 127 771 282 q 477 -138 614 -28 q 172 -292 340 -249 l 143 -215 q 321 -122 235 -186 q 469 26 407 -58 q 557 196 532 110 q 467 129 522 156 q 339 103 413 103 q 201 142 258 103 q 115 250 144 182 q 85 403 85 318 q 132 590 85 501 q 264 733 179 679 q 456 788 349 788 m 449 707 q 346 667 388 707 q 283 565 304 626 q 263 439 263 503 q 301 265 263 322 q 397 208 339 208 q 574 308 500 208 q 593 471 593 393 q 449 707 593 707 z "},"\u0000":{"ha":833,"x_min":0,"x_max":0,"o":""},"\r":{"ha":329,"x_min":0,"x_max":0,"o":""}," ":{"ha":329,"x_min":0,"x_max":0,"o":""},"A":{"ha":914,"x_min":-100,"x_max":929,"o":"m 456 1032 l 647 1032 l 818 83 l 929 64 l 925 0 l 500 0 l 503 64 l 617 82 l 583 292 l 231 292 l 138 82 l 264 64 l 258 0 l -100 0 l -94 64 l 0 82 l 456 1032 m 501 906 l 269 382 l 571 382 l 508 793 l 501 906 z "},"Á":{"ha":914,"x_min":-100,"x_max":929,"o":"m 456 1032 l 647 1032 l 818 83 l 929 64 l 925 0 l 500 0 l 503 64 l 617 82 l 583 292 l 231 292 l 138 82 l 264 64 l 258 0 l -100 0 l -94 64 l 0 82 l 456 1032 m 501 906 l 269 382 l 571 382 l 508 793 l 501 906 m 683 1363 l 790 1258 q 690 1155 764 1211 q 558 1075 615 1099 l 496 1129 l 683 1363 z "},"Ă":{"ha":914,"x_min":-100,"x_max":929,"o":"m 456 1032 l 647 1032 l 818 83 l 929 64 l 925 0 l 500 0 l 503 64 l 617 82 l 583 292 l 231 292 l 138 82 l 264 64 l 258 0 l -100 0 l -94 64 l 0 82 l 456 1032 m 501 906 l 269 382 l 571 382 l 508 793 l 501 906 m 564 1107 q 403 1169 449 1107 q 357 1318 357 1231 q 360 1357 357 1346 l 463 1357 q 483 1265 464 1297 q 567 1232 503 1232 q 664 1269 635 1232 q 697 1357 693 1307 l 796 1357 q 767 1231 796 1288 q 685 1140 738 1174 q 564 1107 632 1107 z "},"Ắ":{"ha":914,"x_min":-100,"x_max":929,"o":"m 699 1726 l 792 1636 q 694 1537 774 1606 q 568 1447 615 1468 l 521 1488 l 699 1726 m 557 1194 q 401 1258 453 1194 q 350 1408 350 1321 q 353 1444 350 1419 l 454 1444 l 454 1417 q 560 1318 460 1318 q 689 1444 676 1318 l 789 1444 l 789 1421 q 759 1313 786 1365 q 681 1228 732 1261 q 557 1194 629 1194 m 456 1032 l 647 1032 l 818 83 l 929 64 l 925 0 l 500 0 l 503 64 l 617 82 l 583 292 l 231 292 l 138 82 l 264 64 l 258 0 l -100 0 l -94 64 l 0 82 l 456 1032 m 501 906 l 269 382 l 571 382 l 508 793 l 501 906 z "},"Ặ":{"ha":914,"x_min":-100,"x_max":929,"o":"m 456 1032 l 647 1032 l 818 83 l 929 64 l 925 0 l 500 0 l 503 64 l 617 82 l 583 292 l 231 292 l 138 82 l 264 64 l 258 0 l -100 0 l -94 64 l 0 82 l 456 1032 m 501 906 l 269 382 l 571 382 l 508 793 l 501 906 m 294 -204 q 324 -129 294 -158 q 392 -100 354 -100 q 447 -122 428 -100 q 467 -178 467 -144 q 435 -256 467 -228 q 364 -285 404 -285 q 315 -262 335 -285 q 294 -204 294 -239 m 564 1107 q 403 1169 449 1107 q 357 1318 357 1231 q 360 1357 357 1346 l 463 1357 q 483 1265 464 1297 q 567 1232 503 1232 q 664 1269 635 1232 q 697 1357 693 1307 l 796 1357 q 767 1231 796 1288 q 685 1140 738 1174 q 564 1107 632 1107 z "},"Ằ":{"ha":914,"x_min":-100,"x_max":929,"o":"m 583 1451 q 469 1535 543 1471 q 371 1639 394 1599 l 468 1726 l 632 1486 l 583 1451 m 557 1196 q 401 1259 453 1196 q 350 1410 350 1322 q 353 1446 350 1421 l 454 1446 l 454 1418 q 560 1319 460 1319 q 689 1446 676 1319 l 789 1446 l 789 1422 q 759 1315 786 1367 q 681 1229 732 1263 q 557 1196 629 1196 m 456 1032 l 647 1032 l 818 83 l 929 64 l 925 0 l 500 0 l 503 64 l 617 82 l 583 292 l 231 292 l 138 82 l 264 64 l 258 0 l -100 0 l -94 64 l 0 82 l 456 1032 m 501 906 l 269 382 l 571 382 l 508 793 l 501 906 z "},"Ẳ":{"ha":914,"x_min":-100,"x_max":929,"o":"m 550 1453 q 538 1481 544 1461 q 532 1510 531 1501 q 544 1533 535 1525 q 572 1556 553 1542 q 595 1572 583 1563 q 611 1592 607 1581 l 613 1596 q 564 1646 621 1642 q 528 1642 532 1646 l 542 1750 q 563 1755 546 1753 q 592 1757 579 1757 q 703 1730 663 1757 q 744 1650 744 1703 q 740 1618 744 1635 q 715 1569 735 1589 q 663 1529 696 1550 q 652 1523 658 1526 q 639 1514 646 1519 q 619 1492 625 1504 q 615 1460 614 1481 l 550 1453 m 558 1194 q 403 1258 454 1194 q 351 1408 351 1321 q 354 1444 351 1419 l 456 1444 l 456 1417 q 561 1318 461 1318 q 690 1444 678 1318 l 790 1444 l 790 1421 q 760 1313 788 1365 q 682 1228 733 1261 q 558 1194 631 1194 m 456 1032 l 647 1032 l 818 83 l 929 64 l 925 0 l 500 0 l 503 64 l 617 82 l 583 292 l 231 292 l 138 82 l 264 64 l 258 0 l -100 0 l -94 64 l 0 82 l 456 1032 m 501 906 l 269 382 l 571 382 l 508 793 l 501 906 z "},"Ẵ":{"ha":914,"x_min":-100,"x_max":929,"o":"m 456 1032 l 647 1032 l 818 83 l 929 64 l 925 0 l 500 0 l 503 64 l 617 82 l 583 292 l 231 292 l 138 82 l 264 64 l 258 0 l -100 0 l -94 64 l 0 82 l 456 1032 m 501 906 l 269 382 l 571 382 l 508 793 l 501 906 m 560 1192 q 404 1255 456 1192 q 353 1406 353 1318 q 356 1442 353 1417 l 457 1442 l 457 1414 q 563 1315 463 1315 q 692 1442 679 1315 l 792 1442 l 792 1418 q 762 1310 789 1363 q 683 1225 735 1258 q 560 1192 632 1192 m 346 1603 q 417 1682 368 1647 q 515 1717 467 1717 q 575 1702 551 1717 q 628 1658 599 1688 q 665 1626 650 1636 q 700 1615 679 1615 q 756 1633 735 1615 q 806 1688 778 1651 l 856 1613 q 790 1527 839 1564 q 689 1490 740 1490 q 622 1505 647 1490 q 569 1547 597 1519 q 531 1580 547 1569 q 492 1592 515 1590 q 388 1531 443 1592 l 346 1603 z "},"Â":{"ha":914,"x_min":-100,"x_max":929,"o":"m 456 1032 l 647 1032 l 818 83 l 929 64 l 925 0 l 500 0 l 503 64 l 617 82 l 583 292 l 231 292 l 138 82 l 264 64 l 258 0 l -100 0 l -94 64 l 0 82 l 456 1032 m 501 906 l 269 382 l 571 382 l 508 793 l 501 906 m 319 1128 l 558 1363 l 669 1363 l 814 1128 l 746 1090 l 601 1242 l 379 1092 l 319 1128 z "},"Ấ":{"ha":914,"x_min":-100,"x_max":1033,"o":"m 940 1650 l 1033 1560 q 936 1460 1015 1529 q 810 1371 857 1392 l 763 1411 l 940 1650 m 297 1225 l 542 1476 l 653 1476 l 793 1224 l 725 1188 l 581 1342 l 356 1189 l 297 1225 m 456 1032 l 647 1032 l 818 83 l 929 64 l 925 0 l 500 0 l 503 64 l 617 82 l 583 292 l 231 292 l 138 82 l 264 64 l 258 0 l -100 0 l -94 64 l 0 82 l 456 1032 m 501 906 l 269 382 l 571 382 l 508 793 l 501 906 z "},"Ậ":{"ha":914,"x_min":-100,"x_max":929,"o":"m 456 1032 l 647 1032 l 818 83 l 929 64 l 925 0 l 500 0 l 503 64 l 617 82 l 583 292 l 231 292 l 138 82 l 264 64 l 258 0 l -100 0 l -94 64 l 0 82 l 456 1032 m 501 906 l 269 382 l 571 382 l 508 793 l 501 906 m 294 -204 q 324 -129 294 -158 q 392 -100 354 -100 q 447 -122 428 -100 q 467 -178 467 -144 q 435 -256 467 -228 q 364 -285 404 -285 q 315 -262 335 -285 q 294 -204 294 -239 m 319 1128 l 558 1363 l 669 1363 l 814 1128 l 746 1090 l 601 1242 l 379 1092 l 319 1128 z "},"Ầ":{"ha":914,"x_min":-100,"x_max":929,"o":"m 822 1442 q 708 1525 782 1461 q 610 1629 633 1589 l 707 1717 l 871 1476 l 822 1442 m 308 1231 l 553 1482 l 664 1482 l 804 1229 l 736 1193 l 592 1347 l 367 1194 l 308 1231 m 456 1032 l 647 1032 l 818 83 l 929 64 l 925 0 l 500 0 l 503 64 l 617 82 l 583 292 l 231 292 l 138 82 l 264 64 l 258 0 l -100 0 l -94 64 l 0 82 l 456 1032 m 501 906 l 269 382 l 571 382 l 508 793 l 501 906 z "},"Ẩ":{"ha":914,"x_min":-100,"x_max":990,"o":"m 804 1363 q 792 1390 799 1371 q 786 1418 785 1410 q 798 1441 789 1432 q 824 1461 807 1450 q 848 1478 839 1471 q 861 1497 857 1486 l 863 1500 q 864 1513 864 1504 q 817 1549 864 1547 q 781 1546 786 1549 l 796 1650 q 815 1654 799 1651 q 844 1657 832 1657 q 951 1630 913 1657 q 990 1551 990 1603 q 988 1522 990 1533 q 963 1476 982 1494 q 922 1444 943 1458 q 889 1422 900 1429 q 871 1401 876 1413 q 867 1369 865 1389 l 804 1363 m 304 1231 l 549 1482 l 660 1482 l 800 1229 l 732 1193 l 588 1347 l 363 1194 l 304 1231 m 456 1032 l 647 1032 l 818 83 l 929 64 l 925 0 l 500 0 l 503 64 l 617 82 l 583 292 l 231 292 l 138 82 l 264 64 l 258 0 l -100 0 l -94 64 l 0 82 l 456 1032 m 501 906 l 269 382 l 571 382 l 508 793 l 501 906 z "},"Ẫ":{"ha":914,"x_min":-100,"x_max":929,"o":"m 388 1618 q 452 1690 407 1658 q 542 1722 497 1722 q 597 1708 575 1722 q 643 1668 619 1693 q 676 1639 663 1649 q 708 1629 690 1629 q 760 1646 740 1629 q 804 1696 779 1663 l 850 1628 q 790 1551 835 1585 q 699 1517 746 1517 q 638 1530 661 1517 q 590 1568 615 1543 q 557 1597 572 1588 q 519 1608 542 1607 q 425 1553 475 1608 l 388 1618 m 300 1228 l 544 1479 l 656 1479 l 796 1226 l 728 1190 l 583 1344 l 358 1192 l 300 1228 m 456 1032 l 647 1032 l 818 83 l 929 64 l 925 0 l 500 0 l 503 64 l 617 82 l 583 292 l 231 292 l 138 82 l 264 64 l 258 0 l -100 0 l -94 64 l 0 82 l 456 1032 m 501 906 l 269 382 l 571 382 l 508 793 l 501 906 z "},"Ä":{"ha":914,"x_min":-100,"x_max":929,"o":"m 456 1032 l 647 1032 l 818 83 l 929 64 l 925 0 l 500 0 l 503 64 l 617 82 l 583 292 l 231 292 l 138 82 l 264 64 l 258 0 l -100 0 l -94 64 l 0 82 l 456 1032 m 501 906 l 269 382 l 571 382 l 508 793 l 501 906 m 410 1144 q 352 1169 375 1144 q 329 1231 329 1194 q 358 1310 329 1279 q 431 1340 386 1340 q 493 1317 471 1340 q 515 1258 515 1294 q 488 1176 515 1207 q 410 1144 461 1144 m 710 1144 q 652 1169 675 1144 q 629 1231 629 1194 q 658 1310 629 1281 q 731 1340 686 1340 q 792 1317 769 1340 q 814 1258 814 1294 q 787 1176 814 1207 q 710 1144 760 1144 z "},"Ạ":{"ha":914,"x_min":-100,"x_max":929,"o":"m 456 1032 l 647 1032 l 818 83 l 929 64 l 925 0 l 500 0 l 503 64 l 617 82 l 583 292 l 231 292 l 138 82 l 264 64 l 258 0 l -100 0 l -94 64 l 0 82 l 456 1032 m 501 906 l 269 382 l 571 382 l 508 793 l 501 906 m 294 -204 q 324 -129 294 -158 q 392 -100 354 -100 q 447 -122 428 -100 q 467 -178 467 -144 q 435 -256 467 -228 q 364 -285 404 -285 q 315 -262 335 -285 q 294 -204 294 -239 z "},"À":{"ha":914,"x_min":-100,"x_max":929,"o":"m 456 1032 l 647 1032 l 818 83 l 929 64 l 925 0 l 500 0 l 503 64 l 617 82 l 583 292 l 231 292 l 138 82 l 264 64 l 258 0 l -100 0 l -94 64 l 0 82 l 456 1032 m 501 906 l 269 382 l 571 382 l 508 793 l 501 906 m 567 1075 q 435 1154 508 1100 q 338 1258 363 1208 l 444 1363 l 631 1129 l 567 1075 z "},"Ả":{"ha":914,"x_min":-100,"x_max":929,"o":"m 456 1032 l 647 1032 l 818 83 l 929 64 l 925 0 l 500 0 l 503 64 l 617 82 l 583 292 l 231 292 l 138 82 l 264 64 l 258 0 l -100 0 l -94 64 l 0 82 l 456 1032 m 501 906 l 269 382 l 571 382 l 508 793 l 501 906 m 521 1135 q 506 1167 514 1144 q 500 1199 499 1189 q 513 1225 503 1215 q 544 1250 522 1235 q 573 1270 563 1261 q 589 1292 583 1279 l 590 1296 q 592 1310 592 1300 q 536 1353 592 1349 q 494 1349 500 1353 l 511 1471 q 534 1476 515 1474 q 568 1479 553 1479 q 694 1448 647 1479 q 740 1357 740 1417 q 736 1322 740 1342 q 707 1267 729 1289 q 647 1222 685 1244 l 621 1204 q 600 1180 607 1193 q 594 1143 593 1167 l 521 1135 z "},"Ā":{"ha":914,"x_min":-100,"x_max":929,"o":"m 456 1032 l 647 1032 l 818 83 l 929 64 l 925 0 l 500 0 l 503 64 l 617 82 l 583 292 l 231 292 l 138 82 l 264 64 l 258 0 l -100 0 l -94 64 l 0 82 l 456 1032 m 501 906 l 269 382 l 571 382 l 508 793 l 501 906 m 386 1288 l 760 1288 l 746 1165 l 372 1165 l 386 1288 z "},"Ą":{"ha":914,"x_min":-100,"x_max":929,"o":"m 776 0 q 679 -81 714 -44 q 644 -149 644 -117 q 689 -200 643 -200 q 740 -187 715 -200 q 794 -151 764 -175 l 817 -219 q 604 -311 722 -311 q 514 -282 544 -311 q 483 -206 483 -253 q 491 -163 483 -187 q 511 -122 499 -139 q 577 -51 542 -78 q 657 0 613 -24 l 500 0 l 503 64 l 617 82 l 583 292 l 231 292 l 138 82 l 264 64 l 258 0 l -100 0 l -94 64 l 0 82 l 456 1032 l 647 1032 l 818 83 l 929 64 l 925 0 l 776 0 m 501 906 l 269 382 l 571 382 l 508 793 l 501 906 z "},"Å":{"ha":914,"x_min":-100,"x_max":929,"o":"m 453 1028 q 369 1080 399 1043 q 339 1169 339 1117 q 378 1279 339 1236 q 477 1342 418 1322 q 594 1361 536 1361 q 740 1322 683 1361 q 796 1214 796 1283 q 754 1096 796 1142 q 647 1029 713 1050 l 818 83 l 929 64 l 925 0 l 500 0 l 503 64 l 617 82 l 583 292 l 231 292 l 138 82 l 264 64 l 258 0 l -100 0 l -94 64 l 0 82 l 453 1028 m 581 1286 q 488 1260 528 1286 q 449 1182 449 1235 q 481 1117 449 1143 q 557 1092 513 1092 q 647 1116 610 1092 q 685 1199 685 1140 q 653 1262 685 1238 q 581 1286 622 1286 m 501 906 l 269 382 l 571 382 l 508 793 l 501 906 z "},"Ǻ":{"ha":914,"x_min":-100,"x_max":929,"o":"m 453 1028 q 369 1080 399 1043 q 339 1169 339 1117 q 378 1279 339 1236 q 477 1342 418 1322 q 594 1361 536 1361 q 740 1322 683 1361 q 796 1214 796 1283 q 754 1096 796 1142 q 647 1029 713 1050 l 818 83 l 929 64 l 925 0 l 500 0 l 503 64 l 617 82 l 583 292 l 231 292 l 138 82 l 264 64 l 258 0 l -100 0 l -94 64 l 0 82 l 453 1028 m 581 1286 q 488 1260 528 1286 q 449 1182 449 1235 q 481 1117 449 1143 q 557 1092 513 1092 q 647 1116 610 1092 q 685 1199 685 1140 q 653 1262 685 1238 q 581 1286 622 1286 m 501 906 l 269 382 l 571 382 l 508 793 l 501 906 m 729 1689 l 836 1585 q 735 1481 810 1538 q 604 1401 661 1425 l 542 1456 l 729 1689 z "},"Ã":{"ha":914,"x_min":-100,"x_max":929,"o":"m 456 1032 l 647 1032 l 818 83 l 929 64 l 925 0 l 500 0 l 503 64 l 617 82 l 583 292 l 231 292 l 138 82 l 264 64 l 258 0 l -100 0 l -94 64 l 0 82 l 456 1032 m 501 906 l 269 382 l 571 382 l 508 793 l 501 906 m 322 1221 q 385 1301 340 1268 q 488 1335 429 1335 q 549 1320 524 1335 q 601 1278 574 1306 q 643 1244 628 1254 q 679 1235 658 1235 q 738 1254 714 1235 q 783 1303 763 1274 l 833 1228 q 771 1144 815 1181 q 672 1108 726 1108 q 606 1123 632 1108 q 551 1165 581 1138 q 510 1199 526 1189 q 469 1210 493 1210 q 415 1194 439 1210 q 367 1150 390 1178 l 322 1221 z "},"Æ":{"ha":1319,"x_min":-131,"x_max":1289,"o":"m 282 1032 l 1289 1032 l 1269 799 l 1151 799 l 1129 944 l 867 958 l 815 581 l 1122 604 l 1104 471 l 806 488 l 753 82 l 1096 103 l 1171 285 l 1285 272 l 1238 0 l 451 0 l 460 64 l 561 82 l 589 301 l 260 301 l 147 82 l 283 64 l 279 0 l -131 0 l -124 64 l -15 82 l 475 944 l 272 960 l 282 1032 m 600 956 l 307 392 l 600 392 l 672 954 l 600 956 z "},"Ǽ":{"ha":1319,"x_min":-131,"x_max":1289,"o":"m 976 1363 l 1083 1258 q 983 1155 1057 1211 q 851 1075 908 1099 l 789 1129 l 976 1363 m 282 1032 l 1289 1032 l 1269 799 l 1151 799 l 1129 944 l 867 958 l 815 581 l 1122 604 l 1104 471 l 806 488 l 753 82 l 1096 103 l 1171 285 l 1285 272 l 1238 0 l 451 0 l 460 64 l 561 82 l 589 301 l 260 301 l 147 82 l 283 64 l 279 0 l -131 0 l -124 64 l -15 82 l 475 944 l 272 960 l 282 1032 m 600 956 l 307 392 l 600 392 l 672 954 l 600 956 z "},"B":{"ha":924,"x_min":0,"x_max":875,"o":"m 335 1032 q 432 1038 365 1032 q 560 1043 513 1043 q 805 978 735 1043 q 875 813 875 914 q 635 546 875 606 q 756 516 703 544 q 840 440 810 488 q 869 336 869 393 q 389 -12 871 -12 q 282 -6 344 -12 q 183 0 213 0 l 0 0 l 6 64 l 103 82 l 217 949 l 119 964 l 128 1032 l 335 1032 m 353 576 q 393 576 375 575 q 424 576 411 576 l 463 576 q 628 631 563 576 q 693 797 693 686 q 515 964 693 964 q 403 956 442 964 l 353 576 m 288 82 q 351 71 311 75 q 415 67 390 67 q 602 124 536 67 q 668 304 668 182 q 619 446 668 400 q 461 492 569 492 q 342 489 386 492 l 288 82 z "},"Ḃ":{"ha":922,"x_min":-1,"x_max":874,"o":"m 510 1114 q 442 1144 471 1114 q 413 1211 413 1174 q 449 1293 415 1260 q 532 1326 482 1326 q 606 1299 576 1326 q 635 1236 635 1272 q 601 1149 635 1183 q 510 1114 568 1114 m 333 1032 q 431 1038 364 1032 q 558 1043 511 1043 q 803 978 733 1043 q 874 813 874 914 q 633 546 874 606 q 755 516 701 544 q 838 440 808 488 q 868 336 868 393 q 388 -12 869 -12 q 281 -6 343 -12 q 182 0 211 0 l -1 0 l 4 64 l 101 82 l 215 949 l 118 964 l 126 1032 l 333 1032 m 351 576 q 392 576 374 575 q 422 576 410 576 l 461 576 q 626 631 561 576 q 692 797 692 686 q 514 964 692 964 q 401 956 440 964 l 351 576 m 286 82 q 349 71 310 75 q 414 67 389 67 q 601 124 535 67 q 667 304 667 182 q 617 446 667 400 q 460 492 568 492 q 340 489 385 492 l 286 82 z "},"C":{"ha":867,"x_min":47,"x_max":882,"o":"m 686 944 q 586 964 647 964 q 406 889 479 964 q 296 698 332 814 q 260 461 260 582 q 312 184 260 285 q 475 83 364 83 q 565 95 519 83 q 642 139 611 107 q 692 281 664 176 l 804 281 l 775 76 q 444 -11 640 -11 q 217 50 306 -11 q 88 212 128 111 q 47 436 47 313 q 119 760 47 622 q 321 971 192 897 q 615 1044 450 1044 q 741 1038 694 1044 q 817 1023 788 1031 q 857 1013 846 1015 l 882 1006 l 840 742 l 706 742 l 686 944 z "},"Ć":{"ha":867,"x_min":47,"x_max":882,"o":"m 686 944 q 586 964 647 964 q 406 889 479 964 q 296 698 332 814 q 260 461 260 582 q 312 184 260 285 q 475 83 364 83 q 565 95 519 83 q 642 139 611 107 q 692 281 664 176 l 804 281 l 775 76 q 444 -11 640 -11 q 217 50 306 -11 q 88 212 128 111 q 47 436 47 313 q 119 760 47 622 q 321 971 192 897 q 615 1044 450 1044 q 741 1038 694 1044 q 817 1023 788 1031 q 857 1013 846 1015 l 882 1006 l 840 742 l 706 742 l 686 944 m 726 1363 l 833 1258 q 733 1155 807 1211 q 601 1075 658 1099 l 539 1129 l 726 1363 z "},"Č":{"ha":867,"x_min":47,"x_max":890,"o":"m 686 944 q 586 964 647 964 q 406 889 479 964 q 296 698 332 814 q 260 461 260 582 q 312 184 260 285 q 475 83 364 83 q 565 95 519 83 q 642 139 611 107 q 692 281 664 176 l 804 281 l 775 76 q 444 -11 640 -11 q 217 50 306 -11 q 88 212 128 111 q 47 436 47 313 q 119 760 47 622 q 321 971 192 897 q 615 1044 450 1044 q 741 1038 694 1044 q 817 1023 788 1031 q 857 1013 846 1015 l 882 1006 l 840 742 l 706 742 l 686 944 m 399 1326 l 467 1363 l 613 1224 l 831 1363 l 890 1326 l 654 1090 l 543 1090 l 399 1326 z "},"Ç":{"ha":867,"x_min":47,"x_max":882,"o":"m 586 964 q 406 889 479 964 q 296 698 332 814 q 260 461 260 582 q 312 184 260 285 q 475 83 364 83 q 565 95 519 83 q 642 139 611 107 q 692 281 664 176 l 804 281 l 775 76 q 526 -7 667 7 q 541 -70 535 -35 q 547 -136 547 -106 q 498 -274 547 -226 q 351 -322 449 -322 q 283 -317 322 -322 q 232 -304 243 -311 l 251 -207 q 310 -218 274 -218 q 435 -72 435 -218 q 431 -11 435 -36 q 140 121 233 -6 q 47 436 47 247 q 119 760 47 622 q 321 971 192 897 q 615 1044 450 1044 q 741 1038 694 1044 q 817 1023 788 1031 q 857 1013 846 1015 l 882 1006 l 840 742 l 706 742 l 686 944 q 586 964 647 964 z "},"Ĉ":{"ha":867,"x_min":47,"x_max":882,"o":"m 686 944 q 586 964 647 964 q 406 889 479 964 q 296 698 332 814 q 260 461 260 582 q 312 184 260 285 q 475 83 364 83 q 565 95 519 83 q 642 139 611 107 q 692 281 664 176 l 804 281 l 775 76 q 444 -11 640 -11 q 217 50 306 -11 q 88 212 128 111 q 47 436 47 313 q 119 760 47 622 q 321 971 192 897 q 615 1044 450 1044 q 741 1038 694 1044 q 817 1023 788 1031 q 857 1013 846 1015 l 882 1006 l 840 742 l 706 742 l 686 944 m 363 1128 l 601 1363 l 713 1363 l 857 1128 l 789 1090 l 644 1242 l 422 1092 l 363 1128 z "},"Ċ":{"ha":867,"x_min":47,"x_max":882,"o":"m 600 1114 q 532 1144 561 1114 q 503 1211 503 1174 q 539 1293 506 1260 q 622 1326 572 1326 q 696 1299 667 1326 q 725 1236 725 1272 q 692 1149 725 1183 q 600 1114 658 1114 m 686 944 q 586 964 647 964 q 406 889 479 964 q 296 698 332 814 q 260 461 260 582 q 312 184 260 285 q 475 83 364 83 q 565 95 519 83 q 642 139 611 107 q 692 281 664 176 l 804 281 l 775 76 q 444 -11 640 -11 q 217 50 306 -11 q 88 212 128 111 q 47 436 47 313 q 119 760 47 622 q 321 971 192 897 q 615 1044 450 1044 q 741 1038 694 1044 q 817 1023 788 1031 q 857 1013 846 1015 l 882 1006 l 840 742 l 706 742 l 686 944 z "},"D":{"ha":1003,"x_min":-10,"x_max":982,"o":"m 331 1032 q 433 1038 364 1032 q 561 1043 517 1043 q 882 929 782 1043 q 982 621 982 815 q 918 292 982 435 q 725 69 854 150 q 407 -11 596 -11 q 342 -6 378 -11 q 207 0 281 0 l -10 0 l -3 64 l 103 82 l 217 949 l 121 964 l 128 1032 l 331 1032 m 294 85 q 360 73 324 78 q 421 68 397 68 q 622 149 542 69 q 740 352 703 229 q 778 607 778 475 q 719 881 776 797 q 532 964 661 964 q 462 959 496 964 q 407 949 428 954 l 294 85 z "},"Ð":{"ha":1001,"x_min":-11,"x_max":981,"o":"m 321 1033 q 438 1039 357 1033 q 560 1044 518 1044 q 881 931 781 1044 q 981 622 981 817 q 917 294 981 436 q 723 71 853 151 q 404 -10 593 -10 q 340 -4 376 -10 q 194 1 274 1 l -11 1 l -4 65 l 101 83 l 153 483 l 56 483 l 69 583 l 167 583 l 215 950 l 119 965 l 126 1033 l 321 1033 m 293 86 q 359 74 322 79 q 419 69 396 69 q 621 151 540 71 q 739 353 701 231 q 776 608 776 476 q 717 882 775 799 q 531 965 660 965 q 460 960 494 965 q 406 950 426 956 l 358 583 l 589 583 l 575 483 l 344 483 l 293 86 z "},"Ď":{"ha":1006,"x_min":-11,"x_max":981,"o":"m 382 1326 l 450 1363 l 596 1224 l 814 1363 l 874 1326 l 638 1090 l 526 1090 l 382 1326 m 329 1032 q 432 1038 363 1032 q 560 1043 515 1043 q 881 929 781 1043 q 981 621 981 815 q 917 292 981 435 q 724 69 853 150 q 406 -11 594 -11 q 340 -6 376 -11 q 206 0 279 0 l -11 0 l -4 64 l 101 82 l 215 949 l 119 964 l 126 1032 l 329 1032 m 293 85 q 359 73 322 78 q 419 68 396 68 q 621 149 540 69 q 739 352 701 229 q 776 607 776 475 q 717 881 775 797 q 531 964 660 964 q 460 959 494 964 q 406 949 426 954 l 293 85 z "},"Đ":{"ha":1006,"x_min":-11,"x_max":981,"o":"m 321 1033 q 438 1039 357 1033 q 560 1044 518 1044 q 881 931 781 1044 q 981 622 981 817 q 917 294 981 436 q 723 71 853 151 q 404 -10 593 -10 q 340 -4 376 -10 q 194 1 274 1 l -11 1 l -4 65 l 101 83 l 153 483 l 56 483 l 69 583 l 167 583 l 215 950 l 119 965 l 126 1033 l 321 1033 m 293 86 q 359 74 322 79 q 419 69 396 69 q 621 151 540 71 q 739 353 701 231 q 776 608 776 476 q 717 882 775 799 q 531 965 660 965 q 460 960 494 965 q 406 950 426 956 l 358 583 l 589 583 l 575 483 l 344 483 l 293 86 z "},"Ḋ":{"ha":1006,"x_min":-11,"x_max":981,"o":"m 583 1114 q 515 1144 544 1114 q 486 1211 486 1174 q 522 1293 489 1260 q 606 1326 556 1326 q 679 1299 650 1326 q 708 1236 708 1272 q 675 1149 708 1183 q 583 1114 642 1114 m 329 1032 q 432 1038 363 1032 q 560 1043 515 1043 q 881 929 781 1043 q 981 621 981 815 q 917 292 981 435 q 724 69 853 150 q 406 -11 594 -11 q 340 -6 376 -11 q 206 0 279 0 l -11 0 l -4 64 l 101 82 l 215 949 l 119 964 l 126 1032 l 329 1032 m 293 85 q 359 73 322 78 q 419 68 396 68 q 621 149 540 69 q 739 352 701 229 q 776 607 776 475 q 717 881 775 797 q 531 964 660 964 q 460 959 494 964 q 406 949 426 954 l 293 85 z "},"E":{"ha":867,"x_min":-11,"x_max":838,"o":"m 126 1032 l 838 1032 l 821 796 l 701 796 l 679 944 l 410 958 l 360 582 l 675 604 l 657 471 l 349 488 l 293 82 l 643 103 l 722 289 l 836 276 l 785 0 l -11 0 l -3 64 l 104 82 l 215 949 l 118 964 l 126 1032 z "},"É":{"ha":867,"x_min":-11,"x_max":838,"o":"m 671 1363 l 778 1258 q 677 1155 751 1211 q 546 1075 603 1099 l 483 1129 l 671 1363 m 126 1032 l 838 1032 l 821 796 l 701 796 l 679 944 l 410 958 l 360 582 l 675 604 l 657 471 l 349 488 l 293 82 l 643 103 l 722 289 l 836 276 l 785 0 l -11 0 l -3 64 l 104 82 l 215 949 l 118 964 l 126 1032 z "},"Ĕ":{"ha":867,"x_min":-11,"x_max":838,"o":"m 550 1107 q 389 1169 435 1107 q 343 1318 343 1231 q 346 1357 343 1346 l 449 1357 q 469 1265 450 1297 q 553 1232 489 1232 q 650 1269 621 1232 q 683 1357 679 1307 l 782 1357 q 753 1231 782 1288 q 671 1140 724 1174 q 550 1107 618 1107 m 126 1032 l 838 1032 l 821 796 l 701 796 l 679 944 l 410 958 l 360 582 l 675 604 l 657 471 l 349 488 l 293 82 l 643 103 l 722 289 l 836 276 l 785 0 l -11 0 l -3 64 l 104 82 l 215 949 l 118 964 l 126 1032 z "},"Ě":{"ha":867,"x_min":-11,"x_max":838,"o":"m 342 1326 l 410 1363 l 556 1224 l 774 1363 l 833 1326 l 597 1090 l 486 1090 l 342 1326 m 126 1032 l 838 1032 l 821 796 l 701 796 l 679 944 l 410 958 l 360 582 l 675 604 l 657 471 l 349 488 l 293 82 l 643 103 l 722 289 l 836 276 l 785 0 l -11 0 l -3 64 l 104 82 l 215 949 l 118 964 l 126 1032 z "},"Ê":{"ha":867,"x_min":-11,"x_max":838,"o":"m 126 1032 l 838 1032 l 821 796 l 701 796 l 679 944 l 410 958 l 360 582 l 675 604 l 657 471 l 349 488 l 293 82 l 643 103 l 722 289 l 836 276 l 785 0 l -11 0 l -3 64 l 104 82 l 215 949 l 118 964 l 126 1032 m 306 1128 l 544 1363 l 656 1363 l 800 1128 l 732 1090 l 588 1242 l 365 1092 l 306 1128 z "},"Ế":{"ha":867,"x_min":-11,"x_max":1019,"o":"m 926 1650 l 1019 1560 q 922 1460 1001 1529 q 796 1371 843 1392 l 749 1411 l 926 1650 m 283 1225 l 528 1476 l 639 1476 l 779 1224 l 711 1188 l 567 1342 l 342 1189 l 283 1225 m 126 1032 l 838 1032 l 821 796 l 701 796 l 679 944 l 410 958 l 360 582 l 675 604 l 657 471 l 349 488 l 293 82 l 643 103 l 722 289 l 836 276 l 785 0 l -11 0 l -3 64 l 104 82 l 215 949 l 118 964 l 126 1032 z "},"Ệ":{"ha":867,"x_min":-11,"x_max":838,"o":"m 126 1032 l 838 1032 l 821 796 l 701 796 l 679 944 l 410 958 l 360 582 l 675 604 l 657 471 l 349 488 l 293 82 l 643 103 l 722 289 l 836 276 l 785 0 l -11 0 l -3 64 l 104 82 l 215 949 l 118 964 l 126 1032 m 271 -204 q 301 -129 271 -158 q 368 -100 331 -100 q 424 -122 404 -100 q 443 -178 443 -144 q 412 -256 443 -228 q 340 -285 381 -285 q 291 -262 311 -285 q 271 -204 271 -239 m 306 1128 l 544 1363 l 656 1363 l 800 1128 l 732 1090 l 588 1242 l 365 1092 l 306 1128 z "},"Ề":{"ha":867,"x_min":-11,"x_max":857,"o":"m 808 1442 q 694 1525 768 1461 q 596 1629 619 1589 l 693 1717 l 857 1476 l 808 1442 m 294 1231 l 539 1482 l 650 1482 l 790 1229 l 722 1193 l 578 1347 l 353 1194 l 294 1231 m 126 1032 l 838 1032 l 821 796 l 701 796 l 679 944 l 410 958 l 360 582 l 675 604 l 657 471 l 349 488 l 293 82 l 643 103 l 722 289 l 836 276 l 785 0 l -11 0 l -3 64 l 104 82 l 215 949 l 118 964 l 126 1032 z "},"Ể":{"ha":867,"x_min":-11,"x_max":976,"o":"m 790 1363 q 778 1390 785 1371 q 772 1418 771 1410 q 784 1441 775 1432 q 810 1461 793 1450 q 834 1478 825 1471 q 847 1497 843 1486 l 849 1500 q 850 1513 850 1504 q 803 1549 850 1547 q 767 1546 772 1549 l 782 1650 q 801 1654 785 1651 q 831 1657 818 1657 q 938 1630 899 1657 q 976 1551 976 1603 q 974 1522 976 1533 q 949 1476 968 1494 q 908 1444 929 1458 q 875 1422 886 1429 q 857 1401 863 1413 q 853 1369 851 1389 l 790 1363 m 290 1231 l 535 1482 l 646 1482 l 786 1229 l 718 1193 l 574 1347 l 349 1194 l 290 1231 m 126 1032 l 838 1032 l 821 796 l 701 796 l 679 944 l 410 958 l 360 582 l 675 604 l 657 471 l 349 488 l 293 82 l 643 103 l 722 289 l 836 276 l 785 0 l -11 0 l -3 64 l 104 82 l 215 949 l 118 964 l 126 1032 z "},"Ễ":{"ha":867,"x_min":-11,"x_max":838,"o":"m 374 1618 q 438 1690 393 1658 q 528 1722 483 1722 q 583 1708 561 1722 q 629 1668 606 1693 q 663 1638 650 1647 q 694 1629 676 1629 q 746 1646 726 1629 q 790 1696 765 1663 l 836 1628 q 776 1551 821 1585 q 685 1517 732 1517 q 624 1530 647 1517 q 576 1568 601 1543 q 543 1597 558 1588 q 506 1608 528 1607 q 411 1553 461 1608 l 374 1618 m 286 1228 l 531 1479 l 642 1479 l 782 1226 l 714 1190 l 569 1344 l 344 1192 l 286 1228 m 126 1032 l 838 1032 l 821 796 l 701 796 l 679 944 l 410 958 l 360 582 l 675 604 l 657 471 l 349 488 l 293 82 l 643 103 l 722 289 l 836 276 l 785 0 l -11 0 l -3 64 l 104 82 l 215 949 l 118 964 l 126 1032 z "},"Ë":{"ha":867,"x_min":-11,"x_max":838,"o":"m 397 1144 q 340 1169 363 1144 q 317 1231 317 1194 q 345 1310 317 1279 q 418 1340 374 1340 q 481 1317 458 1340 q 503 1258 503 1294 q 476 1176 503 1207 q 397 1144 449 1144 m 697 1144 q 640 1169 663 1144 q 617 1231 617 1194 q 645 1310 617 1281 q 718 1340 674 1340 q 779 1317 757 1340 q 801 1258 801 1294 q 774 1176 801 1207 q 697 1144 747 1144 m 126 1032 l 838 1032 l 821 796 l 701 796 l 679 944 l 410 958 l 360 582 l 675 604 l 657 471 l 349 488 l 293 82 l 643 103 l 722 289 l 836 276 l 785 0 l -11 0 l -3 64 l 104 82 l 215 949 l 118 964 l 126 1032 z "},"Ė":{"ha":867,"x_min":-11,"x_max":838,"o":"m 543 1114 q 475 1144 504 1114 q 446 1211 446 1174 q 482 1293 449 1260 q 565 1326 515 1326 q 639 1299 610 1326 q 668 1236 668 1272 q 635 1149 668 1183 q 543 1114 601 1114 m 126 1032 l 838 1032 l 821 796 l 701 796 l 679 944 l 410 958 l 360 582 l 675 604 l 657 471 l 349 488 l 293 82 l 643 103 l 722 289 l 836 276 l 785 0 l -11 0 l -3 64 l 104 82 l 215 949 l 118 964 l 126 1032 z "},"Ẹ":{"ha":867,"x_min":-11,"x_max":838,"o":"m 126 1032 l 838 1032 l 821 796 l 701 796 l 679 944 l 410 958 l 360 582 l 675 604 l 657 471 l 349 488 l 293 82 l 643 103 l 722 289 l 836 276 l 785 0 l -11 0 l -3 64 l 104 82 l 215 949 l 118 964 l 126 1032 m 271 -204 q 301 -129 271 -158 q 368 -100 331 -100 q 424 -122 404 -100 q 443 -178 443 -144 q 412 -256 443 -228 q 340 -285 381 -285 q 291 -262 311 -285 q 271 -204 271 -239 z "},"È":{"ha":867,"x_min":-11,"x_max":838,"o":"m 554 1075 q 423 1154 496 1100 q 325 1258 350 1208 l 432 1363 l 618 1129 l 554 1075 m 126 1032 l 838 1032 l 821 796 l 701 796 l 679 944 l 410 958 l 360 582 l 675 604 l 657 471 l 349 488 l 293 82 l 643 103 l 722 289 l 836 276 l 785 0 l -11 0 l -3 64 l 104 82 l 215 949 l 118 964 l 126 1032 z "},"Ẻ":{"ha":867,"x_min":-11,"x_max":838,"o":"m 126 1032 l 838 1032 l 821 796 l 701 796 l 679 944 l 410 958 l 360 582 l 675 604 l 657 471 l 349 488 l 293 82 l 643 103 l 722 289 l 836 276 l 785 0 l -11 0 l -3 64 l 104 82 l 215 949 l 118 964 l 126 1032 m 507 1135 q 492 1167 500 1144 q 486 1199 485 1189 q 499 1225 489 1215 q 531 1250 508 1235 q 559 1270 549 1261 q 575 1292 569 1279 l 576 1296 q 578 1310 578 1300 q 522 1353 578 1349 q 481 1349 486 1353 l 497 1471 q 520 1476 501 1474 q 554 1479 539 1479 q 680 1448 633 1479 q 726 1357 726 1417 q 722 1322 726 1342 q 693 1267 715 1289 q 633 1222 671 1244 l 607 1204 q 586 1180 593 1193 q 581 1143 579 1167 l 507 1135 z "},"Ē":{"ha":867,"x_min":-11,"x_max":838,"o":"m 374 1288 l 747 1288 l 733 1165 l 360 1165 l 374 1288 m 126 1032 l 838 1032 l 821 796 l 701 796 l 679 944 l 410 958 l 360 582 l 675 604 l 657 471 l 349 488 l 293 82 l 643 103 l 722 289 l 836 276 l 785 0 l -11 0 l -3 64 l 104 82 l 215 949 l 118 964 l 126 1032 z "},"Ę":{"ha":874,"x_min":-11,"x_max":838,"o":"m 726 0 q 629 -81 664 -44 q 593 -149 594 -117 q 639 -200 593 -200 q 690 -187 665 -200 q 744 -151 714 -175 l 765 -219 q 671 -285 725 -260 q 554 -311 617 -311 q 464 -282 494 -311 q 433 -206 433 -253 q 441 -163 433 -187 q 461 -122 449 -139 q 527 -51 492 -78 q 607 0 563 -24 l -11 0 l -3 64 l 104 82 l 215 949 l 118 964 l 126 1032 l 838 1032 l 821 796 l 701 796 l 679 944 l 410 958 l 360 582 l 675 604 l 657 471 l 349 488 l 293 82 l 643 103 l 722 289 l 836 276 l 785 0 l 726 0 z "},"Ẽ":{"ha":867,"x_min":-11,"x_max":838,"o":"m 126 1032 l 838 1032 l 821 796 l 701 796 l 679 944 l 410 958 l 360 582 l 675 604 l 657 471 l 349 488 l 293 82 l 643 103 l 722 289 l 836 276 l 785 0 l -11 0 l -3 64 l 104 82 l 215 949 l 118 964 l 126 1032 m 308 1221 q 371 1301 326 1268 q 474 1335 415 1335 q 535 1320 510 1335 q 588 1278 560 1306 q 629 1244 614 1254 q 665 1235 644 1235 q 724 1254 700 1235 q 769 1303 749 1274 l 819 1228 q 757 1144 801 1181 q 658 1108 713 1108 q 592 1123 618 1108 q 538 1165 567 1138 q 496 1199 513 1189 q 456 1210 479 1210 q 401 1194 425 1210 q 353 1150 376 1178 l 308 1221 z "},"F":{"ha":814,"x_min":0,"x_max":856,"o":"m 128 1032 l 856 1032 l 833 789 l 711 789 l 694 943 l 410 957 l 360 578 l 692 592 l 675 461 l 349 482 l 296 83 l 475 64 l 469 0 l 0 0 l 7 64 l 104 82 l 215 949 l 118 964 l 128 1032 z "},"Ḟ":{"ha":814,"x_min":0,"x_max":856,"o":"m 543 1114 q 475 1144 504 1114 q 446 1211 446 1174 q 482 1293 449 1260 q 565 1326 515 1326 q 639 1299 610 1326 q 668 1236 668 1272 q 635 1149 668 1183 q 543 1114 601 1114 m 128 1032 l 856 1032 l 833 789 l 711 789 l 694 943 l 410 957 l 360 578 l 692 592 l 675 461 l 349 482 l 296 83 l 475 64 l 469 0 l 0 0 l 7 64 l 104 82 l 215 949 l 118 964 l 128 1032 z "},"G":{"ha":943,"x_min":47,"x_max":918,"o":"m 828 60 q 713 38 775 54 q 565 1 626 14 q 425 -11 504 -11 q 215 49 299 -11 q 91 208 131 110 q 50 425 51 307 q 113 751 47 611 q 302 967 178 890 q 596 1044 426 1044 q 745 1035 688 1044 q 837 1017 803 1026 q 882 1006 871 1008 l 918 997 l 876 781 l 746 781 l 740 929 q 593 964 685 964 q 335 815 417 964 q 253 443 253 665 q 307 183 254 286 q 465 79 360 79 q 644 114 583 79 l 682 406 l 526 417 l 538 504 l 889 504 l 828 60 z "},"Ǵ":{"ha":943,"x_min":50,"x_max":918,"o":"m 828 60 q 713 38 775 54 q 565 1 626 14 q 425 -11 504 -11 q 215 49 299 -11 q 91 208 131 110 q 50 425 51 307 q 113 751 47 611 q 302 967 178 890 q 596 1044 426 1044 q 745 1035 688 1044 q 837 1017 803 1026 q 882 1006 871 1008 l 918 997 l 876 781 l 746 781 l 740 929 q 593 964 685 964 q 335 815 417 964 q 253 443 253 665 q 307 183 254 286 q 465 79 360 79 q 644 114 583 79 l 682 406 l 526 417 l 538 504 l 889 504 l 828 60 m 724 1363 l 831 1258 q 730 1155 804 1211 q 599 1075 656 1099 l 536 1129 l 724 1363 z "},"Ğ":{"ha":950,"x_min":50,"x_max":918,"o":"m 604 1107 q 443 1169 489 1107 q 397 1318 397 1231 q 400 1357 397 1346 l 503 1357 q 524 1265 504 1297 q 607 1232 543 1232 q 704 1269 675 1232 q 738 1357 733 1307 l 836 1357 q 807 1231 836 1288 q 725 1140 778 1174 q 604 1107 672 1107 m 828 60 q 713 38 775 54 q 565 1 626 14 q 425 -11 504 -11 q 215 49 299 -11 q 91 208 131 110 q 50 425 51 307 q 113 751 47 611 q 302 967 178 890 q 596 1044 426 1044 q 745 1035 688 1044 q 837 1017 803 1026 q 882 1006 871 1008 l 918 997 l 876 781 l 746 781 l 740 929 q 593 964 685 964 q 335 815 417 964 q 253 443 253 665 q 307 183 254 286 q 465 79 360 79 q 644 114 583 79 l 682 406 l 526 417 l 538 504 l 889 504 l 828 60 z "},"Ǧ":{"ha":943,"x_min":50,"x_max":918,"o":"m 828 60 q 713 38 775 54 q 565 1 626 14 q 425 -11 504 -11 q 215 49 299 -11 q 91 208 131 110 q 50 425 51 307 q 113 751 47 611 q 302 967 178 890 q 596 1044 426 1044 q 745 1035 688 1044 q 837 1017 803 1026 q 882 1006 871 1008 l 918 997 l 876 781 l 746 781 l 740 929 q 593 964 685 964 q 335 815 417 964 q 253 443 253 665 q 307 183 254 286 q 465 79 360 79 q 644 114 583 79 l 682 406 l 526 417 l 538 504 l 889 504 l 828 60 m 396 1326 l 464 1363 l 610 1224 l 828 1363 l 888 1326 l 651 1090 l 540 1090 l 396 1326 z "},"Ĝ":{"ha":943,"x_min":50,"x_max":918,"o":"m 828 60 q 713 38 775 54 q 565 1 626 14 q 425 -11 504 -11 q 215 49 299 -11 q 91 208 131 110 q 50 425 51 307 q 113 751 47 611 q 302 967 178 890 q 596 1044 426 1044 q 745 1035 688 1044 q 837 1017 803 1026 q 882 1006 871 1008 l 918 997 l 876 781 l 746 781 l 740 929 q 593 964 685 964 q 335 815 417 964 q 253 443 253 665 q 307 183 254 286 q 465 79 360 79 q 644 114 583 79 l 682 406 l 526 417 l 538 504 l 889 504 l 828 60 m 360 1128 l 599 1363 l 710 1363 l 854 1128 l 786 1090 l 642 1242 l 419 1092 l 360 1128 z "},"Ģ":{"ha":950,"x_min":50,"x_max":918,"o":"m 336 -325 q 372 -284 356 -311 q 388 -222 388 -257 q 375 -174 388 -196 q 342 -147 363 -151 l 347 -93 l 439 -28 q 508 -78 481 -37 q 535 -171 535 -119 q 513 -270 535 -225 q 459 -344 492 -315 q 394 -379 426 -372 l 336 -340 l 336 -325 m 828 60 q 713 38 775 54 q 565 1 626 14 q 425 -11 504 -11 q 215 49 299 -11 q 91 208 131 110 q 50 425 51 307 q 113 751 47 611 q 302 967 178 890 q 596 1044 426 1044 q 745 1035 688 1044 q 837 1017 803 1026 q 882 1006 871 1008 l 918 997 l 876 781 l 746 781 l 740 929 q 593 964 685 964 q 335 815 417 964 q 253 443 253 665 q 307 183 254 286 q 465 79 360 79 q 644 114 583 79 l 682 406 l 526 417 l 538 504 l 889 504 l 828 60 z "},"Ġ":{"ha":950,"x_min":50,"x_max":918,"o":"m 597 1114 q 529 1144 558 1114 q 500 1211 500 1174 q 536 1293 503 1260 q 619 1326 569 1326 q 693 1299 664 1326 q 722 1236 722 1272 q 689 1149 722 1183 q 597 1114 656 1114 m 828 60 q 713 38 775 54 q 565 1 626 14 q 425 -11 504 -11 q 215 49 299 -11 q 91 208 131 110 q 50 425 51 307 q 113 751 47 611 q 302 967 178 890 q 596 1044 426 1044 q 745 1035 688 1044 q 837 1017 803 1026 q 882 1006 871 1008 l 918 997 l 876 781 l 746 781 l 740 929 q 593 964 685 964 q 335 815 417 964 q 253 443 253 665 q 307 183 254 286 q 465 79 360 79 q 644 114 583 79 l 682 406 l 526 417 l 538 504 l 889 504 l 828 60 z "},"Ḡ":{"ha":943,"x_min":50,"x_max":918,"o":"m 828 60 q 713 38 775 54 q 565 1 626 14 q 425 -11 504 -11 q 215 49 299 -11 q 91 208 131 110 q 50 425 51 307 q 113 751 47 611 q 302 967 178 890 q 596 1044 426 1044 q 745 1035 688 1044 q 837 1017 803 1026 q 882 1006 871 1008 l 918 997 l 876 781 l 746 781 l 740 929 q 593 964 685 964 q 335 815 417 964 q 253 443 253 665 q 307 183 254 286 q 465 79 360 79 q 644 114 583 79 l 682 406 l 526 417 l 538 504 l 889 504 l 828 60 m 426 1288 l 800 1288 l 786 1165 l 413 1165 l 426 1288 z "},"H":{"ha":1092,"x_min":3,"x_max":1126,"o":"m 131 1032 l 533 1032 l 526 964 l 411 949 l 361 569 l 775 569 l 824 949 l 711 964 l 718 1032 l 1126 1032 l 1118 964 l 1017 949 l 906 82 l 1011 64 l 1004 0 l 582 0 l 589 64 l 713 82 l 764 482 l 350 482 l 299 82 l 413 64 l 407 0 l 3 0 l 8 64 l 106 82 l 218 949 l 122 964 l 131 1032 z "},"Ħ":{"ha":1092,"x_min":1,"x_max":1122,"o":"m 126 1036 l 531 1036 l 522 968 l 407 951 l 383 763 l 797 763 l 821 951 l 707 968 l 715 1036 l 1122 1036 l 1114 968 l 1014 951 l 989 763 l 1118 763 l 1110 675 l 979 675 l 904 82 l 1010 64 l 1003 0 l 581 0 l 589 64 l 711 82 l 756 429 l 342 429 l 297 82 l 411 64 l 406 0 l 1 0 l 8 64 l 104 82 l 179 675 l 54 675 l 63 763 l 190 763 l 214 951 l 118 968 l 126 1036 m 372 675 l 353 517 l 765 517 l 786 675 l 372 675 z "},"Ĥ":{"ha":1092,"x_min":3,"x_max":1126,"o":"m 131 1032 l 533 1032 l 526 964 l 411 949 l 361 569 l 775 569 l 824 949 l 711 964 l 718 1032 l 1126 1032 l 1118 964 l 1017 949 l 906 82 l 1011 64 l 1004 0 l 582 0 l 589 64 l 713 82 l 764 482 l 350 482 l 299 82 l 413 64 l 407 0 l 3 0 l 8 64 l 106 82 l 218 949 l 122 964 l 131 1032 m 408 1128 l 647 1363 l 758 1363 l 903 1128 l 835 1090 l 690 1242 l 468 1092 l 408 1128 z "},"I":{"ha":503,"x_min":3,"x_max":536,"o":"m 133 1032 l 536 1032 l 528 964 l 417 949 l 304 82 l 418 64 l 414 0 l 3 0 l 10 64 l 111 82 l 224 949 l 126 964 l 133 1032 z "},"Ĳ":{"ha":997,"x_min":3,"x_max":1033,"o":"m 133 1032 l 536 1032 l 528 964 l 417 949 l 304 82 l 418 64 l 414 0 l 3 0 l 10 64 l 111 82 l 224 949 l 126 964 l 133 1032 m 910 850 q 840 277 864 464 q 803 51 815 90 q 656 -141 763 -68 q 413 -233 550 -214 l 382 -169 q 539 -79 482 -140 q 611 60 596 -18 q 668 408 643 214 q 726 894 693 601 l 732 947 l 628 964 l 636 1032 l 1033 1032 l 1026 964 l 922 949 l 910 850 z "},"Í":{"ha":503,"x_min":3,"x_max":588,"o":"m 133 1032 l 536 1032 l 528 964 l 417 949 l 304 82 l 418 64 l 414 0 l 3 0 l 10 64 l 111 82 l 224 949 l 126 964 l 133 1032 m 481 1363 l 588 1258 q 487 1155 561 1211 q 356 1075 413 1099 l 293 1129 l 481 1363 z "},"Ĭ":{"ha":503,"x_min":3,"x_max":593,"o":"m 133 1032 l 536 1032 l 528 964 l 417 949 l 304 82 l 418 64 l 414 0 l 3 0 l 10 64 l 111 82 l 224 949 l 126 964 l 133 1032 m 361 1107 q 200 1169 246 1107 q 154 1318 154 1231 q 157 1357 154 1346 l 260 1357 q 281 1265 261 1297 q 364 1232 300 1232 q 461 1269 432 1232 q 494 1357 490 1307 l 593 1357 q 564 1231 593 1288 q 482 1140 535 1174 q 361 1107 429 1107 z "},"Î":{"ha":503,"x_min":3,"x_max":611,"o":"m 133 1032 l 536 1032 l 528 964 l 417 949 l 304 82 l 418 64 l 414 0 l 3 0 l 10 64 l 111 82 l 224 949 l 126 964 l 133 1032 m 117 1128 l 356 1363 l 467 1363 l 611 1128 l 543 1090 l 399 1242 l 176 1092 l 117 1128 z "},"Ï":{"ha":503,"x_min":3,"x_max":611,"o":"m 133 1032 l 536 1032 l 528 964 l 417 949 l 304 82 l 418 64 l 414 0 l 3 0 l 10 64 l 111 82 l 224 949 l 126 964 l 133 1032 m 207 1144 q 149 1169 172 1144 q 126 1231 126 1194 q 155 1310 126 1279 q 228 1340 183 1340 q 290 1317 268 1340 q 313 1258 313 1294 q 285 1176 313 1207 q 207 1144 258 1144 m 507 1144 q 449 1169 472 1144 q 426 1231 426 1194 q 455 1310 426 1281 q 528 1340 483 1340 q 589 1317 567 1340 q 611 1258 611 1294 q 584 1176 611 1207 q 507 1144 557 1144 z "},"İ":{"ha":503,"x_min":3,"x_max":536,"o":"m 133 1032 l 536 1032 l 528 964 l 417 949 l 304 82 l 418 64 l 414 0 l 3 0 l 10 64 l 111 82 l 224 949 l 126 964 l 133 1032 m 354 1114 q 286 1144 315 1114 q 257 1211 257 1174 q 293 1293 260 1260 q 376 1326 326 1326 q 450 1299 421 1326 q 479 1236 479 1272 q 446 1149 479 1183 q 354 1114 413 1114 z "},"Ị":{"ha":503,"x_min":3,"x_max":536,"o":"m 133 1032 l 536 1032 l 528 964 l 417 949 l 304 82 l 418 64 l 414 0 l 3 0 l 10 64 l 111 82 l 224 949 l 126 964 l 133 1032 m 89 -204 q 119 -129 89 -158 q 186 -100 149 -100 q 242 -122 222 -100 q 261 -178 261 -144 q 230 -256 261 -228 q 158 -285 199 -285 q 109 -262 129 -285 q 89 -204 89 -239 z "},"Ì":{"ha":503,"x_min":3,"x_max":536,"o":"m 133 1032 l 536 1032 l 528 964 l 417 949 l 304 82 l 418 64 l 414 0 l 3 0 l 10 64 l 111 82 l 224 949 l 126 964 l 133 1032 m 364 1075 q 233 1154 306 1100 q 135 1258 160 1208 l 242 1363 l 428 1129 l 364 1075 z "},"Ỉ":{"ha":503,"x_min":3,"x_max":538,"o":"m 133 1032 l 536 1032 l 528 964 l 417 949 l 304 82 l 418 64 l 414 0 l 3 0 l 10 64 l 111 82 l 224 949 l 126 964 l 133 1032 m 318 1135 q 303 1167 311 1144 q 297 1199 296 1189 q 310 1225 300 1215 q 342 1250 319 1235 q 370 1270 360 1261 q 386 1292 381 1279 l 388 1296 q 389 1310 389 1300 q 333 1353 389 1349 q 292 1349 297 1353 l 308 1471 q 331 1476 313 1474 q 365 1479 350 1479 q 491 1448 444 1479 q 538 1357 538 1417 q 533 1322 538 1342 q 504 1267 526 1289 q 444 1222 482 1244 l 418 1204 q 397 1180 404 1193 q 392 1143 390 1167 l 318 1135 z "},"Ī":{"ha":503,"x_min":3,"x_max":557,"o":"m 133 1032 l 536 1032 l 528 964 l 417 949 l 304 82 l 418 64 l 414 0 l 3 0 l 10 64 l 111 82 l 224 949 l 126 964 l 133 1032 m 183 1288 l 557 1288 l 543 1165 l 169 1165 l 183 1288 z "},"Į":{"ha":503,"x_min":-22,"x_max":536,"o":"m 271 0 q 174 -79 210 -43 q 138 -149 139 -115 q 183 -200 138 -200 q 234 -187 210 -200 q 289 -151 258 -175 l 310 -219 q 99 -311 218 -311 q 8 -281 39 -311 q -22 -203 -22 -251 q -14 -162 -22 -185 q 7 -122 -6 -139 q 71 -52 36 -79 q 151 0 106 -25 l 3 0 l 10 64 l 111 82 l 224 949 l 126 964 l 133 1032 l 536 1032 l 528 964 l 417 949 l 304 82 l 418 64 l 414 0 l 271 0 z "},"Ĩ":{"ha":503,"x_min":3,"x_max":631,"o":"m 133 1032 l 536 1032 l 528 964 l 417 949 l 304 82 l 418 64 l 414 0 l 3 0 l 10 64 l 111 82 l 224 949 l 126 964 l 133 1032 m 119 1221 q 182 1301 138 1268 q 285 1335 226 1335 q 346 1320 321 1335 q 399 1278 371 1306 q 440 1244 425 1254 q 476 1235 456 1235 q 535 1254 511 1235 q 581 1303 560 1274 l 631 1228 q 568 1144 613 1181 q 469 1108 524 1108 q 403 1123 429 1108 q 349 1165 378 1138 q 307 1199 324 1189 q 267 1210 290 1210 q 212 1194 236 1210 q 164 1150 188 1178 l 119 1221 z "},"J":{"ha":494,"x_min":-121,"x_max":531,"o":"m 407 850 q 337 277 361 464 q 300 51 313 90 q 153 -141 260 -68 q -90 -233 47 -214 l -121 -169 q 36 -79 -21 -140 q 108 60 93 -18 q 165 408 140 214 q 224 894 190 601 l 229 947 l 125 964 l 133 1032 l 531 1032 l 524 964 l 419 949 l 407 850 z "},"Ĵ":{"ha":494,"x_min":-121,"x_max":597,"o":"m 407 850 q 337 277 361 464 q 300 51 313 90 q 153 -141 260 -68 q -90 -233 47 -214 l -121 -169 q 36 -79 -21 -140 q 108 60 93 -18 q 165 408 140 214 q 224 894 190 601 l 229 947 l 125 964 l 133 1032 l 531 1032 l 524 964 l 419 949 l 407 850 m 103 1128 l 342 1363 l 453 1363 l 597 1128 l 529 1090 l 385 1242 l 163 1092 l 103 1128 z "},"K":{"ha":976,"x_min":-4,"x_max":1021,"o":"m 592 601 q 682 432 625 549 q 750 303 719 356 q 840 142 814 185 q 889 86 867 99 l 972 65 l 964 0 l 714 0 q 665 41 689 3 q 597 174 642 79 l 550 282 q 464 472 494 414 l 329 333 l 296 82 l 410 64 l 404 0 l -4 0 l 4 64 l 104 82 l 215 949 l 119 964 l 128 1032 l 531 1032 l 524 964 l 408 949 l 346 471 l 788 949 l 696 965 l 703 1032 l 1021 1032 l 1013 964 l 929 949 l 592 601 z "},"Ķ":{"ha":975,"x_min":-6,"x_max":1019,"o":"m 363 -324 q 398 -283 382 -310 q 414 -221 414 -256 q 401 -172 414 -194 q 368 -146 389 -150 l 374 -92 l 465 -26 q 534 -77 507 -36 q 561 -169 561 -118 q 540 -269 561 -224 q 485 -342 518 -314 q 421 -378 453 -371 l 363 -339 l 363 -324 m 590 601 q 681 432 624 549 q 749 303 718 356 q 839 142 813 185 q 888 86 865 99 l 971 65 l 963 0 l 713 0 q 664 41 688 3 q 596 174 640 79 l 549 282 q 463 472 493 414 l 328 333 l 294 82 l 408 64 l 403 0 l -6 0 l 3 64 l 103 82 l 214 949 l 118 964 l 126 1032 l 529 1032 l 522 964 l 407 949 l 344 471 l 786 949 l 694 965 l 701 1032 l 1019 1032 l 1011 964 l 928 949 l 590 601 z "},"L":{"ha":838,"x_min":1,"x_max":807,"o":"m 128 1032 l 538 1032 l 531 964 l 408 949 l 296 79 l 582 90 l 706 372 l 807 358 l 738 0 l 1 0 l 8 64 l 104 82 l 215 949 l 119 964 l 128 1032 z "},"Ĺ":{"ha":838,"x_min":1,"x_max":807,"o":"m 504 1364 l 611 1260 q 510 1156 585 1213 q 379 1076 436 1100 l 317 1131 l 504 1364 m 128 1032 l 538 1032 l 531 964 l 408 949 l 296 79 l 582 90 l 706 372 l 807 358 l 738 0 l 1 0 l 8 64 l 104 82 l 215 949 l 119 964 l 128 1032 z "},"Ľ":{"ha":838,"x_min":1,"x_max":807,"o":"m 128 1032 l 538 1032 l 531 964 l 408 949 l 296 79 l 582 90 l 706 372 l 807 358 l 738 0 l 1 0 l 8 64 l 104 82 l 215 949 l 119 964 l 128 1032 m 629 711 q 655 816 644 751 q 665 946 665 881 q 661 1013 665 982 q 649 1056 657 1043 l 661 1082 l 781 1111 q 804 990 804 1086 q 776 815 804 904 q 703 676 747 726 l 633 696 l 629 711 z "},"Ļ":{"ha":838,"x_min":1,"x_max":807,"o":"m 239 -324 q 274 -283 258 -310 q 290 -221 290 -256 q 278 -172 290 -194 q 244 -146 265 -150 l 250 -92 l 342 -26 q 410 -77 383 -36 q 438 -169 438 -118 q 416 -269 438 -224 q 362 -342 394 -314 q 297 -378 329 -371 l 239 -339 l 239 -324 m 128 1032 l 538 1032 l 531 964 l 408 949 l 296 79 l 582 90 l 706 372 l 807 358 l 738 0 l 1 0 l 8 64 l 104 82 l 215 949 l 119 964 l 128 1032 z "},"Ŀ":{"ha":838,"x_min":1,"x_max":839,"o":"m 128 1032 l 538 1032 l 531 964 l 408 949 l 296 79 l 582 90 l 706 372 l 807 358 l 738 0 l 1 0 l 8 64 l 104 82 l 215 949 l 119 964 l 128 1032 m 638 604 q 673 691 638 657 q 751 725 708 725 q 817 699 794 725 q 839 633 839 672 q 802 542 839 575 q 718 510 765 510 q 661 536 685 510 q 638 604 638 563 z "},"Ł":{"ha":838,"x_min":1,"x_max":807,"o":"m 128 1033 l 538 1033 l 531 965 l 408 950 l 356 549 l 596 649 l 618 568 l 344 457 l 296 81 l 582 92 l 706 374 l 807 360 l 738 1 l 1 1 l 8 65 l 104 83 l 142 375 l 40 335 l 17 408 l 153 465 l 215 950 l 119 965 l 128 1033 z "},"M":{"ha":1338,"x_min":-51,"x_max":1343,"o":"m 721 411 q 842 697 749 481 q 903 840 856 731 q 982 1032 950 950 l 1343 1032 l 1335 964 l 1214 949 l 1188 82 l 1307 64 l 1301 0 l 865 0 l 871 65 l 999 82 l 1033 676 l 1049 953 l 949 710 l 639 -1 l 543 -12 l 442 693 l 401 951 l 343 686 l 199 82 l 346 64 l 339 0 l -51 0 l -43 64 l 68 82 l 290 949 l 161 964 l 171 1032 l 571 1032 l 657 411 l 674 285 l 721 411 z "},"Ṁ":{"ha":1335,"x_min":-51,"x_max":1343,"o":"m 779 1114 q 711 1144 740 1114 q 682 1211 682 1174 q 718 1293 685 1260 q 801 1326 751 1326 q 875 1299 846 1326 q 904 1236 904 1272 q 871 1149 904 1183 q 779 1114 838 1114 m 721 411 q 842 697 749 481 q 903 840 856 731 q 982 1032 950 950 l 1343 1032 l 1335 964 l 1214 949 l 1188 82 l 1307 64 l 1301 0 l 865 0 l 871 65 l 999 82 l 1033 676 l 1049 953 l 949 710 l 639 -1 l 543 -12 l 442 693 l 401 951 l 343 686 l 199 82 l 346 64 l 339 0 l -51 0 l -43 64 l 68 82 l 290 949 l 161 964 l 171 1032 l 571 1032 l 657 411 l 674 285 l 721 411 z "},"N":{"ha":1044,"x_min":-1,"x_max":1094,"o":"m 126 1032 l 444 1032 l 729 326 l 782 171 l 878 949 l 764 964 l 771 1032 l 1094 1032 l 1089 964 l 999 949 l 858 0 l 664 0 l 371 719 l 318 885 l 229 82 l 354 64 l 347 0 l -1 0 l 4 64 l 101 82 l 225 949 l 115 964 l 126 1032 z "},"Ń":{"ha":1044,"x_min":-1,"x_max":1094,"o":"m 744 1363 l 851 1258 q 751 1155 825 1211 q 619 1075 676 1099 l 557 1129 l 744 1363 m 126 1032 l 444 1032 l 729 326 l 782 171 l 878 949 l 764 964 l 771 1032 l 1094 1032 l 1089 964 l 999 949 l 858 0 l 664 0 l 371 719 l 318 885 l 229 82 l 354 64 l 347 0 l -1 0 l 4 64 l 101 82 l 225 949 l 115 964 l 126 1032 z "},"Ň":{"ha":1044,"x_min":-1,"x_max":1094,"o":"m 415 1326 l 483 1363 l 629 1224 l 847 1363 l 907 1326 l 671 1090 l 560 1090 l 415 1326 m 126 1032 l 444 1032 l 729 326 l 782 171 l 878 949 l 764 964 l 771 1032 l 1094 1032 l 1089 964 l 999 949 l 858 0 l 664 0 l 371 719 l 318 885 l 229 82 l 354 64 l 347 0 l -1 0 l 4 64 l 101 82 l 225 949 l 115 964 l 126 1032 z "},"Ņ":{"ha":1044,"x_min":-1,"x_max":1094,"o":"m 343 -325 q 378 -284 363 -311 q 394 -222 394 -257 q 382 -174 394 -196 q 349 -147 369 -151 l 354 -93 l 446 -28 q 515 -78 488 -37 q 542 -171 542 -119 q 520 -270 542 -225 q 466 -344 499 -315 q 401 -379 433 -372 l 343 -340 l 343 -325 m 126 1032 l 444 1032 l 729 326 l 782 171 l 878 949 l 764 964 l 771 1032 l 1094 1032 l 1089 964 l 999 949 l 858 0 l 664 0 l 371 719 l 318 885 l 229 82 l 354 64 l 347 0 l -1 0 l 4 64 l 101 82 l 225 949 l 115 964 l 126 1032 z "},"Ṅ":{"ha":1044,"x_min":-1,"x_max":1094,"o":"m 126 1032 l 444 1032 l 729 326 l 782 171 l 878 949 l 764 964 l 771 1032 l 1094 1032 l 1089 964 l 999 949 l 858 0 l 664 0 l 371 719 l 318 885 l 229 82 l 354 64 l 347 0 l -1 0 l 4 64 l 101 82 l 225 949 l 115 964 l 126 1032 m 617 1114 q 549 1144 578 1114 q 519 1211 519 1174 q 556 1293 522 1260 q 639 1326 589 1326 q 713 1299 683 1326 q 742 1236 742 1272 q 708 1149 742 1183 q 617 1114 675 1114 z "},"Ŋ":{"ha":1044,"x_min":-4,"x_max":1090,"o":"m 857 0 q 799 -146 846 -81 q 677 -252 751 -211 q 513 -301 603 -293 l 485 -232 q 583 -189 535 -221 q 664 -108 632 -157 q 696 -1 696 -60 l 367 719 l 314 879 l 229 82 l 353 64 l 346 0 l -4 0 l 1 64 l 101 82 l 222 953 l 111 968 l 122 1036 l 440 1036 l 736 365 l 785 207 l 872 953 l 760 968 l 767 1036 l 1090 1036 l 1085 968 l 994 953 l 857 0 z "},"Ñ":{"ha":1044,"x_min":-1,"x_max":1094,"o":"m 383 1221 q 446 1301 401 1268 q 549 1335 490 1335 q 610 1320 585 1335 q 663 1278 635 1306 q 704 1244 689 1254 q 740 1235 719 1235 q 799 1254 775 1235 q 844 1303 824 1274 l 894 1228 q 832 1144 876 1181 q 733 1108 788 1108 q 667 1123 693 1108 q 613 1165 642 1138 q 571 1199 588 1189 q 531 1210 554 1210 q 476 1194 500 1210 q 428 1150 451 1178 l 383 1221 m 126 1032 l 444 1032 l 729 326 l 782 171 l 878 949 l 764 964 l 771 1032 l 1094 1032 l 1089 964 l 999 949 l 858 0 l 664 0 l 371 719 l 318 885 l 229 82 l 354 64 l 347 0 l -1 0 l 4 64 l 101 82 l 225 949 l 115 964 l 126 1032 z "},"O":{"ha":974,"x_min":54,"x_max":942,"o":"m 568 1046 q 780 986 696 1046 q 903 826 864 926 q 942 600 942 725 q 883 295 942 435 q 710 71 825 156 q 429 -14 594 -14 q 148 109 242 -14 q 54 432 54 232 q 115 739 54 599 q 292 963 175 879 q 568 1046 408 1046 m 550 967 q 398 895 464 967 q 296 704 332 824 q 260 444 260 585 q 304 171 260 278 q 447 64 349 64 q 601 132 536 64 q 701 319 667 200 q 735 586 735 438 q 690 867 735 767 q 550 967 644 967 z "},"Ó":{"ha":974,"x_min":56,"x_max":943,"o":"m 701 1363 l 808 1258 q 708 1155 782 1211 q 576 1075 633 1099 l 514 1129 l 701 1363 m 569 1046 q 781 986 697 1046 q 904 826 865 926 q 943 600 943 725 q 885 295 943 435 q 711 71 826 156 q 431 -14 596 -14 q 149 109 243 -14 q 56 432 56 232 q 116 739 56 599 q 293 963 176 879 q 569 1046 410 1046 m 551 967 q 399 895 465 967 q 297 704 333 824 q 261 444 261 585 q 306 171 261 278 q 449 64 350 64 q 603 132 538 64 q 702 319 668 200 q 736 586 736 438 q 691 867 736 767 q 551 967 646 967 z "},"Ŏ":{"ha":974,"x_min":56,"x_max":943,"o":"m 581 1107 q 419 1169 465 1107 q 374 1318 374 1231 q 376 1357 374 1346 l 479 1357 q 500 1265 481 1297 q 583 1232 519 1232 q 681 1269 651 1232 q 714 1357 710 1307 l 813 1357 q 783 1231 813 1288 q 701 1140 754 1174 q 581 1107 649 1107 m 569 1046 q 781 986 697 1046 q 904 826 865 926 q 943 600 943 725 q 885 295 943 435 q 711 71 826 156 q 431 -14 596 -14 q 149 109 243 -14 q 56 432 56 232 q 116 739 56 599 q 293 963 176 879 q 569 1046 410 1046 m 551 967 q 399 895 465 967 q 297 704 333 824 q 261 444 261 585 q 306 171 261 278 q 449 64 350 64 q 603 132 538 64 q 702 319 668 200 q 736 586 736 438 q 691 867 736 767 q 551 967 646 967 z "},"Ô":{"ha":974,"x_min":54,"x_max":942,"o":"m 568 1046 q 780 986 696 1046 q 903 826 864 926 q 942 600 942 725 q 883 295 942 435 q 710 71 825 156 q 429 -14 594 -14 q 148 109 242 -14 q 54 432 54 232 q 115 739 54 599 q 292 963 175 879 q 568 1046 408 1046 m 550 967 q 398 895 464 967 q 296 704 332 824 q 260 444 260 585 q 304 171 260 278 q 447 64 349 64 q 601 132 536 64 q 701 319 667 200 q 735 586 735 438 q 690 867 735 767 q 550 967 644 967 m 335 1128 l 574 1363 l 685 1363 l 829 1128 l 761 1090 l 617 1242 l 394 1092 l 335 1128 z "},"Ố":{"ha":974,"x_min":54,"x_max":1049,"o":"m 956 1650 l 1049 1560 q 951 1460 1031 1529 q 825 1371 872 1392 l 778 1411 l 956 1650 m 313 1225 l 557 1476 l 668 1476 l 808 1224 l 740 1188 l 596 1342 l 371 1189 l 313 1225 m 568 1046 q 780 986 696 1046 q 903 826 864 926 q 942 600 942 725 q 883 295 942 435 q 710 71 825 156 q 429 -14 594 -14 q 148 109 242 -14 q 54 432 54 232 q 115 739 54 599 q 292 963 175 879 q 568 1046 408 1046 m 550 967 q 398 895 464 967 q 296 704 332 824 q 260 444 260 585 q 304 171 260 278 q 447 64 349 64 q 601 132 536 64 q 701 319 667 200 q 735 586 735 438 q 690 867 735 767 q 550 967 644 967 z "},"Ộ":{"ha":974,"x_min":54,"x_max":942,"o":"m 568 1046 q 780 986 696 1046 q 903 826 864 926 q 942 600 942 725 q 883 295 942 435 q 710 71 825 156 q 429 -14 594 -14 q 148 109 242 -14 q 54 432 54 232 q 115 739 54 599 q 292 963 175 879 q 568 1046 408 1046 m 550 967 q 398 895 464 967 q 296 704 332 824 q 260 444 260 585 q 304 171 260 278 q 447 64 349 64 q 601 132 536 64 q 701 319 667 200 q 735 586 735 438 q 690 867 735 767 q 550 967 644 967 m 324 -204 q 353 -129 324 -158 q 421 -100 383 -100 q 476 -122 457 -100 q 496 -178 496 -144 q 465 -256 496 -228 q 393 -285 433 -285 q 344 -262 364 -285 q 324 -204 324 -239 m 335 1128 l 574 1363 l 685 1363 l 829 1128 l 761 1090 l 617 1242 l 394 1092 l 335 1128 z "},"Ồ":{"ha":974,"x_min":54,"x_max":942,"o":"m 838 1442 q 723 1525 797 1461 q 625 1629 649 1589 l 722 1717 l 886 1476 l 838 1442 m 324 1231 l 568 1482 l 679 1482 l 819 1229 l 751 1193 l 607 1347 l 382 1194 l 324 1231 m 568 1046 q 780 986 696 1046 q 903 826 864 926 q 942 600 942 725 q 883 295 942 435 q 710 71 825 156 q 429 -14 594 -14 q 148 109 242 -14 q 54 432 54 232 q 115 739 54 599 q 292 963 175 879 q 568 1046 408 1046 m 550 967 q 398 895 464 967 q 296 704 332 824 q 260 444 260 585 q 304 171 260 278 q 447 64 349 64 q 601 132 536 64 q 701 319 667 200 q 735 586 735 438 q 690 867 735 767 q 550 967 644 967 z "},"Ổ":{"ha":974,"x_min":54,"x_max":1006,"o":"m 819 1363 q 807 1390 814 1371 q 801 1418 800 1410 q 813 1441 804 1432 q 839 1461 822 1450 q 863 1478 854 1471 q 876 1497 872 1486 l 878 1500 q 879 1513 879 1504 q 832 1549 879 1547 q 796 1546 801 1549 l 811 1650 q 831 1654 814 1651 q 860 1657 847 1657 q 967 1630 928 1657 q 1006 1551 1006 1603 q 1003 1522 1006 1533 q 978 1476 997 1494 q 937 1444 958 1458 q 904 1422 915 1429 q 886 1401 892 1413 q 882 1369 881 1389 l 819 1363 m 319 1231 l 564 1482 l 675 1482 l 815 1229 l 747 1193 l 603 1347 l 378 1194 l 319 1231 m 568 1046 q 780 986 696 1046 q 903 826 864 926 q 942 600 942 725 q 883 295 942 435 q 710 71 825 156 q 429 -14 594 -14 q 148 109 242 -14 q 54 432 54 232 q 115 739 54 599 q 292 963 175 879 q 568 1046 408 1046 m 550 967 q 398 895 464 967 q 296 704 332 824 q 260 444 260 585 q 304 171 260 278 q 447 64 349 64 q 601 132 536 64 q 701 319 667 200 q 735 586 735 438 q 690 867 735 767 q 550 967 644 967 z "},"Ỗ":{"ha":974,"x_min":54,"x_max":942,"o":"m 403 1618 q 467 1690 422 1658 q 557 1722 513 1722 q 613 1708 590 1722 q 658 1668 635 1693 q 692 1639 678 1649 q 724 1629 706 1629 q 775 1646 756 1629 q 819 1696 794 1663 l 865 1628 q 806 1551 850 1585 q 714 1517 761 1517 q 653 1530 676 1517 q 606 1568 631 1543 q 572 1597 588 1588 q 535 1608 557 1607 q 440 1553 490 1608 l 403 1618 m 315 1228 l 560 1479 l 671 1479 l 811 1226 l 743 1190 l 599 1344 l 374 1192 l 315 1228 m 568 1046 q 780 986 696 1046 q 903 826 864 926 q 942 600 942 725 q 883 295 942 435 q 710 71 825 156 q 429 -14 594 -14 q 148 109 242 -14 q 54 432 54 232 q 115 739 54 599 q 292 963 175 879 q 568 1046 408 1046 m 550 967 q 398 895 464 967 q 296 704 332 824 q 260 444 260 585 q 304 171 260 278 q 447 64 349 64 q 601 132 536 64 q 701 319 667 200 q 735 586 735 438 q 690 867 735 767 q 550 967 644 967 z "},"Ö":{"ha":974,"x_min":56,"x_max":943,"o":"m 428 1144 q 370 1169 393 1144 q 347 1231 347 1194 q 376 1310 347 1279 q 449 1340 404 1340 q 511 1317 489 1340 q 533 1258 533 1294 q 506 1176 533 1207 q 428 1144 479 1144 m 728 1144 q 670 1169 693 1144 q 647 1231 647 1194 q 676 1310 647 1281 q 749 1340 704 1340 q 810 1317 788 1340 q 832 1258 832 1294 q 805 1176 832 1207 q 728 1144 778 1144 m 569 1046 q 781 986 697 1046 q 904 826 865 926 q 943 600 943 725 q 885 295 943 435 q 711 71 826 156 q 431 -14 596 -14 q 149 109 243 -14 q 56 432 56 232 q 116 739 56 599 q 293 963 176 879 q 569 1046 410 1046 m 551 967 q 399 895 465 967 q 297 704 333 824 q 261 444 261 585 q 306 171 261 278 q 449 64 350 64 q 603 132 538 64 q 702 319 668 200 q 736 586 736 438 q 691 867 736 767 q 551 967 646 967 z "},"Ọ":{"ha":974,"x_min":54,"x_max":942,"o":"m 568 1046 q 780 986 696 1046 q 903 826 864 926 q 942 600 942 725 q 883 295 942 435 q 710 71 825 156 q 429 -14 594 -14 q 148 109 242 -14 q 54 432 54 232 q 115 739 54 599 q 292 963 175 879 q 568 1046 408 1046 m 550 967 q 398 895 464 967 q 296 704 332 824 q 260 444 260 585 q 304 171 260 278 q 447 64 349 64 q 601 132 536 64 q 701 319 667 200 q 735 586 735 438 q 690 867 735 767 q 550 967 644 967 m 324 -204 q 353 -129 324 -158 q 421 -100 383 -100 q 476 -122 457 -100 q 496 -178 496 -144 q 465 -256 496 -228 q 393 -285 433 -285 q 344 -262 364 -285 q 324 -204 324 -239 z "},"Ò":{"ha":974,"x_min":56,"x_max":943,"o":"m 585 1075 q 453 1154 526 1100 q 356 1258 381 1208 l 463 1363 l 649 1129 l 585 1075 m 569 1046 q 781 986 697 1046 q 904 826 865 926 q 943 600 943 725 q 885 295 943 435 q 711 71 826 156 q 431 -14 596 -14 q 149 109 243 -14 q 56 432 56 232 q 116 739 56 599 q 293 963 176 879 q 569 1046 410 1046 m 551 967 q 399 895 465 967 q 297 704 333 824 q 261 444 261 585 q 306 171 261 278 q 449 64 350 64 q 603 132 538 64 q 702 319 668 200 q 736 586 736 438 q 691 867 736 767 q 551 967 646 967 z "},"Ỏ":{"ha":974,"x_min":54,"x_max":942,"o":"m 568 1046 q 780 986 696 1046 q 903 826 864 926 q 942 600 942 725 q 883 295 942 435 q 710 71 825 156 q 429 -14 594 -14 q 148 109 242 -14 q 54 432 54 232 q 115 739 54 599 q 292 963 175 879 q 568 1046 408 1046 m 550 967 q 398 895 464 967 q 296 704 332 824 q 260 444 260 585 q 304 171 260 278 q 447 64 349 64 q 601 132 536 64 q 701 319 667 200 q 735 586 735 438 q 690 867 735 767 q 550 967 644 967 m 536 1135 q 522 1167 529 1144 q 515 1199 514 1189 q 528 1225 518 1215 q 560 1250 538 1235 q 588 1270 578 1261 q 604 1292 599 1279 l 606 1296 q 607 1310 607 1300 q 551 1353 607 1349 q 510 1349 515 1353 l 526 1471 q 549 1476 531 1474 q 583 1479 568 1479 q 709 1448 663 1479 q 756 1357 756 1417 q 751 1322 756 1342 q 722 1267 744 1289 q 663 1222 700 1244 l 636 1204 q 615 1180 622 1193 q 610 1143 608 1167 l 536 1135 z "},"Ơ":{"ha":974,"x_min":54,"x_max":992,"o":"m 988 1136 q 831 943 967 997 q 915 794 888 882 q 942 600 942 706 q 883 295 942 435 q 710 71 825 156 q 429 -14 594 -14 q 148 109 242 -14 q 54 432 54 232 q 115 739 54 599 q 292 963 175 879 q 568 1046 408 1046 q 701 1025 643 1046 q 778 1043 750 1026 q 819 1082 806 1060 q 846 1143 832 1104 q 850 1155 847 1147 q 851 1167 853 1163 l 992 1167 l 988 1136 m 447 64 q 601 132 536 64 q 701 319 667 200 q 735 586 735 438 q 690 867 735 767 q 550 967 644 967 q 398 895 464 967 q 296 704 332 824 q 260 444 260 585 q 304 171 260 278 q 447 64 349 64 z "},"Ớ":{"ha":974,"x_min":54,"x_max":992,"o":"m 988 1136 q 831 943 967 997 q 915 794 888 882 q 942 600 942 706 q 883 295 942 435 q 710 71 825 156 q 429 -14 594 -14 q 148 109 242 -14 q 54 432 54 232 q 115 739 54 599 q 292 963 175 879 q 568 1046 408 1046 q 701 1025 643 1046 q 778 1043 750 1026 q 819 1082 806 1060 q 846 1143 832 1104 q 850 1155 847 1147 q 851 1167 853 1163 l 992 1167 l 988 1136 m 447 64 q 601 132 536 64 q 701 319 667 200 q 735 586 735 438 q 690 867 735 767 q 550 967 644 967 q 398 895 464 967 q 296 704 332 824 q 260 444 260 585 q 304 171 260 278 q 447 64 349 64 m 699 1363 l 806 1258 q 705 1155 779 1211 q 574 1075 631 1099 l 511 1129 l 699 1363 z "},"Ợ":{"ha":974,"x_min":54,"x_max":992,"o":"m 988 1136 q 831 943 967 997 q 915 794 888 882 q 942 600 942 706 q 883 295 942 435 q 710 71 825 156 q 429 -14 594 -14 q 148 109 242 -14 q 54 432 54 232 q 115 739 54 599 q 292 963 175 879 q 568 1046 408 1046 q 701 1025 643 1046 q 778 1043 750 1026 q 819 1082 806 1060 q 846 1143 832 1104 q 850 1155 847 1147 q 851 1167 853 1163 l 992 1167 l 988 1136 m 447 64 q 601 132 536 64 q 701 319 667 200 q 735 586 735 438 q 690 867 735 767 q 550 967 644 967 q 398 895 464 967 q 296 704 332 824 q 260 444 260 585 q 304 171 260 278 q 447 64 349 64 m 324 -204 q 353 -129 324 -158 q 421 -100 383 -100 q 476 -122 457 -100 q 496 -178 496 -144 q 465 -256 496 -228 q 393 -285 433 -285 q 344 -262 364 -285 q 324 -204 324 -239 z "},"Ờ":{"ha":974,"x_min":54,"x_max":992,"o":"m 988 1136 q 831 943 967 997 q 915 794 888 882 q 942 600 942 706 q 883 295 942 435 q 710 71 825 156 q 429 -14 594 -14 q 148 109 242 -14 q 54 432 54 232 q 115 739 54 599 q 292 963 175 879 q 568 1046 408 1046 q 701 1025 643 1046 q 778 1043 750 1026 q 819 1082 806 1060 q 846 1143 832 1104 q 850 1155 847 1147 q 851 1167 853 1163 l 992 1167 l 988 1136 m 447 64 q 601 132 536 64 q 701 319 667 200 q 735 586 735 438 q 690 867 735 767 q 550 967 644 967 q 398 895 464 967 q 296 704 332 824 q 260 444 260 585 q 304 171 260 278 q 447 64 349 64 m 582 1075 q 451 1154 524 1100 q 353 1258 378 1208 l 460 1363 l 646 1129 l 582 1075 z "},"Ở":{"ha":974,"x_min":54,"x_max":992,"o":"m 988 1136 q 831 943 967 997 q 915 794 888 882 q 942 600 942 706 q 883 295 942 435 q 710 71 825 156 q 429 -14 594 -14 q 148 109 242 -14 q 54 432 54 232 q 115 739 54 599 q 292 963 175 879 q 568 1046 408 1046 q 701 1025 643 1046 q 778 1043 750 1026 q 819 1082 806 1060 q 846 1143 832 1104 q 850 1155 847 1147 q 851 1167 853 1163 l 992 1167 l 988 1136 m 447 64 q 601 132 536 64 q 701 319 667 200 q 735 586 735 438 q 690 867 735 767 q 550 967 644 967 q 398 895 464 967 q 296 704 332 824 q 260 444 260 585 q 304 171 260 278 q 447 64 349 64 m 536 1135 q 522 1167 529 1144 q 515 1199 514 1189 q 528 1225 518 1215 q 560 1250 538 1235 q 588 1270 578 1261 q 604 1292 599 1279 l 606 1296 q 607 1310 607 1300 q 551 1353 607 1349 q 510 1349 515 1353 l 526 1471 q 549 1476 531 1474 q 583 1479 568 1479 q 709 1448 663 1479 q 756 1357 756 1417 q 751 1322 756 1342 q 722 1267 744 1289 q 663 1222 700 1244 l 636 1204 q 615 1180 622 1193 q 610 1143 608 1167 l 536 1135 z "},"Ỡ":{"ha":974,"x_min":54,"x_max":992,"o":"m 988 1136 q 831 943 967 997 q 915 794 888 882 q 942 600 942 706 q 883 295 942 435 q 710 71 825 156 q 429 -14 594 -14 q 148 109 242 -14 q 54 432 54 232 q 115 739 54 599 q 292 963 175 879 q 568 1046 408 1046 q 701 1025 643 1046 q 778 1043 750 1026 q 819 1082 806 1060 q 846 1143 832 1104 q 850 1155 847 1147 q 851 1167 853 1163 l 992 1167 l 988 1136 m 447 64 q 601 132 536 64 q 701 319 667 200 q 735 586 735 438 q 690 867 735 767 q 550 967 644 967 q 398 895 464 967 q 296 704 332 824 q 260 444 260 585 q 304 171 260 278 q 447 64 349 64 m 338 1221 q 400 1301 356 1268 q 503 1335 444 1335 q 564 1320 539 1335 q 617 1278 589 1306 q 658 1244 643 1254 q 694 1235 674 1235 q 753 1254 729 1235 q 799 1303 778 1274 l 849 1228 q 786 1144 831 1181 q 688 1108 742 1108 q 622 1123 647 1108 q 567 1165 596 1138 q 525 1199 542 1189 q 485 1210 508 1210 q 430 1194 454 1210 q 382 1150 406 1178 l 338 1221 z "},"Ő":{"ha":974,"x_min":54,"x_max":949,"o":"m 568 1046 q 780 986 696 1046 q 903 826 864 926 q 942 600 942 725 q 883 295 942 435 q 710 71 825 156 q 429 -14 594 -14 q 148 109 242 -14 q 54 432 54 232 q 115 739 54 599 q 292 963 175 879 q 568 1046 408 1046 m 550 967 q 398 895 464 967 q 296 704 332 824 q 260 444 260 585 q 304 171 260 278 q 447 64 349 64 q 601 132 536 64 q 701 319 667 200 q 735 586 735 438 q 690 867 735 767 q 550 967 644 967 m 536 1361 l 632 1281 q 536 1163 607 1225 q 406 1074 465 1100 l 344 1119 l 536 1361 m 854 1361 l 949 1281 q 847 1159 913 1219 q 724 1075 782 1099 l 663 1119 l 854 1361 z "},"Ō":{"ha":974,"x_min":56,"x_max":943,"o":"m 403 1288 l 776 1288 l 763 1165 l 389 1165 l 403 1288 m 569 1046 q 781 986 697 1046 q 904 826 865 926 q 943 600 943 725 q 885 295 943 435 q 711 71 826 156 q 431 -14 596 -14 q 149 109 243 -14 q 56 432 56 232 q 116 739 56 599 q 293 963 176 879 q 569 1046 410 1046 m 551 967 q 399 895 465 967 q 297 704 333 824 q 261 444 261 585 q 306 171 261 278 q 449 64 350 64 q 603 132 538 64 q 702 319 668 200 q 736 586 736 438 q 691 867 736 767 q 551 967 646 967 z "},"Ø":{"ha":975,"x_min":56,"x_max":944,"o":"m 808 967 q 910 815 876 908 q 944 606 944 721 q 886 298 944 439 q 713 72 828 157 q 432 -12 597 -12 q 229 40 315 -12 l 140 -97 l 83 -62 l 178 81 q 86 230 117 139 q 56 433 56 321 q 116 740 56 600 q 293 964 176 881 q 569 1047 410 1047 q 756 1004 678 1047 l 846 1142 l 901 1108 l 808 967 m 678 882 q 551 968 635 968 q 399 896 465 968 q 297 703 332 824 q 263 440 261 582 q 292 229 263 319 l 678 882 m 315 161 q 450 65 361 65 q 603 133 538 65 q 702 320 668 201 q 736 588 736 439 q 703 818 736 736 l 315 161 z "},"Ǿ":{"ha":975,"x_min":56,"x_max":944,"o":"m 808 967 q 910 815 876 908 q 944 606 944 721 q 886 298 944 439 q 713 72 828 157 q 432 -12 597 -12 q 229 40 315 -12 l 140 -97 l 83 -62 l 178 81 q 86 230 117 139 q 56 433 56 321 q 116 740 56 600 q 293 964 176 881 q 569 1047 410 1047 q 756 1004 678 1047 l 846 1142 l 901 1108 l 808 967 m 678 882 q 551 968 635 968 q 399 896 465 968 q 297 703 332 824 q 263 440 261 582 q 292 229 263 319 l 678 882 m 315 161 q 450 65 361 65 q 603 133 538 65 q 702 320 668 201 q 736 588 736 439 q 703 818 736 736 l 315 161 m 710 1363 l 817 1258 q 716 1155 790 1211 q 585 1075 642 1099 l 522 1129 l 710 1363 z "},"Õ":{"ha":974,"x_min":56,"x_max":943,"o":"m 340 1221 q 403 1301 358 1268 q 506 1335 447 1335 q 567 1320 542 1335 q 619 1278 592 1306 q 661 1244 646 1254 q 697 1235 676 1235 q 756 1254 732 1235 q 801 1303 781 1274 l 851 1228 q 789 1144 833 1181 q 690 1108 744 1108 q 624 1123 650 1108 q 569 1165 599 1138 q 528 1199 544 1189 q 488 1210 511 1210 q 433 1194 457 1210 q 385 1150 408 1178 l 340 1221 m 569 1046 q 781 986 697 1046 q 904 826 865 926 q 943 600 943 725 q 885 295 943 435 q 711 71 826 156 q 431 -14 596 -14 q 149 109 243 -14 q 56 432 56 232 q 116 739 56 599 q 293 963 176 879 q 569 1046 410 1046 m 551 967 q 399 895 465 967 q 297 704 333 824 q 261 444 261 585 q 306 171 261 278 q 449 64 350 64 q 603 132 538 64 q 702 319 668 200 q 736 586 736 438 q 691 867 736 767 q 551 967 646 967 z "},"Œ":{"ha":1519,"x_min":51,"x_max":1494,"o":"m 778 146 q 631 28 717 69 q 435 -14 544 -14 q 149 108 246 -14 q 51 435 51 229 q 113 741 51 601 q 292 963 174 881 q 571 1046 410 1046 q 755 997 682 1046 q 867 863 828 949 l 888 1032 l 1494 1032 l 1478 799 l 1358 799 l 1336 944 l 1072 958 l 1022 581 l 1329 606 l 1310 468 l 1011 488 l 958 82 l 1303 103 l 1376 285 l 1490 272 l 1443 0 l 760 0 l 778 146 m 553 967 q 397 896 465 967 q 290 708 328 825 q 253 454 253 590 q 299 172 253 281 q 453 64 344 64 q 611 133 544 64 q 713 321 678 201 q 747 590 747 440 q 701 872 747 776 q 553 967 654 967 z "},"P":{"ha":882,"x_min":0,"x_max":893,"o":"m 321 1032 q 436 1038 364 1032 q 538 1043 506 1043 q 809 972 725 1043 q 893 757 893 901 q 835 540 893 631 q 674 403 778 450 q 432 356 569 356 q 332 360 364 356 l 300 82 l 465 64 l 461 0 l 0 0 l 7 64 l 103 82 l 217 949 l 119 964 l 128 1032 l 321 1032 m 342 444 q 438 436 382 436 q 628 526 561 438 q 694 769 694 615 q 507 964 694 964 q 411 956 460 964 l 342 444 z "},"Ṗ":{"ha":883,"x_min":0,"x_max":893,"o":"m 576 1114 q 508 1144 538 1114 q 479 1211 479 1174 q 515 1293 482 1260 q 599 1326 549 1326 q 672 1299 643 1326 q 701 1236 701 1272 q 668 1149 701 1183 q 576 1114 635 1114 m 321 1032 q 436 1038 364 1032 q 538 1043 506 1043 q 809 972 725 1043 q 893 757 893 901 q 835 540 893 631 q 674 403 778 450 q 432 356 569 356 q 332 360 364 356 l 300 82 l 465 64 l 461 0 l 0 0 l 7 64 l 103 82 l 217 949 l 119 964 l 128 1032 l 321 1032 m 342 444 q 438 436 382 436 q 628 526 561 438 q 694 769 694 615 q 507 964 694 964 q 411 956 460 964 l 342 444 z "},"Þ":{"ha":869,"x_min":3,"x_max":872,"o":"m 392 806 q 543 814 463 814 q 799 749 725 814 q 872 569 872 683 q 828 404 872 479 q 683 283 783 329 q 421 236 582 236 q 318 240 372 236 l 299 82 l 415 64 l 410 0 l 3 0 l 8 64 l 106 82 l 218 950 l 122 965 l 131 1033 l 533 1033 l 526 965 l 411 950 l 392 806 m 329 322 q 429 319 390 319 q 604 378 538 319 q 671 547 671 438 q 626 687 671 640 q 485 733 581 733 q 381 724 433 733 l 329 322 z "},"Q":{"ha":975,"x_min":53,"x_max":942,"o":"m 904 -210 q 807 -258 869 -236 q 665 -279 744 -279 q 478 -233 543 -279 q 414 -99 414 -187 q 426 -14 414 -60 q 147 110 242 -10 q 53 432 53 229 q 113 738 53 599 q 290 961 174 878 q 568 1044 407 1044 q 780 985 696 1044 q 903 828 864 926 q 942 606 942 729 q 894 324 942 454 q 751 106 846 194 q 522 -6 657 18 q 573 -106 522 -82 q 721 -131 624 -131 q 813 -123 758 -131 q 903 -101 867 -115 l 904 -210 m 550 967 q 398 895 464 967 q 296 703 332 824 q 260 443 260 583 q 304 170 260 278 q 447 63 349 63 q 601 132 536 63 q 701 322 667 201 q 735 592 735 442 q 690 868 735 769 q 550 967 644 967 z "},"R":{"ha":956,"x_min":4,"x_max":932,"o":"m 322 1032 q 421 1038 360 1032 q 546 1043 493 1043 q 815 981 735 1043 q 896 793 896 919 q 832 594 897 679 q 653 474 767 510 q 706 390 679 447 q 772 243 733 333 l 790 204 q 834 118 818 144 q 872 79 850 92 q 932 67 893 67 l 926 0 l 697 0 q 664 34 682 0 q 618 142 646 68 q 531 361 564 285 q 475 451 499 438 l 392 451 l 338 451 l 293 82 l 419 64 l 415 0 l 4 0 l 10 64 l 104 82 l 215 949 l 119 964 l 128 1032 l 322 1032 m 349 535 q 414 533 378 533 q 475 533 450 532 q 636 603 576 536 q 696 785 696 669 q 649 920 696 876 q 503 964 603 964 q 458 962 485 964 q 406 957 431 960 l 349 535 z "},"Ŕ":{"ha":956,"x_min":4,"x_max":932,"o":"m 322 1032 q 421 1038 360 1032 q 546 1043 493 1043 q 815 981 735 1043 q 896 793 896 919 q 832 594 897 679 q 653 474 767 510 q 706 390 679 447 q 772 243 733 333 l 790 204 q 834 118 818 144 q 872 79 850 92 q 932 67 893 67 l 926 0 l 697 0 q 664 34 682 0 q 618 142 646 68 q 531 361 564 285 q 475 451 499 438 l 392 451 l 338 451 l 293 82 l 419 64 l 415 0 l 4 0 l 10 64 l 104 82 l 215 949 l 119 964 l 128 1032 l 322 1032 m 349 535 q 414 533 378 533 q 475 533 450 532 q 636 603 576 536 q 696 785 696 669 q 649 920 696 876 q 503 964 603 964 q 458 962 485 964 q 406 957 431 960 l 349 535 m 708 1363 l 815 1258 q 715 1155 789 1211 q 583 1075 640 1099 l 521 1129 l 708 1363 z "},"Ř":{"ha":954,"x_min":3,"x_max":931,"o":"m 368 1326 l 436 1363 l 582 1224 l 800 1363 l 860 1326 l 624 1090 l 513 1090 l 368 1326 m 321 1032 q 419 1038 358 1032 q 544 1043 492 1043 q 814 981 733 1043 q 894 793 894 919 q 831 594 896 679 q 651 474 765 510 q 705 390 678 447 q 771 243 732 333 l 789 204 q 833 118 817 144 q 870 79 849 92 q 931 67 892 67 l 925 0 l 696 0 q 663 34 681 0 q 617 142 644 68 q 530 361 563 285 q 474 451 497 438 l 390 451 l 336 451 l 292 82 l 418 64 l 414 0 l 3 0 l 8 64 l 103 82 l 214 949 l 118 964 l 126 1032 l 321 1032 m 347 535 q 413 533 376 533 q 474 533 449 532 q 635 603 575 536 q 694 785 694 669 q 648 920 694 876 q 501 964 601 964 q 456 962 483 964 q 404 957 429 960 l 347 535 z "},"Ŗ":{"ha":954,"x_min":3,"x_max":931,"o":"m 353 -325 q 388 -284 372 -311 q 404 -222 404 -257 q 392 -174 404 -196 q 358 -147 379 -151 l 364 -93 l 456 -28 q 524 -78 497 -37 q 551 -171 551 -119 q 530 -270 551 -225 q 476 -344 508 -315 q 411 -379 443 -372 l 353 -340 l 353 -325 m 321 1032 q 419 1038 358 1032 q 544 1043 492 1043 q 814 981 733 1043 q 894 793 894 919 q 831 594 896 679 q 651 474 765 510 q 705 390 678 447 q 771 243 732 333 l 789 204 q 833 118 817 144 q 870 79 849 92 q 931 67 892 67 l 925 0 l 696 0 q 663 34 681 0 q 617 142 644 68 q 530 361 563 285 q 474 451 497 438 l 390 451 l 336 451 l 292 82 l 418 64 l 414 0 l 3 0 l 8 64 l 103 82 l 214 949 l 118 964 l 126 1032 l 321 1032 m 347 535 q 413 533 376 533 q 474 533 449 532 q 635 603 575 536 q 694 785 694 669 q 648 920 694 876 q 501 964 601 964 q 456 962 483 964 q 404 957 429 960 l 347 535 z "},"S":{"ha":768,"x_min":18,"x_max":746,"o":"m 590 932 q 469 967 547 967 q 344 930 393 967 q 296 831 296 893 q 342 706 296 757 q 490 590 388 654 q 648 460 590 528 q 706 296 706 392 q 663 138 707 208 q 531 26 618 67 q 325 -15 444 -15 q 136 6 226 -15 q 18 49 46 28 l 54 256 l 168 256 l 176 107 q 240 76 201 88 q 322 64 278 64 q 470 106 417 64 q 524 222 524 149 q 482 338 524 289 q 347 444 440 386 q 181 583 242 511 q 121 756 121 656 q 168 910 121 844 q 298 1010 215 975 q 483 1044 381 1044 q 644 1029 579 1044 q 746 992 710 1014 l 711 797 l 607 797 l 590 932 z "},"Ś":{"ha":768,"x_min":18,"x_max":746,"o":"m 590 932 q 469 967 547 967 q 344 930 393 967 q 296 831 296 893 q 342 706 296 757 q 490 590 388 654 q 648 460 590 528 q 706 296 706 392 q 663 138 707 208 q 531 26 618 67 q 325 -15 444 -15 q 136 6 226 -15 q 18 49 46 28 l 54 256 l 168 256 l 176 107 q 240 76 201 88 q 322 64 278 64 q 470 106 417 64 q 524 222 524 149 q 482 338 524 289 q 347 444 440 386 q 181 583 242 511 q 121 756 121 656 q 168 910 121 844 q 298 1010 215 975 q 483 1044 381 1044 q 644 1029 579 1044 q 746 992 710 1014 l 711 797 l 607 797 l 590 932 m 606 1363 l 713 1258 q 612 1155 686 1211 q 481 1075 538 1099 l 418 1129 l 606 1363 z "},"Š":{"ha":768,"x_min":18,"x_max":769,"o":"m 590 932 q 469 967 547 967 q 344 930 393 967 q 296 831 296 893 q 342 706 296 757 q 490 590 388 654 q 648 460 590 528 q 706 296 706 392 q 663 138 707 208 q 531 26 618 67 q 325 -15 444 -15 q 136 6 226 -15 q 18 49 46 28 l 54 256 l 168 256 l 176 107 q 240 76 201 88 q 322 64 278 64 q 470 106 417 64 q 524 222 524 149 q 482 338 524 289 q 347 444 440 386 q 181 583 242 511 q 121 756 121 656 q 168 910 121 844 q 298 1010 215 975 q 483 1044 381 1044 q 644 1029 579 1044 q 746 992 710 1014 l 711 797 l 607 797 l 590 932 m 278 1326 l 346 1363 l 492 1224 l 710 1363 l 769 1326 l 533 1090 l 422 1090 l 278 1326 z "},"Ş":{"ha":768,"x_min":18,"x_max":746,"o":"m 469 967 q 344 930 393 967 q 296 831 296 893 q 342 706 296 757 q 490 590 388 654 q 648 460 590 528 q 706 296 706 392 q 667 146 707 214 q 551 35 628 78 q 365 -14 474 -7 q 385 -137 385 -75 q 335 -276 385 -228 q 189 -324 286 -324 q 120 -318 160 -324 q 69 -306 81 -312 l 89 -208 q 147 -219 111 -219 q 272 -74 272 -219 q 268 -14 272 -37 q 113 11 185 -8 q 18 49 40 31 l 54 256 l 168 256 l 176 107 q 240 76 201 88 q 322 64 278 64 q 470 106 417 64 q 524 222 524 149 q 482 338 524 289 q 347 444 440 386 q 181 583 242 511 q 121 756 121 656 q 168 910 121 844 q 298 1010 215 975 q 483 1044 381 1044 q 644 1029 579 1044 q 746 992 710 1014 l 711 797 l 607 797 l 590 932 q 469 967 547 967 z "},"Ŝ":{"ha":768,"x_min":18,"x_max":746,"o":"m 590 932 q 469 967 547 967 q 344 930 393 967 q 296 831 296 893 q 342 706 296 757 q 490 590 388 654 q 648 460 590 528 q 706 296 706 392 q 663 138 707 208 q 531 26 618 67 q 325 -15 444 -15 q 136 6 226 -15 q 18 49 46 28 l 54 256 l 168 256 l 176 107 q 240 76 201 88 q 322 64 278 64 q 470 106 417 64 q 524 222 524 149 q 482 338 524 289 q 347 444 440 386 q 181 583 242 511 q 121 756 121 656 q 168 910 121 844 q 298 1010 215 975 q 483 1044 381 1044 q 644 1029 579 1044 q 746 992 710 1014 l 711 797 l 607 797 l 590 932 m 242 1128 l 481 1363 l 592 1363 l 736 1128 l 668 1090 l 524 1242 l 301 1092 l 242 1128 z "},"Ș":{"ha":768,"x_min":18,"x_max":746,"o":"m 188 -325 q 223 -284 207 -311 q 239 -222 239 -257 q 226 -174 239 -196 q 193 -147 214 -151 l 199 -93 l 290 -28 q 359 -78 332 -37 q 386 -171 386 -119 q 365 -270 386 -225 q 310 -344 343 -315 q 246 -379 278 -372 l 188 -340 l 188 -325 m 590 932 q 469 967 547 967 q 344 930 393 967 q 296 831 296 893 q 342 706 296 757 q 490 590 388 654 q 648 460 590 528 q 706 296 706 392 q 663 138 707 208 q 531 26 618 67 q 325 -15 444 -15 q 136 6 226 -15 q 18 49 46 28 l 54 256 l 168 256 l 176 107 q 240 76 201 88 q 322 64 278 64 q 470 106 417 64 q 524 222 524 149 q 482 338 524 289 q 347 444 440 386 q 181 583 242 511 q 121 756 121 656 q 168 910 121 844 q 298 1010 215 975 q 483 1044 381 1044 q 644 1029 579 1044 q 746 992 710 1014 l 711 797 l 607 797 l 590 932 z "},"Ṡ":{"ha":768,"x_min":18,"x_max":746,"o":"m 479 1114 q 411 1144 440 1114 q 382 1211 382 1174 q 418 1293 385 1260 q 501 1326 451 1326 q 575 1299 546 1326 q 604 1236 604 1272 q 571 1149 604 1183 q 479 1114 538 1114 m 590 932 q 469 967 547 967 q 344 930 393 967 q 296 831 296 893 q 342 706 296 757 q 490 590 388 654 q 648 460 590 528 q 706 296 706 392 q 663 138 707 208 q 531 26 618 67 q 325 -15 444 -15 q 136 6 226 -15 q 18 49 46 28 l 54 256 l 168 256 l 176 107 q 240 76 201 88 q 322 64 278 64 q 470 106 417 64 q 524 222 524 149 q 482 338 524 289 q 347 444 440 386 q 181 583 242 511 q 121 756 121 656 q 168 910 121 844 q 298 1010 215 975 q 483 1044 381 1044 q 644 1029 579 1044 q 746 992 710 1014 l 711 797 l 607 797 l 590 932 z "},"ẞ":{"ha":992,"x_min":-22,"x_max":967,"o":"m 140 625 q 219 838 154 742 q 388 989 283 933 q 624 1044 493 1044 q 922 951 832 1044 l 915 906 l 701 624 q 890 514 814 586 q 967 319 967 442 q 920 147 967 221 q 794 32 874 72 q 619 -8 714 -8 q 531 0 572 -8 q 442 24 490 8 q 383 39 404 38 l 417 265 l 510 265 l 519 117 q 560 78 529 92 q 631 64 590 64 q 736 122 697 64 q 775 282 775 181 q 705 438 775 371 q 547 550 635 504 l 553 588 l 764 874 q 713 940 758 911 q 599 968 668 968 q 421 886 486 968 q 335 651 356 804 l 250 -3 l -22 -3 l -17 64 l 69 82 l 140 625 z "},"Ə":{"ha":903,"x_min":54,"x_max":875,"o":"m 163 985 q 210 992 185 985 q 243 1001 235 999 q 366 1032 303 1021 q 528 1043 429 1043 q 710 992 632 1043 q 832 846 789 940 q 875 628 875 751 q 807 299 875 446 q 625 68 739 151 q 378 -15 511 -15 q 140 74 225 -15 q 54 325 54 163 q 64 437 54 381 q 85 525 74 493 l 682 526 q 685 572 685 557 q 634 863 690 756 q 468 971 578 971 q 357 952 401 971 q 290 901 313 933 l 233 768 l 131 768 l 163 985 m 251 444 q 232 303 232 357 q 277 131 232 196 q 408 65 322 65 q 578 158 506 65 q 675 444 650 250 l 251 444 z "},"T":{"ha":931,"x_min":51,"x_max":988,"o":"m 113 1032 l 988 1032 l 936 668 l 835 667 l 831 943 l 636 958 l 521 82 l 706 65 l 699 0 l 153 0 l 160 65 l 328 82 l 443 958 l 249 943 l 156 668 l 51 668 l 113 1032 z "},"Ŧ":{"ha":932,"x_min":51,"x_max":988,"o":"m 113 1032 l 988 1032 l 936 668 l 835 667 l 831 943 l 636 958 l 583 564 l 764 564 l 754 472 l 572 472 l 521 82 l 706 65 l 699 0 l 153 0 l 160 65 l 328 82 l 379 472 l 218 472 l 228 564 l 392 564 l 443 958 l 249 943 l 156 668 l 51 668 l 113 1032 z "},"Ť":{"ha":932,"x_min":51,"x_max":988,"o":"m 363 1326 l 431 1363 l 576 1224 l 794 1363 l 854 1326 l 618 1090 l 507 1090 l 363 1326 m 113 1032 l 988 1032 l 936 668 l 835 667 l 831 943 l 636 958 l 521 82 l 706 65 l 699 0 l 153 0 l 160 65 l 328 82 l 443 958 l 249 943 l 156 668 l 51 668 l 113 1032 z "},"Ţ":{"ha":931,"x_min":51,"x_max":988,"o":"m 988 1032 l 936 668 l 835 667 l 831 943 l 636 958 l 521 82 l 706 65 l 699 0 l 475 0 q 493 -65 486 -25 q 500 -137 500 -104 q 451 -276 500 -228 q 304 -324 401 -324 q 235 -318 275 -324 q 185 -306 196 -312 l 204 -208 q 263 -219 226 -219 q 388 -75 388 -219 q 381 0 388 -32 l 153 0 l 160 65 l 328 82 l 443 958 l 249 943 l 156 668 l 51 668 l 113 1032 l 988 1032 z "},"Ț":{"ha":932,"x_min":51,"x_max":988,"o":"m 293 -325 q 328 -284 313 -311 q 344 -222 344 -257 q 332 -174 344 -196 q 299 -147 319 -151 l 304 -93 l 396 -28 q 465 -78 438 -37 q 492 -171 492 -119 q 470 -270 492 -225 q 416 -344 449 -315 q 351 -379 383 -372 l 293 -340 l 293 -325 m 113 1032 l 988 1032 l 936 668 l 835 667 l 831 943 l 636 958 l 521 82 l 706 65 l 699 0 l 153 0 l 160 65 l 328 82 l 443 958 l 249 943 l 156 668 l 51 668 l 113 1032 z "},"Ṫ":{"ha":932,"x_min":51,"x_max":988,"o":"m 564 1114 q 496 1144 525 1114 q 467 1211 467 1174 q 503 1293 469 1260 q 586 1326 536 1326 q 660 1299 631 1326 q 689 1236 689 1272 q 656 1149 689 1183 q 564 1114 622 1114 m 113 1032 l 988 1032 l 936 668 l 835 667 l 831 943 l 636 958 l 521 82 l 706 65 l 699 0 l 153 0 l 160 65 l 328 82 l 443 958 l 249 943 l 156 668 l 51 668 l 113 1032 z "},"U":{"ha":974,"x_min":85,"x_max":1039,"o":"m 875 425 q 742 88 844 190 q 451 -14 639 -14 q 192 69 278 -14 q 106 290 107 151 q 111 403 106 363 l 182 949 l 85 964 l 93 1032 l 506 1032 l 500 965 l 375 949 l 306 418 q 296 285 294 332 q 344 122 296 182 q 485 63 393 63 q 671 152 607 63 q 760 425 735 242 l 829 949 l 732 965 l 739 1032 l 1039 1032 l 1031 965 l 943 949 l 875 425 z "},"Ú":{"ha":974,"x_min":85,"x_max":1039,"o":"m 740 1363 l 847 1258 q 747 1155 821 1211 q 615 1075 672 1099 l 553 1129 l 740 1363 m 875 425 q 742 88 844 190 q 451 -14 639 -14 q 192 69 278 -14 q 106 290 107 151 q 111 403 106 363 l 182 949 l 85 964 l 93 1032 l 506 1032 l 500 965 l 375 949 l 306 418 q 296 285 294 332 q 344 122 296 182 q 485 63 393 63 q 671 152 607 63 q 760 425 735 242 l 829 949 l 732 965 l 739 1032 l 1039 1032 l 1031 965 l 943 949 l 875 425 z "},"Ŭ":{"ha":974,"x_min":85,"x_max":1039,"o":"m 619 1107 q 458 1169 504 1107 q 413 1318 413 1231 q 415 1357 413 1346 l 518 1357 q 539 1265 519 1297 q 622 1232 558 1232 q 719 1269 690 1232 q 753 1357 749 1307 l 851 1357 q 822 1231 851 1288 q 740 1140 793 1174 q 619 1107 688 1107 m 875 425 q 742 88 844 190 q 451 -14 639 -14 q 192 69 278 -14 q 106 290 107 151 q 111 403 106 363 l 182 949 l 85 964 l 93 1032 l 506 1032 l 500 965 l 375 949 l 306 418 q 296 285 294 332 q 344 122 296 182 q 485 63 393 63 q 671 152 607 63 q 760 425 735 242 l 829 949 l 732 965 l 739 1032 l 1039 1032 l 1031 965 l 943 949 l 875 425 z "},"Û":{"ha":974,"x_min":85,"x_max":1039,"o":"m 875 425 q 742 88 844 190 q 451 -14 639 -14 q 192 69 278 -14 q 106 290 107 151 q 111 403 106 363 l 182 949 l 85 964 l 93 1032 l 506 1032 l 500 965 l 375 949 l 306 418 q 296 285 294 332 q 344 122 296 182 q 485 63 393 63 q 671 152 607 63 q 760 425 735 242 l 829 949 l 732 965 l 739 1032 l 1039 1032 l 1031 965 l 943 949 l 875 425 m 375 1128 l 614 1363 l 725 1363 l 869 1128 l 801 1090 l 657 1242 l 435 1092 l 375 1128 z "},"Ü":{"ha":974,"x_min":85,"x_max":1039,"o":"m 467 1144 q 409 1169 432 1144 q 386 1231 386 1194 q 415 1310 386 1279 q 488 1340 443 1340 q 550 1317 528 1340 q 572 1258 572 1294 q 545 1176 572 1207 q 467 1144 518 1144 m 767 1144 q 709 1169 732 1144 q 686 1231 686 1194 q 715 1310 686 1281 q 788 1340 743 1340 q 849 1317 826 1340 q 871 1258 871 1294 q 844 1176 871 1207 q 767 1144 817 1144 m 875 425 q 742 88 844 190 q 451 -14 639 -14 q 192 69 278 -14 q 106 290 107 151 q 111 403 106 363 l 182 949 l 85 964 l 93 1032 l 506 1032 l 500 965 l 375 949 l 306 418 q 296 285 294 332 q 344 122 296 182 q 485 63 393 63 q 671 152 607 63 q 760 425 735 242 l 829 949 l 732 965 l 739 1032 l 1039 1032 l 1031 965 l 943 949 l 875 425 z "},"Ụ":{"ha":974,"x_min":85,"x_max":1039,"o":"m 875 425 q 742 88 844 190 q 451 -14 639 -14 q 192 69 278 -14 q 106 290 107 151 q 111 403 106 363 l 182 949 l 85 964 l 93 1032 l 506 1032 l 500 965 l 375 949 l 306 418 q 296 285 294 332 q 344 122 296 182 q 485 63 393 63 q 671 152 607 63 q 760 425 735 242 l 829 949 l 732 965 l 739 1032 l 1039 1032 l 1031 965 l 943 949 l 875 425 m 324 -204 q 353 -129 324 -158 q 421 -100 383 -100 q 476 -122 457 -100 q 496 -178 496 -144 q 465 -256 496 -228 q 393 -285 433 -285 q 344 -262 364 -285 q 324 -204 324 -239 z "},"Ù":{"ha":974,"x_min":85,"x_max":1039,"o":"m 624 1075 q 492 1154 565 1100 q 394 1258 419 1208 l 501 1363 l 688 1129 l 624 1075 m 875 425 q 742 88 844 190 q 451 -14 639 -14 q 192 69 278 -14 q 106 290 107 151 q 111 403 106 363 l 182 949 l 85 964 l 93 1032 l 506 1032 l 500 965 l 375 949 l 306 418 q 296 285 294 332 q 344 122 296 182 q 485 63 393 63 q 671 152 607 63 q 760 425 735 242 l 829 949 l 732 965 l 739 1032 l 1039 1032 l 1031 965 l 943 949 l 875 425 z "},"Ủ":{"ha":974,"x_min":85,"x_max":1039,"o":"m 875 425 q 742 88 844 190 q 451 -14 639 -14 q 192 69 278 -14 q 106 290 107 151 q 111 403 106 363 l 182 949 l 85 964 l 93 1032 l 506 1032 l 500 965 l 375 949 l 306 418 q 296 285 294 332 q 344 122 296 182 q 485 63 393 63 q 671 152 607 63 q 760 425 735 242 l 829 949 l 732 965 l 739 1032 l 1039 1032 l 1031 965 l 943 949 l 875 425 m 576 1135 q 562 1167 569 1144 q 556 1199 554 1189 q 568 1225 558 1215 q 600 1250 578 1235 q 628 1270 618 1261 q 644 1292 639 1279 l 646 1296 q 647 1310 647 1300 q 592 1353 647 1349 q 550 1349 556 1353 l 567 1471 q 590 1476 571 1474 q 624 1479 608 1479 q 749 1448 703 1479 q 796 1357 796 1417 q 792 1322 796 1342 q 763 1267 785 1289 q 703 1222 740 1244 l 676 1204 q 656 1180 663 1193 q 650 1143 649 1167 l 576 1135 z "},"Ư":{"ha":974,"x_min":85,"x_max":1185,"o":"m 1185 1167 l 1181 1136 q 1101 988 1167 1039 q 939 921 1035 936 l 875 425 q 742 88 844 190 q 451 -14 639 -14 q 192 69 278 -14 q 106 290 107 151 q 111 403 106 363 l 182 949 l 85 964 l 93 1032 l 506 1032 l 500 965 l 375 949 l 306 418 q 296 285 294 332 q 344 122 296 182 q 485 63 393 63 q 671 152 607 63 q 760 425 735 242 l 829 949 l 732 965 l 739 1032 l 942 1032 q 1001 1069 983 1044 q 1039 1143 1019 1094 q 1043 1155 1040 1147 q 1044 1167 1046 1163 l 1185 1167 z "},"Ứ":{"ha":974,"x_min":85,"x_max":1185,"o":"m 1185 1167 l 1181 1136 q 1101 988 1167 1039 q 939 921 1035 936 l 875 425 q 742 88 844 190 q 451 -14 639 -14 q 192 69 278 -14 q 106 290 107 151 q 111 403 106 363 l 182 949 l 85 964 l 93 1032 l 506 1032 l 500 965 l 375 949 l 306 418 q 296 285 294 332 q 344 122 296 182 q 485 63 393 63 q 671 152 607 63 q 760 425 735 242 l 829 949 l 732 965 l 739 1032 l 942 1032 q 1001 1069 983 1044 q 1039 1143 1019 1094 q 1043 1155 1040 1147 q 1044 1167 1046 1163 l 1185 1167 m 739 1363 l 846 1258 q 745 1155 819 1211 q 614 1075 671 1099 l 551 1129 l 739 1363 z "},"Ự":{"ha":974,"x_min":85,"x_max":1185,"o":"m 1185 1167 l 1181 1136 q 1101 988 1167 1039 q 939 921 1035 936 l 875 425 q 742 88 844 190 q 451 -14 639 -14 q 192 69 278 -14 q 106 290 107 151 q 111 403 106 363 l 182 949 l 85 964 l 93 1032 l 506 1032 l 500 965 l 375 949 l 306 418 q 296 285 294 332 q 344 122 296 182 q 485 63 393 63 q 671 152 607 63 q 760 425 735 242 l 829 949 l 732 965 l 739 1032 l 942 1032 q 1001 1069 983 1044 q 1039 1143 1019 1094 q 1043 1155 1040 1147 q 1044 1167 1046 1163 l 1185 1167 m 324 -204 q 353 -129 324 -158 q 421 -100 383 -100 q 476 -122 457 -100 q 496 -178 496 -144 q 465 -256 496 -228 q 393 -285 433 -285 q 344 -262 364 -285 q 324 -204 324 -239 z "},"Ừ":{"ha":974,"x_min":85,"x_max":1185,"o":"m 1185 1167 l 1181 1136 q 1101 988 1167 1039 q 939 921 1035 936 l 875 425 q 742 88 844 190 q 451 -14 639 -14 q 192 69 278 -14 q 106 290 107 151 q 111 403 106 363 l 182 949 l 85 964 l 93 1032 l 506 1032 l 500 965 l 375 949 l 306 418 q 296 285 294 332 q 344 122 296 182 q 485 63 393 63 q 671 152 607 63 q 760 425 735 242 l 829 949 l 732 965 l 739 1032 l 942 1032 q 1001 1069 983 1044 q 1039 1143 1019 1094 q 1043 1155 1040 1147 q 1044 1167 1046 1163 l 1185 1167 m 622 1075 q 491 1154 564 1100 q 393 1258 418 1208 l 500 1363 l 686 1129 l 622 1075 z "},"Ử":{"ha":974,"x_min":85,"x_max":1185,"o":"m 1185 1167 l 1181 1136 q 1101 988 1167 1039 q 939 921 1035 936 l 875 425 q 742 88 844 190 q 451 -14 639 -14 q 192 69 278 -14 q 106 290 107 151 q 111 403 106 363 l 182 949 l 85 964 l 93 1032 l 506 1032 l 500 965 l 375 949 l 306 418 q 296 285 294 332 q 344 122 296 182 q 485 63 393 63 q 671 152 607 63 q 760 425 735 242 l 829 949 l 732 965 l 739 1032 l 942 1032 q 1001 1069 983 1044 q 1039 1143 1019 1094 q 1043 1155 1040 1147 q 1044 1167 1046 1163 l 1185 1167 m 576 1135 q 562 1167 569 1144 q 556 1199 554 1189 q 568 1225 558 1215 q 600 1250 578 1235 q 628 1270 618 1261 q 644 1292 639 1279 l 646 1296 q 647 1310 647 1300 q 592 1353 647 1349 q 550 1349 556 1353 l 567 1471 q 590 1476 571 1474 q 624 1479 608 1479 q 749 1448 703 1479 q 796 1357 796 1417 q 792 1322 796 1342 q 763 1267 785 1289 q 703 1222 740 1244 l 676 1204 q 656 1180 663 1193 q 650 1143 649 1167 l 576 1135 z "},"Ữ":{"ha":974,"x_min":85,"x_max":1185,"o":"m 1185 1167 l 1181 1136 q 1101 988 1167 1039 q 939 921 1035 936 l 875 425 q 742 88 844 190 q 451 -14 639 -14 q 192 69 278 -14 q 106 290 107 151 q 111 403 106 363 l 182 949 l 85 964 l 93 1032 l 506 1032 l 500 965 l 375 949 l 306 418 q 296 285 294 332 q 344 122 296 182 q 485 63 393 63 q 671 152 607 63 q 760 425 735 242 l 829 949 l 732 965 l 739 1032 l 942 1032 q 1001 1069 983 1044 q 1039 1143 1019 1094 q 1043 1155 1040 1147 q 1044 1167 1046 1163 l 1185 1167 m 378 1221 q 440 1301 396 1268 q 543 1335 485 1335 q 604 1320 579 1335 q 657 1278 629 1306 q 699 1244 683 1254 q 735 1235 714 1235 q 794 1254 769 1235 q 839 1303 818 1274 l 889 1228 q 826 1144 871 1181 q 728 1108 782 1108 q 662 1123 688 1108 q 607 1165 636 1138 q 565 1199 582 1189 q 525 1210 549 1210 q 470 1194 494 1210 q 422 1150 446 1178 l 378 1221 z "},"Ű":{"ha":974,"x_min":85,"x_max":1039,"o":"m 875 425 q 742 88 844 190 q 451 -14 639 -14 q 192 69 278 -14 q 106 290 107 151 q 111 403 106 363 l 182 949 l 85 964 l 93 1032 l 506 1032 l 500 965 l 375 949 l 306 418 q 296 285 294 332 q 344 122 296 182 q 485 63 393 63 q 671 152 607 63 q 760 425 735 242 l 829 949 l 732 965 l 739 1032 l 1039 1032 l 1031 965 l 943 949 l 875 425 m 576 1361 l 672 1281 q 576 1163 647 1225 q 446 1074 506 1100 l 385 1119 l 576 1361 m 894 1361 l 989 1281 q 888 1159 953 1219 q 764 1075 822 1099 l 703 1119 l 894 1361 z "},"Ū":{"ha":974,"x_min":85,"x_max":1039,"o":"m 443 1288 l 817 1288 l 803 1165 l 429 1165 l 443 1288 m 875 425 q 742 88 844 190 q 451 -14 639 -14 q 192 69 278 -14 q 106 290 107 151 q 111 403 106 363 l 182 949 l 85 964 l 93 1032 l 506 1032 l 500 965 l 375 949 l 306 418 q 296 285 294 332 q 344 122 296 182 q 485 63 393 63 q 671 152 607 63 q 760 425 735 242 l 829 949 l 732 965 l 739 1032 l 1039 1032 l 1031 965 l 943 949 l 875 425 z "},"Ų":{"ha":974,"x_min":85,"x_max":1039,"o":"m 875 425 q 781 138 850 239 q 593 4 713 38 q 523 -76 550 -36 q 496 -143 496 -115 q 507 -186 494 -172 q 540 -200 519 -200 q 646 -151 588 -200 l 667 -219 q 574 -285 629 -260 q 454 -311 519 -311 q 365 -281 396 -311 q 335 -203 335 -251 q 342 -162 336 -185 q 360 -126 349 -140 q 468 -14 396 -68 l 451 -14 q 192 69 278 -14 q 106 290 107 151 q 111 403 106 363 l 182 949 l 85 964 l 93 1032 l 506 1032 l 500 965 l 375 949 l 306 418 q 296 285 294 332 q 344 122 296 182 q 485 63 393 63 q 671 152 607 63 q 760 425 735 242 l 829 949 l 732 965 l 739 1032 l 1039 1032 l 1031 965 l 943 949 l 875 425 z "},"Ů":{"ha":974,"x_min":85,"x_max":1039,"o":"m 875 425 q 742 88 844 190 q 451 -14 639 -14 q 192 69 278 -14 q 106 290 107 151 q 111 403 106 363 l 182 949 l 85 964 l 93 1032 l 506 1032 l 500 965 l 375 949 l 306 418 q 296 285 294 332 q 344 122 296 182 q 485 63 393 63 q 671 152 607 63 q 760 425 735 242 l 829 949 l 732 965 l 739 1032 l 1039 1032 l 1031 965 l 943 949 l 875 425 m 618 1035 q 465 1073 522 1035 q 408 1183 408 1111 q 488 1319 408 1276 q 664 1361 567 1361 q 810 1326 754 1361 q 865 1226 865 1292 q 829 1119 865 1163 q 737 1056 793 1076 q 618 1035 681 1035 m 625 1113 q 717 1135 679 1113 q 754 1213 754 1158 q 724 1266 754 1246 q 650 1286 693 1286 q 559 1264 599 1286 q 519 1194 519 1242 q 551 1135 519 1158 q 625 1113 582 1113 z "},"Ũ":{"ha":974,"x_min":85,"x_max":1039,"o":"m 379 1221 q 442 1301 397 1268 q 544 1335 486 1335 q 606 1320 581 1335 q 658 1278 631 1306 q 700 1244 685 1254 q 736 1235 715 1235 q 795 1254 771 1235 q 840 1303 819 1274 l 890 1228 q 828 1144 872 1181 q 729 1108 783 1108 q 663 1123 689 1108 q 608 1165 638 1138 q 567 1199 583 1189 q 526 1210 550 1210 q 472 1194 496 1210 q 424 1150 447 1178 l 379 1221 m 875 425 q 742 88 844 190 q 451 -14 639 -14 q 192 69 278 -14 q 106 290 107 151 q 111 403 106 363 l 182 949 l 85 964 l 93 1032 l 506 1032 l 500 965 l 375 949 l 306 418 q 296 285 294 332 q 344 122 296 182 q 485 63 393 63 q 671 152 607 63 q 760 425 735 242 l 829 949 l 732 965 l 739 1032 l 1039 1032 l 1031 965 l 943 949 l 875 425 z "},"V":{"ha":836,"x_min":3,"x_max":969,"o":"m 11 1032 l 419 1032 l 414 964 l 299 949 l 382 332 l 400 165 l 465 332 l 744 949 l 631 964 l 636 1032 l 969 1032 l 958 964 l 864 949 l 421 -7 l 254 -10 l 97 949 l 3 965 l 11 1032 z "},"W":{"ha":1288,"x_min":-3,"x_max":1464,"o":"m 6 1032 l 397 1032 l 392 964 l 289 947 l 360 329 l 381 167 l 435 315 l 653 850 l 643 947 l 539 965 l 546 1032 l 950 1032 l 942 964 l 835 947 l 894 329 l 903 167 l 964 319 l 1231 947 l 1094 964 l 1100 1032 l 1464 1032 l 1457 965 l 1353 949 l 918 -7 l 743 -7 l 678 658 l 406 -7 l 232 -7 l 93 947 l -3 965 l 6 1032 z "},"Ẃ":{"ha":1288,"x_min":-3,"x_max":1464,"o":"m 879 1363 l 986 1258 q 885 1155 960 1211 q 754 1075 811 1099 l 692 1129 l 879 1363 m 6 1032 l 397 1032 l 392 964 l 289 947 l 360 329 l 381 167 l 435 315 l 653 850 l 643 947 l 539 965 l 546 1032 l 950 1032 l 942 964 l 835 947 l 894 329 l 903 167 l 964 319 l 1231 947 l 1094 964 l 1100 1032 l 1464 1032 l 1457 965 l 1353 949 l 918 -7 l 743 -7 l 678 658 l 406 -7 l 232 -7 l 93 947 l -3 965 l 6 1032 z "},"Ŵ":{"ha":1288,"x_min":-3,"x_max":1464,"o":"m 6 1032 l 397 1032 l 392 964 l 289 947 l 360 329 l 381 167 l 435 315 l 653 850 l 643 947 l 539 965 l 546 1032 l 950 1032 l 942 964 l 835 947 l 894 329 l 903 167 l 964 319 l 1231 947 l 1094 964 l 1100 1032 l 1464 1032 l 1457 965 l 1353 949 l 918 -7 l 743 -7 l 678 658 l 406 -7 l 232 -7 l 93 947 l -3 965 l 6 1032 m 514 1128 l 753 1363 l 864 1363 l 1008 1128 l 940 1090 l 796 1242 l 574 1092 l 514 1128 z "},"Ẅ":{"ha":1288,"x_min":-3,"x_max":1464,"o":"m 606 1144 q 548 1169 571 1144 q 525 1231 525 1194 q 553 1310 525 1279 q 626 1340 582 1340 q 689 1317 667 1340 q 711 1258 711 1294 q 684 1176 711 1207 q 606 1144 657 1144 m 906 1144 q 848 1169 871 1144 q 825 1231 825 1194 q 853 1310 825 1281 q 926 1340 882 1340 q 988 1317 965 1340 q 1010 1258 1010 1294 q 983 1176 1010 1207 q 906 1144 956 1144 m 6 1032 l 397 1032 l 392 964 l 289 947 l 360 329 l 381 167 l 435 315 l 653 850 l 643 947 l 539 965 l 546 1032 l 950 1032 l 942 964 l 835 947 l 894 329 l 903 167 l 964 319 l 1231 947 l 1094 964 l 1100 1032 l 1464 1032 l 1457 965 l 1353 949 l 918 -7 l 743 -7 l 678 658 l 406 -7 l 232 -7 l 93 947 l -3 965 l 6 1032 z "},"Ẁ":{"ha":1288,"x_min":-3,"x_max":1464,"o":"m 761 1075 q 630 1154 703 1100 q 532 1258 557 1208 l 639 1363 l 825 1129 l 761 1075 m 6 1032 l 397 1032 l 392 964 l 289 947 l 360 329 l 381 167 l 435 315 l 653 850 l 643 947 l 539 965 l 546 1032 l 950 1032 l 942 964 l 835 947 l 894 329 l 903 167 l 964 319 l 1231 947 l 1094 964 l 1100 1032 l 1464 1032 l 1457 965 l 1353 949 l 918 -7 l 743 -7 l 678 658 l 406 -7 l 232 -7 l 93 947 l -3 965 l 6 1032 z "},"X":{"ha":917,"x_min":-49,"x_max":988,"o":"m 92 1032 l 503 1032 l 497 965 l 393 949 l 521 624 l 743 949 l 644 964 l 649 1032 l 988 1032 l 983 964 l 888 949 l 564 535 l 790 82 l 885 64 l 879 0 l 450 0 l 454 64 l 561 82 l 422 415 l 192 82 l 300 64 l 294 0 l -49 0 l -42 64 l 40 82 l 379 510 l 174 947 l 85 964 l 92 1032 z "},"Y":{"ha":853,"x_min":22,"x_max":979,"o":"m 29 1032 l 456 1032 l 446 964 l 326 949 l 454 596 l 486 499 l 533 583 l 751 949 l 642 964 l 649 1032 l 979 1032 l 971 964 l 886 949 l 533 406 l 492 82 l 653 64 l 646 0 l 138 0 l 144 64 l 301 82 l 342 406 l 108 949 l 22 964 l 29 1032 z "},"Ý":{"ha":853,"x_min":22,"x_max":979,"o":"m 29 1032 l 456 1032 l 446 964 l 326 949 l 454 596 l 486 499 l 533 583 l 751 949 l 642 964 l 649 1032 l 979 1032 l 971 964 l 886 949 l 533 406 l 492 82 l 653 64 l 646 0 l 138 0 l 144 64 l 301 82 l 342 406 l 108 949 l 22 964 l 29 1032 m 674 1363 l 781 1258 q 680 1155 754 1211 q 549 1075 606 1099 l 486 1129 l 674 1363 z "},"Ŷ":{"ha":853,"x_min":22,"x_max":979,"o":"m 29 1032 l 456 1032 l 446 964 l 326 949 l 454 596 l 486 499 l 533 583 l 751 949 l 642 964 l 649 1032 l 979 1032 l 971 964 l 886 949 l 533 406 l 492 82 l 653 64 l 646 0 l 138 0 l 144 64 l 301 82 l 342 406 l 108 949 l 22 964 l 29 1032 m 310 1128 l 549 1363 l 660 1363 l 804 1128 l 736 1090 l 592 1242 l 369 1092 l 310 1128 z "},"Ÿ":{"ha":853,"x_min":22,"x_max":979,"o":"m 29 1032 l 456 1032 l 446 964 l 326 949 l 454 596 l 486 499 l 533 583 l 751 949 l 642 964 l 649 1032 l 979 1032 l 971 964 l 886 949 l 533 406 l 492 82 l 653 64 l 646 0 l 138 0 l 144 64 l 301 82 l 342 406 l 108 949 l 22 964 l 29 1032 m 400 1144 q 342 1169 365 1144 q 319 1231 319 1194 q 348 1310 319 1279 q 421 1340 376 1340 q 483 1317 461 1340 q 506 1258 506 1294 q 478 1176 506 1207 q 400 1144 451 1144 m 700 1144 q 642 1169 665 1144 q 619 1231 619 1194 q 648 1310 619 1281 q 721 1340 676 1340 q 782 1317 760 1340 q 804 1258 804 1294 q 777 1176 804 1207 q 700 1144 750 1144 z "},"Ẏ":{"ha":853,"x_min":22,"x_max":979,"o":"m 29 1032 l 456 1032 l 446 964 l 326 949 l 454 596 l 486 499 l 533 583 l 751 949 l 642 964 l 649 1032 l 979 1032 l 971 964 l 886 949 l 533 406 l 492 82 l 653 64 l 646 0 l 138 0 l 144 64 l 301 82 l 342 406 l 108 949 l 22 964 l 29 1032 m 547 1114 q 479 1144 508 1114 q 450 1211 450 1174 q 486 1293 453 1260 q 569 1326 519 1326 q 643 1299 614 1326 q 672 1236 672 1272 q 639 1149 672 1183 q 547 1114 606 1114 z "},"Ỵ":{"ha":853,"x_min":22,"x_max":979,"o":"m 29 1032 l 456 1032 l 446 964 l 326 949 l 454 596 l 486 499 l 533 583 l 751 949 l 642 964 l 649 1032 l 979 1032 l 971 964 l 886 949 l 533 406 l 492 82 l 653 64 l 646 0 l 138 0 l 144 64 l 301 82 l 342 406 l 108 949 l 22 964 l 29 1032 m 264 -204 q 294 -129 264 -158 q 361 -100 324 -100 q 417 -122 397 -100 q 436 -178 436 -144 q 405 -256 436 -228 q 333 -285 374 -285 q 284 -262 304 -285 q 264 -204 264 -239 z "},"Ỳ":{"ha":853,"x_min":22,"x_max":979,"o":"m 29 1032 l 456 1032 l 446 964 l 326 949 l 454 596 l 486 499 l 533 583 l 751 949 l 642 964 l 649 1032 l 979 1032 l 971 964 l 886 949 l 533 406 l 492 82 l 653 64 l 646 0 l 138 0 l 144 64 l 301 82 l 342 406 l 108 949 l 22 964 l 29 1032 m 557 1075 q 426 1154 499 1100 q 328 1258 353 1208 l 435 1363 l 621 1129 l 557 1075 z "},"Ỷ":{"ha":853,"x_min":22,"x_max":979,"o":"m 29 1032 l 456 1032 l 446 964 l 326 949 l 454 596 l 486 499 l 533 583 l 751 949 l 642 964 l 649 1032 l 979 1032 l 971 964 l 886 949 l 533 406 l 492 82 l 653 64 l 646 0 l 138 0 l 144 64 l 301 82 l 342 406 l 108 949 l 22 964 l 29 1032 m 511 1135 q 497 1167 504 1144 q 490 1199 489 1189 q 503 1225 493 1215 q 535 1250 513 1235 q 563 1270 553 1261 q 579 1292 574 1279 l 581 1296 q 582 1310 582 1300 q 526 1353 582 1349 q 485 1349 490 1353 l 501 1471 q 524 1476 506 1474 q 558 1479 543 1479 q 684 1448 638 1479 q 731 1357 731 1417 q 726 1322 731 1342 q 697 1267 719 1289 q 638 1222 675 1244 l 611 1204 q 590 1180 597 1193 q 585 1143 583 1167 l 511 1135 z "},"Ỹ":{"ha":853,"x_min":22,"x_max":979,"o":"m 29 1032 l 456 1032 l 446 964 l 326 949 l 454 596 l 486 499 l 533 583 l 751 949 l 642 964 l 649 1032 l 979 1032 l 971 964 l 886 949 l 533 406 l 492 82 l 653 64 l 646 0 l 138 0 l 144 64 l 301 82 l 342 406 l 108 949 l 22 964 l 29 1032 m 313 1221 q 375 1301 331 1268 q 478 1335 419 1335 q 539 1320 514 1335 q 592 1278 564 1306 q 633 1244 618 1254 q 669 1235 649 1235 q 728 1254 704 1235 q 774 1303 753 1274 l 824 1228 q 761 1144 806 1181 q 663 1108 717 1108 q 597 1123 622 1108 q 542 1165 571 1138 q 500 1199 517 1189 q 460 1210 483 1210 q 405 1194 429 1210 q 357 1150 381 1178 l 313 1221 z "},"Z":{"ha":825,"x_min":-24,"x_max":861,"o":"m 161 1032 l 843 1032 l 861 978 l 281 168 l 197 82 l 582 96 l 697 304 l 797 276 l 731 0 l -3 0 l -24 57 l 557 861 l 653 954 l 303 944 l 219 763 l 119 776 l 161 1032 z "},"Ź":{"ha":825,"x_min":-24,"x_max":861,"o":"m 161 1032 l 843 1032 l 861 978 l 281 168 l 197 82 l 582 96 l 697 304 l 797 276 l 731 0 l -3 0 l -24 57 l 557 861 l 653 954 l 303 944 l 219 763 l 119 776 l 161 1032 m 640 1363 l 747 1258 q 647 1155 721 1211 q 515 1075 572 1099 l 453 1129 l 640 1363 z "},"Ž":{"ha":825,"x_min":-24,"x_max":861,"o":"m 313 1326 l 381 1363 l 526 1224 l 744 1363 l 804 1326 l 568 1090 l 457 1090 l 313 1326 m 161 1032 l 843 1032 l 861 978 l 281 168 l 197 82 l 582 96 l 697 304 l 797 276 l 731 0 l -3 0 l -24 57 l 557 861 l 653 954 l 303 944 l 219 763 l 119 776 l 161 1032 z "},"Ż":{"ha":825,"x_min":-24,"x_max":861,"o":"m 514 1114 q 446 1144 475 1114 q 417 1211 417 1174 q 453 1293 419 1260 q 536 1326 486 1326 q 610 1299 581 1326 q 639 1236 639 1272 q 606 1149 639 1183 q 514 1114 572 1114 m 161 1032 l 843 1032 l 861 978 l 281 168 l 197 82 l 582 96 l 697 304 l 797 276 l 731 0 l -3 0 l -24 57 l 557 861 l 653 954 l 303 944 l 219 763 l 119 776 l 161 1032 z "},"a":{"ha":814,"x_min":47,"x_max":768,"o":"m 660 142 q 658 125 658 136 q 686 88 658 88 q 749 121 707 88 l 768 79 q 704 18 750 50 q 597 -14 658 -14 q 523 7 550 -14 q 494 71 496 28 l 497 96 q 401 17 456 49 q 279 -14 346 -14 q 105 66 163 -14 q 47 275 47 146 q 101 521 47 403 q 257 714 154 639 q 501 789 360 789 q 578 781 536 789 q 654 761 621 772 l 749 789 l 660 142 m 554 690 q 486 704 525 704 q 347 640 403 704 q 264 480 290 576 q 238 285 238 383 q 266 142 238 193 q 349 90 294 90 q 420 115 385 90 q 485 172 456 139 l 554 690 z "},"á":{"ha":814,"x_min":47,"x_max":768,"o":"m 660 142 q 658 125 658 136 q 686 88 658 88 q 749 121 707 88 l 768 79 q 704 18 750 50 q 597 -14 658 -14 q 523 7 550 -14 q 494 71 496 28 l 497 96 q 401 17 456 49 q 279 -14 346 -14 q 105 66 163 -14 q 47 275 47 146 q 101 521 47 403 q 257 714 154 639 q 501 789 360 789 q 578 781 536 789 q 654 761 621 772 l 749 789 l 660 142 m 554 690 q 486 704 525 704 q 347 640 403 704 q 264 480 290 576 q 238 285 238 383 q 266 142 238 193 q 349 90 294 90 q 420 115 385 90 q 485 172 456 139 l 554 690 m 650 1179 l 763 1069 q 698 998 749 1047 q 589 903 647 949 q 492 840 531 857 l 433 889 l 650 1179 z "},"ă":{"ha":814,"x_min":47,"x_max":768,"o":"m 660 142 q 658 125 658 136 q 686 88 658 88 q 749 121 707 88 l 768 79 q 704 18 750 50 q 597 -14 658 -14 q 523 7 550 -14 q 494 71 496 28 l 497 96 q 401 17 456 49 q 279 -14 346 -14 q 105 66 163 -14 q 47 275 47 146 q 101 521 47 403 q 257 714 154 639 q 501 789 360 789 q 578 781 536 789 q 654 761 621 772 l 749 789 l 660 142 m 554 690 q 486 704 525 704 q 347 640 403 704 q 264 480 290 576 q 238 285 238 383 q 266 142 238 193 q 349 90 294 90 q 420 115 385 90 q 485 172 456 139 l 554 690 m 515 883 q 360 947 411 883 q 308 1097 308 1010 q 311 1133 308 1108 l 413 1133 l 413 1106 q 518 1007 418 1007 q 647 1133 635 1007 l 747 1133 l 747 1110 q 717 1002 744 1054 q 639 917 690 950 q 515 883 588 883 z "},"ắ":{"ha":814,"x_min":47,"x_max":768,"o":"m 657 1414 l 750 1324 q 653 1224 732 1293 q 526 1135 574 1156 l 479 1175 l 657 1414 m 515 883 q 360 947 411 883 q 308 1097 308 1010 q 311 1133 308 1108 l 413 1133 l 413 1106 q 518 1007 418 1007 q 647 1133 635 1007 l 747 1133 l 747 1110 q 717 1002 744 1054 q 639 917 690 950 q 515 883 588 883 m 660 142 q 658 125 658 136 q 686 88 658 88 q 749 121 707 88 l 768 79 q 704 18 750 50 q 597 -14 658 -14 q 523 7 550 -14 q 494 71 496 28 l 497 96 q 401 17 456 49 q 279 -14 346 -14 q 105 66 163 -14 q 47 275 47 146 q 101 521 47 403 q 257 714 154 639 q 501 789 360 789 q 578 781 536 789 q 654 761 621 772 l 749 789 l 660 142 m 554 690 q 486 704 525 704 q 347 640 403 704 q 264 480 290 576 q 238 285 238 383 q 266 142 238 193 q 349 90 294 90 q 420 115 385 90 q 485 172 456 139 l 554 690 z "},"ặ":{"ha":814,"x_min":47,"x_max":768,"o":"m 660 142 q 658 125 658 136 q 686 88 658 88 q 749 121 707 88 l 768 79 q 704 18 750 50 q 597 -14 658 -14 q 523 7 550 -14 q 494 71 496 28 l 497 96 q 401 17 456 49 q 279 -14 346 -14 q 105 66 163 -14 q 47 275 47 146 q 101 521 47 403 q 257 714 154 639 q 501 789 360 789 q 578 781 536 789 q 654 761 621 772 l 749 789 l 660 142 m 554 690 q 486 704 525 704 q 347 640 403 704 q 264 480 290 576 q 238 285 238 383 q 266 142 238 193 q 349 90 294 90 q 420 115 385 90 q 485 172 456 139 l 554 690 m 244 -204 q 274 -129 244 -158 q 342 -100 304 -100 q 397 -122 378 -100 q 417 -178 417 -144 q 385 -256 417 -228 q 314 -285 354 -285 q 265 -262 285 -285 q 244 -204 244 -239 m 515 883 q 360 947 411 883 q 308 1097 308 1010 q 311 1133 308 1108 l 413 1133 l 413 1106 q 518 1007 418 1007 q 647 1133 635 1007 l 747 1133 l 747 1110 q 717 1002 744 1054 q 639 917 690 950 q 515 883 588 883 z "},"ằ":{"ha":814,"x_min":47,"x_max":768,"o":"m 542 1138 q 427 1221 501 1157 q 329 1325 353 1285 l 426 1413 l 590 1172 l 542 1138 m 515 883 q 360 947 411 883 q 308 1097 308 1010 q 311 1133 308 1108 l 413 1133 l 413 1106 q 518 1007 418 1007 q 647 1133 635 1007 l 747 1133 l 747 1110 q 717 1002 744 1054 q 639 917 690 950 q 515 883 588 883 m 660 142 q 658 125 658 136 q 686 88 658 88 q 749 121 707 88 l 768 79 q 704 18 750 50 q 597 -14 658 -14 q 523 7 550 -14 q 494 71 496 28 l 497 96 q 401 17 456 49 q 279 -14 346 -14 q 105 66 163 -14 q 47 275 47 146 q 101 521 47 403 q 257 714 154 639 q 501 789 360 789 q 578 781 536 789 q 654 761 621 772 l 749 789 l 660 142 m 554 690 q 486 704 525 704 q 347 640 403 704 q 264 480 290 576 q 238 285 238 383 q 266 142 238 193 q 349 90 294 90 q 420 115 385 90 q 485 172 456 139 l 554 690 z "},"ẳ":{"ha":814,"x_min":47,"x_max":768,"o":"m 507 1140 q 494 1169 501 1149 q 489 1197 488 1189 q 501 1221 492 1213 q 529 1243 510 1229 q 552 1259 540 1250 q 568 1279 564 1268 l 569 1283 q 521 1333 578 1329 q 485 1329 489 1333 l 499 1438 q 519 1442 503 1440 q 549 1444 536 1444 q 660 1417 619 1444 q 701 1338 701 1390 q 697 1306 701 1322 q 672 1257 692 1276 q 619 1217 653 1238 q 609 1210 615 1214 q 596 1201 603 1207 q 576 1180 582 1192 q 572 1147 571 1168 l 507 1140 m 515 883 q 360 947 411 883 q 308 1097 308 1010 q 311 1133 308 1108 l 413 1133 l 413 1106 q 518 1007 418 1007 q 647 1133 635 1007 l 747 1133 l 747 1110 q 717 1002 744 1054 q 639 917 690 950 q 515 883 588 883 m 660 142 q 658 125 658 136 q 686 88 658 88 q 749 121 707 88 l 768 79 q 704 18 750 50 q 597 -14 658 -14 q 523 7 550 -14 q 494 71 496 28 l 497 96 q 401 17 456 49 q 279 -14 346 -14 q 105 66 163 -14 q 47 275 47 146 q 101 521 47 403 q 257 714 154 639 q 501 789 360 789 q 578 781 536 789 q 654 761 621 772 l 749 789 l 660 142 m 554 690 q 486 704 525 704 q 347 640 403 704 q 264 480 290 576 q 238 285 238 383 q 266 142 238 193 q 349 90 294 90 q 420 115 385 90 q 485 172 456 139 l 554 690 z "},"ẵ":{"ha":814,"x_min":47,"x_max":811,"o":"m 660 142 q 658 125 658 136 q 686 88 658 88 q 749 121 707 88 l 768 79 q 704 18 750 50 q 597 -14 658 -14 q 523 7 550 -14 q 494 71 496 28 l 497 96 q 401 17 456 49 q 279 -14 346 -14 q 105 66 163 -14 q 47 275 47 146 q 101 521 47 403 q 257 714 154 639 q 501 789 360 789 q 578 781 536 789 q 654 761 621 772 l 749 789 l 660 142 m 554 690 q 486 704 525 704 q 347 640 403 704 q 264 480 290 576 q 238 285 238 383 q 266 142 238 193 q 349 90 294 90 q 420 115 385 90 q 485 172 456 139 l 554 690 m 515 883 q 360 947 411 883 q 308 1097 308 1010 q 311 1133 308 1108 l 413 1133 l 413 1106 q 518 1007 418 1007 q 647 1133 635 1007 l 747 1133 l 747 1110 q 717 1002 744 1054 q 639 917 690 950 q 515 883 588 883 m 301 1294 q 373 1374 324 1339 q 471 1408 422 1408 q 531 1394 507 1408 q 583 1350 554 1379 q 620 1317 606 1328 q 656 1307 635 1307 q 712 1325 690 1307 q 761 1379 733 1343 l 811 1304 q 745 1219 794 1256 q 644 1182 696 1182 q 578 1197 603 1182 q 525 1239 553 1211 q 487 1272 503 1261 q 447 1283 471 1282 q 343 1222 399 1283 l 301 1294 z "},"ǎ":{"ha":814,"x_min":47,"x_max":782,"o":"m 660 142 q 658 125 658 136 q 686 88 658 88 q 749 121 707 88 l 768 79 q 704 18 750 50 q 597 -14 658 -14 q 523 7 550 -14 q 494 71 496 28 l 497 96 q 401 17 456 49 q 279 -14 346 -14 q 105 66 163 -14 q 47 275 47 146 q 101 521 47 403 q 257 714 154 639 q 501 789 360 789 q 578 781 536 789 q 654 761 621 772 l 749 789 l 660 142 m 554 690 q 486 704 525 704 q 347 640 403 704 q 264 480 290 576 q 238 285 238 383 q 266 142 238 193 q 349 90 294 90 q 420 115 385 90 q 485 172 456 139 l 554 690 m 286 1092 l 357 1128 l 503 971 l 722 1128 l 782 1092 l 543 844 l 433 844 l 286 1092 z "},"â":{"ha":814,"x_min":47,"x_max":768,"o":"m 660 142 q 658 125 658 136 q 686 88 658 88 q 749 121 707 88 l 768 79 q 704 18 750 50 q 597 -14 658 -14 q 523 7 550 -14 q 494 71 496 28 l 497 96 q 401 17 456 49 q 279 -14 346 -14 q 105 66 163 -14 q 47 275 47 146 q 101 521 47 403 q 257 714 154 639 q 501 789 360 789 q 578 781 536 789 q 654 761 621 772 l 749 789 l 660 142 m 554 690 q 486 704 525 704 q 347 640 403 704 q 264 480 290 576 q 238 285 238 383 q 266 142 238 193 q 349 90 294 90 q 420 115 385 90 q 485 172 456 139 l 554 690 m 260 876 l 504 1128 l 615 1128 l 756 875 l 688 839 l 543 993 l 318 840 l 260 876 z "},"ấ":{"ha":814,"x_min":47,"x_max":996,"o":"m 903 1301 l 996 1211 q 899 1112 978 1181 q 772 1022 819 1043 l 725 1063 l 903 1301 m 260 876 l 504 1128 l 615 1128 l 756 875 l 688 839 l 543 993 l 318 840 l 260 876 m 660 142 q 658 125 658 136 q 686 88 658 88 q 749 121 707 88 l 768 79 q 704 18 750 50 q 597 -14 658 -14 q 523 7 550 -14 q 494 71 496 28 l 497 96 q 401 17 456 49 q 279 -14 346 -14 q 105 66 163 -14 q 47 275 47 146 q 101 521 47 403 q 257 714 154 639 q 501 789 360 789 q 578 781 536 789 q 654 761 621 772 l 749 789 l 660 142 m 554 690 q 486 704 525 704 q 347 640 403 704 q 264 480 290 576 q 238 285 238 383 q 266 142 238 193 q 349 90 294 90 q 420 115 385 90 q 485 172 456 139 l 554 690 z "},"ậ":{"ha":814,"x_min":47,"x_max":768,"o":"m 660 142 q 658 125 658 136 q 686 88 658 88 q 749 121 707 88 l 768 79 q 704 18 750 50 q 597 -14 658 -14 q 523 7 550 -14 q 494 71 496 28 l 497 96 q 401 17 456 49 q 279 -14 346 -14 q 105 66 163 -14 q 47 275 47 146 q 101 521 47 403 q 257 714 154 639 q 501 789 360 789 q 578 781 536 789 q 654 761 621 772 l 749 789 l 660 142 m 554 690 q 486 704 525 704 q 347 640 403 704 q 264 480 290 576 q 238 285 238 383 q 266 142 238 193 q 349 90 294 90 q 420 115 385 90 q 485 172 456 139 l 554 690 m 244 -204 q 274 -129 244 -158 q 342 -100 304 -100 q 397 -122 378 -100 q 417 -178 417 -144 q 385 -256 417 -228 q 314 -285 354 -285 q 265 -262 285 -285 q 244 -204 244 -239 m 260 876 l 504 1128 l 615 1128 l 756 875 l 688 839 l 543 993 l 318 840 l 260 876 z "},"ầ":{"ha":814,"x_min":47,"x_max":822,"o":"m 774 1089 q 659 1172 733 1108 q 561 1276 585 1236 l 658 1364 l 822 1124 l 774 1089 m 260 876 l 504 1128 l 615 1128 l 756 875 l 688 839 l 543 993 l 318 840 l 260 876 m 660 142 q 658 125 658 136 q 686 88 658 88 q 749 121 707 88 l 768 79 q 704 18 750 50 q 597 -14 658 -14 q 523 7 550 -14 q 494 71 496 28 l 497 96 q 401 17 456 49 q 279 -14 346 -14 q 105 66 163 -14 q 47 275 47 146 q 101 521 47 403 q 257 714 154 639 q 501 789 360 789 q 578 781 536 789 q 654 761 621 772 l 749 789 l 660 142 m 554 690 q 486 704 525 704 q 347 640 403 704 q 264 480 290 576 q 238 285 238 383 q 266 142 238 193 q 349 90 294 90 q 420 115 385 90 q 485 172 456 139 l 554 690 z "},"ẩ":{"ha":814,"x_min":47,"x_max":946,"o":"m 760 1008 q 747 1036 754 1017 q 742 1064 740 1056 q 753 1087 744 1078 q 779 1107 763 1096 q 803 1124 794 1117 q 817 1143 813 1132 l 818 1146 q 819 1158 819 1150 q 772 1194 819 1193 q 736 1192 742 1194 l 751 1296 q 771 1300 754 1297 q 800 1303 788 1303 q 907 1276 868 1303 q 946 1197 946 1249 q 943 1168 946 1179 q 918 1122 938 1140 q 877 1090 899 1104 q 844 1068 856 1075 q 826 1047 832 1058 q 822 1015 821 1035 l 760 1008 m 260 876 l 504 1128 l 615 1128 l 756 875 l 688 839 l 543 993 l 318 840 l 260 876 m 660 142 q 658 125 658 136 q 686 88 658 88 q 749 121 707 88 l 768 79 q 704 18 750 50 q 597 -14 658 -14 q 523 7 550 -14 q 494 71 496 28 l 497 96 q 401 17 456 49 q 279 -14 346 -14 q 105 66 163 -14 q 47 275 47 146 q 101 521 47 403 q 257 714 154 639 q 501 789 360 789 q 578 781 536 789 q 654 761 621 772 l 749 789 l 660 142 m 554 690 q 486 704 525 704 q 347 640 403 704 q 264 480 290 576 q 238 285 238 383 q 266 142 238 193 q 349 90 294 90 q 420 115 385 90 q 485 172 456 139 l 554 690 z "},"ẫ":{"ha":814,"x_min":47,"x_max":810,"o":"m 347 1268 q 412 1340 367 1308 q 501 1372 457 1372 q 557 1358 535 1372 q 603 1318 579 1343 q 637 1288 624 1297 q 668 1279 650 1279 q 719 1296 700 1279 q 764 1346 739 1313 l 810 1278 q 750 1201 794 1235 q 658 1167 706 1167 q 598 1180 621 1167 q 550 1218 575 1193 q 517 1247 532 1238 q 479 1258 501 1257 q 385 1203 435 1258 l 347 1268 m 260 876 l 504 1128 l 615 1128 l 756 875 l 688 839 l 543 993 l 318 840 l 260 876 m 660 142 q 658 125 658 136 q 686 88 658 88 q 749 121 707 88 l 768 79 q 704 18 750 50 q 597 -14 658 -14 q 523 7 550 -14 q 494 71 496 28 l 497 96 q 401 17 456 49 q 279 -14 346 -14 q 105 66 163 -14 q 47 275 47 146 q 101 521 47 403 q 257 714 154 639 q 501 789 360 789 q 578 781 536 789 q 654 761 621 772 l 749 789 l 660 142 m 554 690 q 486 704 525 704 q 347 640 403 704 q 264 480 290 576 q 238 285 238 383 q 266 142 238 193 q 349 90 294 90 q 420 115 385 90 q 485 172 456 139 l 554 690 z "},"ä":{"ha":814,"x_min":47,"x_max":769,"o":"m 660 142 q 658 125 658 136 q 686 88 658 88 q 749 121 707 88 l 768 79 q 704 18 750 50 q 597 -14 658 -14 q 523 7 550 -14 q 494 71 496 28 l 497 96 q 401 17 456 49 q 279 -14 346 -14 q 105 66 163 -14 q 47 275 47 146 q 101 521 47 403 q 257 714 154 639 q 501 789 360 789 q 578 781 536 789 q 654 761 621 772 l 749 789 l 660 142 m 554 690 q 486 704 525 704 q 347 640 403 704 q 264 480 290 576 q 238 285 238 383 q 266 142 238 193 q 349 90 294 90 q 420 115 385 90 q 485 172 456 139 l 554 690 m 361 922 q 302 951 328 922 q 276 1017 276 979 q 306 1102 276 1068 q 382 1136 335 1136 q 445 1109 421 1136 q 469 1044 469 1082 q 442 957 469 992 q 361 922 414 922 m 661 922 q 602 951 628 922 q 576 1017 576 979 q 605 1102 576 1068 q 682 1136 633 1136 q 745 1109 721 1136 q 769 1044 769 1082 q 741 957 769 992 q 661 922 713 922 z "},"ạ":{"ha":814,"x_min":47,"x_max":768,"o":"m 660 142 q 658 125 658 136 q 686 88 658 88 q 749 121 707 88 l 768 79 q 704 18 750 50 q 597 -14 658 -14 q 523 7 550 -14 q 494 71 496 28 l 497 96 q 401 17 456 49 q 279 -14 346 -14 q 105 66 163 -14 q 47 275 47 146 q 101 521 47 403 q 257 714 154 639 q 501 789 360 789 q 578 781 536 789 q 654 761 621 772 l 749 789 l 660 142 m 554 690 q 486 704 525 704 q 347 640 403 704 q 264 480 290 576 q 238 285 238 383 q 266 142 238 193 q 349 90 294 90 q 420 115 385 90 q 485 172 456 139 l 554 690 m 244 -204 q 274 -129 244 -158 q 342 -100 304 -100 q 397 -122 378 -100 q 417 -178 417 -144 q 385 -256 417 -228 q 314 -285 354 -285 q 265 -262 285 -285 q 244 -204 244 -239 z "},"à":{"ha":814,"x_min":47,"x_max":768,"o":"m 660 142 q 658 125 658 136 q 686 88 658 88 q 749 121 707 88 l 768 79 q 704 18 750 50 q 597 -14 658 -14 q 523 7 550 -14 q 494 71 496 28 l 497 96 q 401 17 456 49 q 279 -14 346 -14 q 105 66 163 -14 q 47 275 47 146 q 101 521 47 403 q 257 714 154 639 q 501 789 360 789 q 578 781 536 789 q 654 761 621 772 l 749 789 l 660 142 m 554 690 q 486 704 525 704 q 347 640 403 704 q 264 480 290 576 q 238 285 238 383 q 266 142 238 193 q 349 90 294 90 q 420 115 385 90 q 485 172 456 139 l 554 690 m 481 844 q 342 946 432 869 q 224 1072 251 1022 l 340 1179 l 540 888 l 481 844 z "},"ả":{"ha":814,"x_min":47,"x_max":768,"o":"m 660 142 q 658 125 658 136 q 686 88 658 88 q 749 121 707 88 l 768 79 q 704 18 750 50 q 597 -14 658 -14 q 523 7 550 -14 q 494 71 496 28 l 497 96 q 401 17 456 49 q 279 -14 346 -14 q 105 66 163 -14 q 47 275 47 146 q 101 521 47 403 q 257 714 154 639 q 501 789 360 789 q 578 781 536 789 q 654 761 621 772 l 749 789 l 660 142 m 554 690 q 486 704 525 704 q 347 640 403 704 q 264 480 290 576 q 238 285 238 383 q 266 142 238 193 q 349 90 294 90 q 420 115 385 90 q 485 172 456 139 l 554 690 m 476 833 q 462 865 469 843 q 456 897 454 888 q 468 924 458 914 q 500 949 478 933 q 528 969 518 960 q 544 990 539 978 l 546 994 q 547 1008 547 999 q 492 1051 547 1047 q 450 1047 456 1051 l 467 1169 q 490 1175 471 1172 q 524 1178 508 1178 q 649 1147 603 1178 q 696 1056 696 1115 q 692 1021 696 1040 q 663 965 685 988 q 603 921 640 943 l 576 903 q 556 878 563 892 q 550 842 549 865 l 476 833 z "},"ā":{"ha":814,"x_min":47,"x_max":768,"o":"m 660 142 q 658 125 658 136 q 686 88 658 88 q 749 121 707 88 l 768 79 q 704 18 750 50 q 597 -14 658 -14 q 523 7 550 -14 q 494 71 496 28 l 497 96 q 401 17 456 49 q 279 -14 346 -14 q 105 66 163 -14 q 47 275 47 146 q 101 521 47 403 q 257 714 154 639 q 501 789 360 789 q 578 781 536 789 q 654 761 621 772 l 749 789 l 660 142 m 554 690 q 486 704 525 704 q 347 640 403 704 q 264 480 290 576 q 238 285 238 383 q 266 142 238 193 q 349 90 294 90 q 420 115 385 90 q 485 172 456 139 l 554 690 m 321 1081 l 694 1081 l 682 958 l 308 958 l 321 1081 z "},"ą":{"ha":814,"x_min":47,"x_max":768,"o":"m 699 15 q 571 -133 571 -76 q 614 -185 569 -185 q 663 -173 639 -185 q 717 -137 688 -161 l 736 -204 q 646 -268 699 -243 q 529 -293 593 -293 q 442 -265 472 -293 q 413 -190 413 -237 q 420 -150 413 -174 q 440 -108 428 -126 q 546 -6 483 -44 q 494 71 496 14 l 497 96 q 401 17 456 49 q 279 -14 346 -14 q 105 66 163 -14 q 47 275 47 146 q 101 521 47 403 q 257 714 154 639 q 501 789 360 789 q 578 781 536 789 q 654 761 621 772 l 749 789 l 660 142 q 658 125 658 136 q 686 88 658 88 q 749 121 707 88 l 768 79 q 699 15 743 42 m 554 690 q 486 704 525 704 q 347 640 403 704 q 264 480 290 576 q 238 285 238 383 q 266 142 238 193 q 349 90 294 90 q 420 115 385 90 q 485 172 456 139 l 554 690 z "},"å":{"ha":814,"x_min":47,"x_max":768,"o":"m 660 142 q 658 125 658 136 q 686 88 658 88 q 749 121 707 88 l 768 79 q 704 18 750 50 q 597 -14 658 -14 q 523 7 550 -14 q 494 71 496 28 l 497 96 q 401 17 456 49 q 279 -14 346 -14 q 105 66 163 -14 q 47 275 47 146 q 101 521 47 403 q 257 714 154 639 q 501 789 360 789 q 578 781 536 789 q 654 761 621 772 l 749 789 l 660 142 m 554 690 q 486 704 525 704 q 347 640 403 704 q 264 480 290 576 q 238 285 238 383 q 266 142 238 193 q 349 90 294 90 q 420 115 385 90 q 485 172 456 139 l 554 690 m 515 850 q 367 893 421 850 q 314 1013 314 936 q 353 1131 314 1085 q 449 1197 392 1176 q 564 1218 506 1218 q 708 1176 654 1218 q 761 1061 761 1135 q 726 945 761 993 q 634 874 690 897 q 515 850 578 850 m 526 931 q 616 956 581 931 q 651 1044 651 982 q 622 1113 651 1086 q 550 1140 593 1140 q 462 1113 499 1140 q 425 1026 425 1085 q 455 958 425 986 q 526 931 485 931 z "},"ǻ":{"ha":814,"x_min":47,"x_max":817,"o":"m 660 142 q 658 125 658 136 q 686 88 658 88 q 749 121 707 88 l 768 79 q 704 18 750 50 q 597 -14 658 -14 q 523 7 550 -14 q 494 71 496 28 l 497 96 q 401 17 456 49 q 279 -14 346 -14 q 105 66 163 -14 q 47 275 47 146 q 101 521 47 403 q 257 714 154 639 q 501 789 360 789 q 578 781 536 789 q 654 761 621 772 l 749 789 l 660 142 m 554 690 q 486 704 525 704 q 347 640 403 704 q 264 480 290 576 q 238 285 238 383 q 266 142 238 193 q 349 90 294 90 q 420 115 385 90 q 485 172 456 139 l 554 690 m 515 850 q 367 893 421 850 q 314 1013 314 936 q 353 1131 314 1085 q 449 1197 392 1176 q 564 1218 506 1218 q 708 1176 654 1218 q 761 1061 761 1135 q 726 945 761 993 q 634 874 690 897 q 515 850 578 850 m 526 931 q 616 956 581 931 q 651 1044 651 982 q 622 1113 651 1086 q 550 1140 593 1140 q 462 1113 499 1140 q 425 1026 425 1085 q 455 958 425 986 q 526 931 485 931 m 704 1618 l 817 1508 q 752 1437 803 1486 q 643 1342 701 1388 q 546 1279 585 1296 l 488 1328 l 704 1618 z "},"ã":{"ha":814,"x_min":47,"x_max":771,"o":"m 660 142 q 658 125 658 136 q 686 88 658 88 q 749 121 707 88 l 768 79 q 704 18 750 50 q 597 -14 658 -14 q 523 7 550 -14 q 494 71 496 28 l 497 96 q 401 17 456 49 q 279 -14 346 -14 q 105 66 163 -14 q 47 275 47 146 q 101 521 47 403 q 257 714 154 639 q 501 789 360 789 q 578 781 536 789 q 654 761 621 772 l 749 789 l 660 142 m 554 690 q 486 704 525 704 q 347 640 403 704 q 264 480 290 576 q 238 285 238 383 q 266 142 238 193 q 349 90 294 90 q 420 115 385 90 q 485 172 456 139 l 554 690 m 261 1013 q 333 1092 283 1057 q 431 1126 382 1126 q 490 1112 467 1126 q 543 1068 514 1097 q 580 1035 565 1046 q 615 1025 594 1025 q 672 1043 650 1025 q 721 1097 693 1061 l 771 1022 q 705 937 754 974 q 604 900 656 900 q 538 915 563 900 q 485 957 513 929 q 447 990 463 979 q 407 1001 431 1000 q 303 940 358 1001 l 261 1013 z "},"æ":{"ha":1181,"x_min":47,"x_max":1140,"o":"m 728 722 q 933 789 821 789 q 1089 740 1038 789 q 1140 614 1140 692 q 1068 447 1140 514 q 894 347 996 379 q 703 311 793 314 q 840 93 699 93 q 1060 200 965 93 l 1096 139 q 1032 70 1075 106 q 926 10 989 35 q 788 -14 863 -14 q 610 39 675 -14 q 524 183 546 92 q 406 44 476 103 q 257 -14 336 -14 q 96 64 144 -14 q 47 269 47 142 q 106 516 47 396 q 276 713 165 636 q 533 789 386 789 q 671 767 590 789 l 738 789 l 728 722 m 888 704 q 760 606 807 704 q 703 386 713 507 q 819 415 758 389 q 920 490 879 442 q 961 603 961 539 q 888 704 961 704 m 563 692 q 508 703 539 706 q 361 632 422 697 q 269 472 300 567 q 238 283 238 376 q 257 153 238 203 q 317 103 276 103 q 410 147 364 103 q 493 247 457 190 l 563 692 z "},"ǽ":{"ha":1175,"x_min":44,"x_max":1138,"o":"m 785 1179 l 897 1069 q 833 998 883 1047 q 724 903 782 949 q 626 840 665 857 l 568 889 l 785 1179 m 725 722 q 931 789 818 789 q 1086 740 1035 789 q 1138 614 1138 692 q 1065 447 1138 514 q 892 347 993 379 q 700 311 790 314 q 838 93 696 93 q 1057 200 963 93 l 1093 139 q 1029 70 1072 106 q 923 10 986 35 q 785 -14 860 -14 q 608 39 672 -14 q 521 183 543 92 q 403 44 474 103 q 254 -14 333 -14 q 93 64 142 -14 q 44 269 44 142 q 103 516 44 396 q 273 713 163 636 q 531 789 383 789 q 668 767 588 789 l 735 789 l 725 722 m 885 704 q 757 606 804 704 q 700 386 710 507 q 816 415 756 389 q 917 490 876 442 q 958 603 958 539 q 885 704 958 704 m 560 692 q 506 703 536 706 q 358 632 419 697 q 266 472 297 567 q 235 283 235 376 q 254 153 235 203 q 314 103 274 103 q 408 147 361 103 q 490 247 454 190 l 560 692 z "},"b":{"ha":810,"x_min":60,"x_max":760,"o":"m 325 699 q 413 763 361 738 q 528 789 465 789 q 701 712 643 789 q 760 494 760 635 q 705 246 760 363 q 547 58 650 129 q 308 -14 444 -14 q 224 -4 269 -14 q 143 18 179 6 l 60 -10 l 190 1014 l 121 1042 l 135 1094 l 344 1119 l 378 1101 l 325 699 m 244 88 q 325 71 274 71 q 463 133 407 71 q 544 291 518 194 q 571 492 571 388 q 542 631 571 578 q 458 683 513 683 q 375 657 414 683 q 311 594 336 631 l 244 88 z "},"ḃ":{"ha":810,"x_min":60,"x_max":760,"o":"m 325 699 q 413 763 361 738 q 528 789 465 789 q 701 712 643 789 q 760 494 760 635 q 705 246 760 363 q 547 58 650 129 q 308 -14 444 -14 q 224 -4 269 -14 q 143 18 179 6 l 60 -10 l 190 1014 l 121 1042 l 135 1094 l 344 1119 l 378 1101 l 325 699 m 244 88 q 325 71 274 71 q 463 133 407 71 q 544 291 518 194 q 571 492 571 388 q 542 631 571 578 q 458 683 513 683 q 375 657 414 683 q 311 594 336 631 l 244 88 m 586 921 q 521 950 549 921 q 493 1017 493 979 q 526 1101 493 1067 q 608 1136 558 1136 q 678 1109 651 1136 q 706 1044 706 1082 q 675 956 706 992 q 586 921 644 921 z "},"c":{"ha":636,"x_min":44,"x_max":633,"o":"m 549 585 q 479 662 508 633 q 428 690 450 690 q 332 644 376 690 q 260 514 288 597 q 233 325 233 431 q 267 152 233 207 q 368 97 300 97 q 468 119 426 97 q 549 183 510 142 l 585 122 q 476 28 550 71 q 300 -14 401 -14 q 113 70 181 -14 q 44 308 44 154 q 93 535 44 425 q 238 717 142 646 q 468 789 333 789 q 556 781 510 789 q 633 760 603 774 l 586 581 l 549 585 z "},"ć":{"ha":636,"x_min":44,"x_max":708,"o":"m 596 1179 l 708 1069 q 644 998 694 1047 q 535 903 593 949 q 438 840 476 857 l 379 889 l 596 1179 m 549 585 q 479 662 508 633 q 428 690 450 690 q 332 644 376 690 q 260 514 288 597 q 233 325 233 431 q 267 152 233 207 q 368 97 300 97 q 468 119 426 97 q 549 183 510 142 l 585 122 q 476 28 550 71 q 300 -14 401 -14 q 113 70 181 -14 q 44 308 44 154 q 93 535 44 425 q 238 717 142 646 q 468 789 333 789 q 556 781 510 789 q 633 760 603 774 l 586 581 l 549 585 z "},"č":{"ha":636,"x_min":44,"x_max":725,"o":"m 229 1092 l 300 1128 l 446 971 l 665 1128 l 725 1092 l 486 844 l 376 844 l 229 1092 m 549 585 q 479 662 508 633 q 428 690 450 690 q 332 644 376 690 q 260 514 288 597 q 233 325 233 431 q 267 152 233 207 q 368 97 300 97 q 468 119 426 97 q 549 183 510 142 l 585 122 q 476 28 550 71 q 300 -14 401 -14 q 113 70 181 -14 q 44 308 44 154 q 93 535 44 425 q 238 717 142 646 q 468 789 333 789 q 556 781 510 789 q 633 760 603 774 l 586 581 l 549 585 z "},"ç":{"ha":636,"x_min":44,"x_max":633,"o":"m 428 690 q 332 644 376 690 q 260 514 288 597 q 233 325 233 431 q 267 152 233 207 q 368 97 300 97 q 468 119 426 97 q 549 183 510 142 l 585 122 q 504 46 558 83 q 376 -7 450 8 q 392 -69 386 -32 q 399 -137 399 -106 q 349 -276 399 -228 q 203 -324 300 -324 q 134 -318 174 -324 q 83 -306 94 -312 l 103 -208 q 161 -219 125 -219 q 286 -74 286 -219 q 282 -14 286 -37 q 107 76 169 -7 q 44 308 44 160 q 93 535 44 425 q 238 717 142 646 q 468 789 333 789 q 556 781 510 789 q 633 760 603 774 l 586 581 l 549 585 q 479 662 508 633 q 428 690 450 690 z "},"ĉ":{"ha":636,"x_min":44,"x_max":701,"o":"m 206 876 l 450 1128 l 561 1128 l 701 875 l 633 839 l 489 993 l 264 840 l 206 876 m 549 585 q 479 662 508 633 q 428 690 450 690 q 332 644 376 690 q 260 514 288 597 q 233 325 233 431 q 267 152 233 207 q 368 97 300 97 q 468 119 426 97 q 549 183 510 142 l 585 122 q 476 28 550 71 q 300 -14 401 -14 q 113 70 181 -14 q 44 308 44 154 q 93 535 44 425 q 238 717 142 646 q 468 789 333 789 q 556 781 510 789 q 633 760 603 774 l 586 581 l 549 585 z "},"ċ":{"ha":636,"x_min":44,"x_max":633,"o":"m 549 585 q 479 662 508 633 q 428 690 450 690 q 332 644 376 690 q 260 514 288 597 q 233 325 233 431 q 267 152 233 207 q 368 97 300 97 q 468 119 426 97 q 549 183 510 142 l 585 122 q 476 28 550 71 q 300 -14 401 -14 q 113 70 181 -14 q 44 308 44 154 q 93 535 44 425 q 238 717 142 646 q 468 789 333 789 q 556 781 510 789 q 633 760 603 774 l 586 581 l 549 585 m 458 921 q 393 950 421 921 q 365 1017 365 979 q 398 1101 365 1067 q 481 1136 431 1136 q 551 1109 524 1136 q 578 1044 578 1082 q 547 956 578 992 q 458 921 517 921 z "},"d":{"ha":833,"x_min":46,"x_max":813,"o":"m 672 139 q 671 122 671 133 q 694 88 671 88 q 757 121 717 88 l 776 78 q 604 -14 699 -14 q 531 10 556 -14 q 503 82 507 33 l 503 103 q 410 20 468 54 q 276 -14 351 -14 q 103 66 160 -14 q 46 275 46 146 q 98 522 46 403 q 252 715 150 640 q 497 789 354 789 q 583 778 539 789 l 618 1013 l 518 1040 l 531 1092 l 778 1119 l 813 1101 l 672 139 m 568 683 q 481 704 533 704 q 341 640 396 704 q 260 478 286 575 q 235 283 235 382 q 264 141 235 192 q 346 90 293 90 q 430 118 390 90 q 494 183 469 146 l 568 683 z "},"ð":{"ha":801,"x_min":46,"x_max":756,"o":"m 386 1024 q 243 1107 300 1093 l 276 1201 q 368 1166 317 1190 q 468 1110 419 1142 q 531 1185 503 1150 q 568 1232 558 1219 l 638 1169 l 538 1056 q 701 826 647 956 q 756 549 756 696 q 706 260 756 388 q 560 59 656 132 q 332 -14 464 -14 q 176 33 240 -14 q 78 152 111 79 q 46 304 46 225 q 96 542 46 440 q 233 698 146 643 q 424 753 319 753 q 565 714 525 753 q 531 843 557 783 q 451 963 506 903 l 354 851 l 285 913 l 386 1024 m 428 671 q 323 610 367 671 q 257 458 279 550 q 235 274 235 365 q 263 124 235 183 q 350 64 292 64 q 481 153 426 64 q 553 376 536 243 q 561 444 557 403 q 565 506 565 486 q 551 574 564 536 q 508 642 539 613 q 428 671 478 671 z "},"ď":{"ha":996,"x_min":46,"x_max":1047,"o":"m 672 139 q 671 122 671 133 q 694 88 671 88 q 757 121 717 88 l 776 78 q 604 -14 699 -14 q 531 10 556 -14 q 503 82 507 33 l 503 103 q 410 20 468 54 q 276 -14 351 -14 q 103 66 160 -14 q 46 275 46 146 q 98 522 46 403 q 252 715 150 640 q 497 789 354 789 q 583 778 539 789 l 618 1013 l 518 1040 l 531 1092 l 778 1119 l 813 1101 l 672 139 m 568 683 q 481 704 533 704 q 341 640 396 704 q 260 478 286 575 q 235 283 235 382 q 264 141 235 192 q 346 90 293 90 q 430 118 390 90 q 494 183 469 146 l 568 683 m 872 719 q 898 824 888 760 q 908 954 908 889 q 904 1021 908 990 q 892 1064 900 1051 l 904 1090 l 1024 1119 q 1047 999 1047 1094 q 1019 824 1047 913 q 946 685 990 735 l 876 704 l 872 719 z "},"đ":{"ha":833,"x_min":46,"x_max":879,"o":"m 672 139 q 671 122 671 133 q 694 88 671 88 q 757 121 717 88 l 776 78 q 604 -14 699 -14 q 531 10 556 -14 q 503 82 507 33 l 503 103 q 410 20 468 54 q 276 -14 351 -14 q 103 66 160 -14 q 46 275 46 146 q 98 522 46 403 q 252 715 150 640 q 497 789 354 789 q 583 778 539 789 l 596 861 l 401 861 l 413 944 l 608 944 l 618 1013 l 518 1040 l 531 1092 l 778 1119 l 813 1101 l 790 944 l 879 944 l 869 861 l 778 861 l 672 139 m 568 683 q 481 704 533 704 q 341 640 396 704 q 260 478 286 575 q 235 283 235 382 q 264 141 235 192 q 346 90 293 90 q 430 118 390 90 q 494 183 469 146 l 568 683 z "},"ḋ":{"ha":833,"x_min":46,"x_max":813,"o":"m 672 139 q 671 122 671 133 q 694 88 671 88 q 757 121 717 88 l 776 78 q 604 -14 699 -14 q 531 10 556 -14 q 503 82 507 33 l 503 103 q 410 20 468 54 q 276 -14 351 -14 q 103 66 160 -14 q 46 275 46 146 q 98 522 46 403 q 252 715 150 640 q 497 789 354 789 q 583 778 539 789 l 618 1013 l 518 1040 l 531 1092 l 778 1119 l 813 1101 l 672 139 m 568 683 q 481 704 533 704 q 341 640 396 704 q 260 478 286 575 q 235 283 235 382 q 264 141 235 192 q 346 90 293 90 q 430 118 390 90 q 494 183 469 146 l 568 683 m 310 921 q 244 950 272 921 q 217 1017 217 979 q 249 1101 217 1067 q 332 1136 282 1136 q 402 1109 375 1136 q 429 1044 429 1082 q 399 956 429 992 q 310 921 368 921 z "},"ǳ":{"ha":1525,"x_min":46,"x_max":1543,"o":"m 672 139 q 671 122 671 133 q 694 88 671 88 q 757 121 717 88 l 776 78 q 604 -14 699 -14 q 531 10 556 -14 q 503 82 507 33 l 503 103 q 410 20 468 54 q 276 -14 351 -14 q 103 66 160 -14 q 46 275 46 146 q 98 522 46 403 q 252 715 150 640 q 497 789 354 789 q 583 778 539 789 l 618 1013 l 518 1040 l 531 1092 l 778 1119 l 813 1101 l 672 139 m 568 683 q 481 704 533 704 q 341 640 396 704 q 260 478 286 575 q 235 283 235 382 q 264 141 235 192 q 346 90 293 90 q 430 118 390 90 q 494 183 469 146 l 568 683 m 1232 629 q 1089 631 1117 632 q 1015 596 1043 629 q 983 515 986 563 l 928 515 q 925 578 925 546 q 937 703 925 646 q 976 774 949 760 q 1042 788 1000 788 q 1258 775 1115 788 q 1349 769 1290 774 q 1436 765 1408 765 q 1510 788 1483 765 l 1543 750 l 1142 244 l 1036 144 l 1288 142 q 1372 174 1342 142 q 1410 261 1403 207 l 1464 261 q 1456 101 1467 182 q 1413 -1 1446 21 q 1343 -15 1394 -15 q 1114 -3 1264 -15 q 1017 3 1079 -1 q 929 7 956 7 q 892 1 911 7 q 860 -15 872 -4 l 819 24 l 1263 567 l 1339 628 l 1232 629 z "},"ǆ":{"ha":1525,"x_min":46,"x_max":1543,"o":"m 672 139 q 671 122 671 133 q 694 88 671 88 q 757 121 717 88 l 776 78 q 604 -14 699 -14 q 531 10 556 -14 q 503 82 507 33 l 503 103 q 410 20 468 54 q 276 -14 351 -14 q 103 66 160 -14 q 46 275 46 146 q 98 522 46 403 q 252 715 150 640 q 497 789 354 789 q 583 778 539 789 l 618 1013 l 518 1040 l 531 1092 l 778 1119 l 813 1101 l 672 139 m 568 683 q 481 704 533 704 q 341 640 396 704 q 260 478 286 575 q 235 283 235 382 q 264 141 235 192 q 346 90 293 90 q 430 118 390 90 q 494 183 469 146 l 568 683 m 1232 629 q 1089 631 1117 632 q 1015 596 1043 629 q 983 515 986 563 l 928 515 q 925 578 925 546 q 937 703 925 646 q 976 774 949 760 q 1042 788 1000 788 q 1258 775 1115 788 q 1349 769 1290 774 q 1436 765 1408 765 q 1510 788 1483 765 l 1543 750 l 1142 244 l 1036 144 l 1288 142 q 1372 174 1342 142 q 1410 261 1403 207 l 1464 261 q 1456 101 1467 182 q 1413 -1 1446 21 q 1343 -15 1394 -15 q 1114 -3 1264 -15 q 1017 3 1079 -1 q 929 7 956 7 q 892 1 911 7 q 860 -15 872 -4 l 819 24 l 1263 567 l 1339 628 l 1232 629 m 1043 1092 l 1114 1128 l 1260 971 l 1479 1128 l 1539 1092 l 1300 844 l 1190 844 l 1043 1092 z "},"e":{"ha":725,"x_min":49,"x_max":686,"o":"m 642 139 q 524 32 606 82 q 336 -18 443 -18 q 172 25 236 -18 q 78 138 107 68 q 49 289 49 207 q 104 542 49 426 q 258 724 160 657 q 474 790 356 790 q 633 742 579 790 q 686 615 686 693 q 614 447 686 514 q 440 347 542 379 q 246 311 338 314 q 279 149 243 210 q 388 89 315 89 q 604 200 508 89 l 642 139 m 433 704 q 303 606 350 704 q 247 386 256 507 q 363 415 303 389 q 465 490 424 442 q 507 600 507 538 q 488 678 507 651 q 433 704 468 704 z "},"é":{"ha":725,"x_min":49,"x_max":718,"o":"m 606 1179 l 718 1069 q 653 998 704 1047 q 544 903 603 949 q 447 840 486 857 l 389 889 l 606 1179 m 642 139 q 524 32 606 82 q 336 -18 443 -18 q 172 25 236 -18 q 78 138 107 68 q 49 289 49 207 q 104 542 49 426 q 258 724 160 657 q 474 790 356 790 q 633 742 579 790 q 686 615 686 693 q 614 447 686 514 q 440 347 542 379 q 246 311 338 314 q 279 149 243 210 q 388 89 315 89 q 604 200 508 89 l 642 139 m 433 704 q 303 606 350 704 q 247 386 256 507 q 363 415 303 389 q 465 490 424 442 q 507 600 507 538 q 488 678 507 651 q 433 704 468 704 z "},"ĕ":{"ha":725,"x_min":49,"x_max":703,"o":"m 642 139 q 524 32 606 82 q 336 -18 443 -18 q 172 25 236 -18 q 78 138 107 68 q 49 289 49 207 q 104 542 49 426 q 258 724 160 657 q 474 790 356 790 q 633 742 579 790 q 686 615 686 693 q 614 447 686 514 q 440 347 542 379 q 246 311 338 314 q 279 149 243 210 q 388 89 315 89 q 604 200 508 89 l 642 139 m 433 704 q 303 606 350 704 q 247 386 256 507 q 363 415 303 389 q 465 490 424 442 q 507 600 507 538 q 488 678 507 651 q 433 704 468 704 m 471 883 q 315 947 367 883 q 264 1097 264 1010 q 267 1133 264 1108 l 368 1133 l 368 1106 q 474 1007 374 1007 q 603 1133 590 1007 l 703 1133 l 703 1110 q 673 1002 700 1054 q 594 917 646 950 q 471 883 543 883 z "},"ě":{"ha":725,"x_min":49,"x_max":738,"o":"m 242 1092 l 313 1128 l 458 971 l 678 1128 l 738 1092 l 499 844 l 389 844 l 242 1092 m 642 139 q 524 32 606 82 q 336 -18 443 -18 q 172 25 236 -18 q 78 138 107 68 q 49 289 49 207 q 104 542 49 426 q 258 724 160 657 q 474 790 356 790 q 633 742 579 790 q 686 615 686 693 q 614 447 686 514 q 440 347 542 379 q 246 311 338 314 q 279 149 243 210 q 388 89 315 89 q 604 200 508 89 l 642 139 m 433 704 q 303 606 350 704 q 247 386 256 507 q 363 415 303 389 q 465 490 424 442 q 507 600 507 538 q 488 678 507 651 q 433 704 468 704 z "},"ê":{"ha":725,"x_min":49,"x_max":713,"o":"m 217 876 l 461 1128 l 572 1128 l 713 875 l 644 839 l 500 993 l 275 840 l 217 876 m 642 139 q 524 32 606 82 q 336 -18 443 -18 q 172 25 236 -18 q 78 138 107 68 q 49 289 49 207 q 104 542 49 426 q 258 724 160 657 q 474 790 356 790 q 633 742 579 790 q 686 615 686 693 q 614 447 686 514 q 440 347 542 379 q 246 311 338 314 q 279 149 243 210 q 388 89 315 89 q 604 200 508 89 l 642 139 m 433 704 q 303 606 350 704 q 247 386 256 507 q 363 415 303 389 q 465 490 424 442 q 507 600 507 538 q 488 678 507 651 q 433 704 468 704 z "},"ế":{"ha":725,"x_min":49,"x_max":951,"o":"m 858 1301 l 951 1211 q 854 1112 933 1181 q 728 1022 775 1043 l 681 1063 l 858 1301 m 215 876 l 460 1128 l 571 1128 l 711 875 l 643 839 l 499 993 l 274 840 l 215 876 m 642 139 q 524 32 606 82 q 336 -18 443 -18 q 172 25 236 -18 q 78 138 107 68 q 49 289 49 207 q 104 542 49 426 q 258 724 160 657 q 474 790 356 790 q 633 742 579 790 q 686 615 686 693 q 614 447 686 514 q 440 347 542 379 q 246 311 338 314 q 279 149 243 210 q 388 89 315 89 q 604 200 508 89 l 642 139 m 433 704 q 303 606 350 704 q 247 386 256 507 q 363 415 303 389 q 465 490 424 442 q 507 600 507 538 q 488 678 507 651 q 433 704 468 704 z "},"ệ":{"ha":725,"x_min":49,"x_max":711,"o":"m 642 139 q 524 32 606 82 q 336 -18 443 -18 q 172 25 236 -18 q 78 138 107 68 q 49 289 49 207 q 104 542 49 426 q 258 724 160 657 q 474 790 356 790 q 633 742 579 790 q 686 615 686 693 q 614 447 686 514 q 440 347 542 379 q 246 311 338 314 q 279 149 243 210 q 388 89 315 89 q 604 200 508 89 l 642 139 m 433 704 q 303 606 350 704 q 247 386 256 507 q 363 415 303 389 q 465 490 424 442 q 507 600 507 538 q 488 678 507 651 q 433 704 468 704 m 200 -204 q 230 -129 200 -158 q 297 -100 260 -100 q 353 -122 333 -100 q 372 -178 372 -144 q 341 -256 372 -228 q 269 -285 310 -285 q 220 -262 240 -285 q 200 -204 200 -239 m 215 876 l 460 1128 l 571 1128 l 711 875 l 643 839 l 499 993 l 274 840 l 215 876 z "},"ề":{"ha":725,"x_min":49,"x_max":778,"o":"m 729 1089 q 615 1172 689 1108 q 517 1276 540 1236 l 614 1364 l 778 1124 l 729 1089 m 215 876 l 460 1128 l 571 1128 l 711 875 l 643 839 l 499 993 l 274 840 l 215 876 m 642 139 q 524 32 606 82 q 336 -18 443 -18 q 172 25 236 -18 q 78 138 107 68 q 49 289 49 207 q 104 542 49 426 q 258 724 160 657 q 474 790 356 790 q 633 742 579 790 q 686 615 686 693 q 614 447 686 514 q 440 347 542 379 q 246 311 338 314 q 279 149 243 210 q 388 89 315 89 q 604 200 508 89 l 642 139 m 433 704 q 303 606 350 704 q 247 386 256 507 q 363 415 303 389 q 465 490 424 442 q 507 600 507 538 q 488 678 507 651 q 433 704 468 704 z "},"ể":{"ha":725,"x_min":49,"x_max":901,"o":"m 715 1008 q 703 1036 710 1017 q 697 1064 696 1056 q 709 1087 700 1078 q 735 1107 718 1096 q 759 1124 750 1117 q 772 1143 768 1132 l 774 1146 q 775 1158 775 1150 q 728 1194 775 1193 q 692 1192 697 1194 l 707 1296 q 726 1300 710 1297 q 756 1303 743 1303 q 863 1276 824 1303 q 901 1197 901 1249 q 899 1168 901 1179 q 874 1122 893 1140 q 833 1090 854 1104 q 800 1068 811 1075 q 782 1047 788 1058 q 778 1015 776 1035 l 715 1008 m 215 876 l 460 1128 l 571 1128 l 711 875 l 643 839 l 499 993 l 274 840 l 215 876 m 642 139 q 524 32 606 82 q 336 -18 443 -18 q 172 25 236 -18 q 78 138 107 68 q 49 289 49 207 q 104 542 49 426 q 258 724 160 657 q 474 790 356 790 q 633 742 579 790 q 686 615 686 693 q 614 447 686 514 q 440 347 542 379 q 246 311 338 314 q 279 149 243 210 q 388 89 315 89 q 604 200 508 89 l 642 139 m 433 704 q 303 606 350 704 q 247 386 256 507 q 363 415 303 389 q 465 490 424 442 q 507 600 507 538 q 488 678 507 651 q 433 704 468 704 z "},"ễ":{"ha":725,"x_min":49,"x_max":765,"o":"m 303 1268 q 367 1340 322 1308 q 457 1372 413 1372 q 513 1358 490 1372 q 558 1318 535 1343 q 592 1288 579 1297 q 624 1279 606 1279 q 675 1296 656 1279 q 719 1346 694 1313 l 765 1278 q 706 1201 750 1235 q 614 1167 661 1167 q 553 1180 576 1167 q 506 1218 531 1193 q 472 1247 488 1238 q 435 1258 457 1257 q 340 1203 390 1258 l 303 1268 m 215 876 l 460 1128 l 571 1128 l 711 875 l 643 839 l 499 993 l 274 840 l 215 876 m 642 139 q 524 32 606 82 q 336 -18 443 -18 q 172 25 236 -18 q 78 138 107 68 q 49 289 49 207 q 104 542 49 426 q 258 724 160 657 q 474 790 356 790 q 633 742 579 790 q 686 615 686 693 q 614 447 686 514 q 440 347 542 379 q 246 311 338 314 q 279 149 243 210 q 388 89 315 89 q 604 200 508 89 l 642 139 m 433 704 q 303 606 350 704 q 247 386 256 507 q 363 415 303 389 q 465 490 424 442 q 507 600 507 538 q 488 678 507 651 q 433 704 468 704 z "},"ë":{"ha":725,"x_min":49,"x_max":725,"o":"m 317 922 q 258 951 283 922 q 232 1017 232 979 q 261 1102 232 1068 q 338 1136 290 1136 q 401 1109 376 1136 q 425 1044 425 1082 q 397 957 425 992 q 317 922 369 922 m 617 922 q 558 951 583 922 q 532 1017 532 979 q 560 1102 532 1068 q 638 1136 589 1136 q 701 1109 676 1136 q 725 1044 725 1082 q 697 957 725 992 q 617 922 668 922 m 642 139 q 524 32 606 82 q 336 -18 443 -18 q 172 25 236 -18 q 78 138 107 68 q 49 289 49 207 q 104 542 49 426 q 258 724 160 657 q 474 790 356 790 q 633 742 579 790 q 686 615 686 693 q 614 447 686 514 q 440 347 542 379 q 246 311 338 314 q 279 149 243 210 q 388 89 315 89 q 604 200 508 89 l 642 139 m 433 704 q 303 606 350 704 q 247 386 256 507 q 363 415 303 389 q 465 490 424 442 q 507 600 507 538 q 488 678 507 651 q 433 704 468 704 z "},"ė":{"ha":725,"x_min":49,"x_max":686,"o":"m 642 139 q 524 32 606 82 q 336 -18 443 -18 q 172 25 236 -18 q 78 138 107 68 q 49 289 49 207 q 104 542 49 426 q 258 724 160 657 q 474 790 356 790 q 633 742 579 790 q 686 615 686 693 q 614 447 686 514 q 440 347 542 379 q 246 311 338 314 q 279 149 243 210 q 388 89 315 89 q 604 200 508 89 l 642 139 m 433 704 q 303 606 350 704 q 247 386 256 507 q 363 415 303 389 q 465 490 424 442 q 507 600 507 538 q 488 678 507 651 q 433 704 468 704 m 468 921 q 403 950 431 921 q 375 1017 375 979 q 408 1101 375 1067 q 490 1136 440 1136 q 560 1109 533 1136 q 588 1044 588 1082 q 557 956 588 992 q 468 921 526 921 z "},"ẹ":{"ha":725,"x_min":49,"x_max":686,"o":"m 642 139 q 524 32 606 82 q 336 -18 443 -18 q 172 25 236 -18 q 78 138 107 68 q 49 289 49 207 q 104 542 49 426 q 258 724 160 657 q 474 790 356 790 q 633 742 579 790 q 686 615 686 693 q 614 447 686 514 q 440 347 542 379 q 246 311 338 314 q 279 149 243 210 q 388 89 315 89 q 604 200 508 89 l 642 139 m 433 704 q 303 606 350 704 q 247 386 256 507 q 363 415 303 389 q 465 490 424 442 q 507 600 507 538 q 488 678 507 651 q 433 704 468 704 m 200 -204 q 230 -129 200 -158 q 297 -100 260 -100 q 353 -122 333 -100 q 372 -178 372 -144 q 341 -256 372 -228 q 269 -285 310 -285 q 220 -262 240 -285 q 200 -204 200 -239 z "},"è":{"ha":725,"x_min":49,"x_max":686,"o":"m 642 139 q 524 32 606 82 q 336 -18 443 -18 q 172 25 236 -18 q 78 138 107 68 q 49 289 49 207 q 104 542 49 426 q 258 724 160 657 q 474 790 356 790 q 633 742 579 790 q 686 615 686 693 q 614 447 686 514 q 440 347 542 379 q 246 311 338 314 q 279 149 243 210 q 388 89 315 89 q 604 200 508 89 l 642 139 m 433 704 q 303 606 350 704 q 247 386 256 507 q 363 415 303 389 q 465 490 424 442 q 507 600 507 538 q 488 678 507 651 q 433 704 468 704 m 436 844 q 297 946 388 869 q 179 1072 207 1022 l 296 1179 l 496 888 l 436 844 z "},"ẻ":{"ha":725,"x_min":49,"x_max":686,"o":"m 642 139 q 524 32 606 82 q 336 -18 443 -18 q 172 25 236 -18 q 78 138 107 68 q 49 289 49 207 q 104 542 49 426 q 258 724 160 657 q 474 790 356 790 q 633 742 579 790 q 686 615 686 693 q 614 447 686 514 q 440 347 542 379 q 246 311 338 314 q 279 149 243 210 q 388 89 315 89 q 604 200 508 89 l 642 139 m 433 704 q 303 606 350 704 q 247 386 256 507 q 363 415 303 389 q 465 490 424 442 q 507 600 507 538 q 488 678 507 651 q 433 704 468 704 m 432 833 q 417 865 425 843 q 411 897 410 888 q 424 924 414 914 q 456 949 433 933 q 484 969 474 960 q 500 990 494 978 l 501 994 q 503 1008 503 999 q 447 1051 503 1047 q 406 1047 411 1051 l 422 1169 q 445 1175 426 1172 q 479 1178 464 1178 q 605 1147 558 1178 q 651 1056 651 1115 q 647 1021 651 1040 q 618 965 640 988 q 558 921 596 943 l 532 903 q 511 878 518 892 q 506 842 504 865 l 432 833 z "},"ē":{"ha":725,"x_min":49,"x_max":686,"o":"m 642 139 q 524 32 606 82 q 336 -18 443 -18 q 172 25 236 -18 q 78 138 107 68 q 49 289 49 207 q 104 542 49 426 q 258 724 160 657 q 474 790 356 790 q 633 742 579 790 q 686 615 686 693 q 614 447 686 514 q 440 347 542 379 q 246 311 338 314 q 279 149 243 210 q 388 89 315 89 q 604 200 508 89 l 642 139 m 433 704 q 303 606 350 704 q 247 386 256 507 q 363 415 303 389 q 465 490 424 442 q 507 600 507 538 q 488 678 507 651 q 433 704 468 704 m 276 1081 l 650 1081 l 638 958 l 264 958 l 276 1081 z "},"ę":{"ha":725,"x_min":49,"x_max":686,"o":"m 388 89 q 604 200 508 89 l 642 139 q 588 78 622 110 q 507 24 553 47 q 368 -133 368 -74 q 411 -185 367 -185 q 460 -173 436 -185 q 514 -137 485 -161 l 533 -204 q 443 -268 496 -243 q 326 -293 390 -293 q 240 -265 269 -293 q 210 -190 210 -237 q 217 -150 210 -174 q 238 -108 225 -126 q 324 -18 274 -53 q 116 74 183 -14 q 49 289 49 163 q 104 542 49 426 q 258 724 160 657 q 474 790 356 790 q 633 742 579 790 q 686 615 686 693 q 614 447 686 514 q 440 347 542 379 q 246 311 338 314 q 279 149 243 210 q 388 89 315 89 m 433 704 q 303 606 350 704 q 247 386 256 507 q 363 415 303 389 q 465 490 424 442 q 507 600 507 538 q 488 678 507 651 q 433 704 468 704 z "},"ẽ":{"ha":725,"x_min":49,"x_max":726,"o":"m 642 139 q 524 32 606 82 q 336 -18 443 -18 q 172 25 236 -18 q 78 138 107 68 q 49 289 49 207 q 104 542 49 426 q 258 724 160 657 q 474 790 356 790 q 633 742 579 790 q 686 615 686 693 q 614 447 686 514 q 440 347 542 379 q 246 311 338 314 q 279 149 243 210 q 388 89 315 89 q 604 200 508 89 l 642 139 m 433 704 q 303 606 350 704 q 247 386 256 507 q 363 415 303 389 q 465 490 424 442 q 507 600 507 538 q 488 678 507 651 q 433 704 468 704 m 217 1013 q 288 1092 239 1057 q 386 1126 338 1126 q 446 1112 422 1126 q 499 1068 469 1097 q 535 1035 521 1046 q 571 1025 550 1025 q 627 1043 606 1025 q 676 1097 649 1061 l 726 1022 q 660 937 710 974 q 560 900 611 900 q 493 915 518 900 q 440 957 468 929 q 402 990 418 979 q 363 1001 386 1000 q 258 940 314 1001 l 217 1013 z "},"f":{"ha":469,"x_min":-161,"x_max":615,"o":"m 196 838 q 299 1049 217 965 q 499 1132 381 1132 q 615 1115 572 1132 l 576 1004 q 483 1035 533 1036 q 408 995 432 1035 q 374 875 385 956 l 361 783 l 514 783 l 497 679 l 347 679 l 269 54 q 170 -232 249 -117 q -39 -347 92 -347 q -108 -343 -72 -347 q -161 -335 -143 -339 l -125 -218 q -76 -236 -112 -225 q -18 -247 -40 -247 q 41 -210 19 -247 q 72 -99 63 -174 l 168 679 l 79 679 l 92 740 l 186 781 l 196 838 z "},"ḟ":{"ha":469,"x_min":-161,"x_max":615,"o":"m 308 1131 q 243 1160 271 1131 q 215 1226 215 1189 q 248 1311 215 1276 q 331 1346 281 1346 q 401 1319 374 1346 q 428 1254 428 1292 q 397 1166 428 1201 q 308 1131 367 1131 m 196 838 q 299 1049 217 965 q 499 1132 381 1132 q 615 1115 572 1132 l 576 1004 q 483 1035 533 1036 q 408 995 432 1035 q 374 875 385 956 l 361 783 l 514 783 l 497 679 l 347 679 l 269 54 q 170 -232 249 -117 q -39 -347 92 -347 q -108 -343 -72 -347 q -161 -335 -143 -339 l -125 -218 q -76 -236 -112 -225 q -18 -247 -40 -247 q 41 -210 19 -247 q 72 -99 63 -174 l 168 679 l 79 679 l 92 740 l 186 781 l 196 838 z "},"g":{"ha":811,"x_min":46,"x_max":761,"o":"m 642 -53 q 506 -279 621 -210 q 243 -349 390 -349 q 145 -340 197 -349 q 72 -321 93 -331 l 104 -190 q 185 -228 131 -207 q 289 -249 239 -249 q 407 -217 369 -249 q 456 -96 444 -185 l 478 69 q 281 -14 392 -14 q 105 66 164 -14 q 46 275 46 146 q 99 521 46 403 q 256 714 153 639 q 501 789 360 789 q 585 780 540 789 q 661 758 629 771 l 761 789 l 642 -53 m 567 686 q 485 704 532 704 q 344 640 400 704 q 263 478 289 575 q 238 283 238 381 q 267 142 238 193 q 350 90 297 90 q 427 114 390 90 q 490 171 464 138 l 567 686 z "},"ğ":{"ha":811,"x_min":46,"x_max":763,"o":"m 642 -53 q 506 -279 621 -210 q 243 -349 390 -349 q 145 -340 197 -349 q 72 -321 93 -331 l 104 -190 q 185 -228 131 -207 q 289 -249 239 -249 q 407 -217 369 -249 q 456 -96 444 -185 l 478 69 q 281 -14 392 -14 q 105 66 164 -14 q 46 275 46 146 q 99 521 46 403 q 256 714 153 639 q 501 789 360 789 q 585 780 540 789 q 661 758 629 771 l 761 789 l 642 -53 m 567 686 q 485 704 532 704 q 344 640 400 704 q 263 478 289 575 q 238 283 238 381 q 267 142 238 193 q 350 90 297 90 q 427 114 390 90 q 490 171 464 138 l 567 686 m 531 883 q 375 947 426 883 q 324 1097 324 1010 q 326 1133 324 1108 l 428 1133 l 428 1106 q 533 1007 433 1007 q 663 1133 650 1007 l 763 1133 l 763 1110 q 733 1002 760 1054 q 654 917 706 950 q 531 883 603 883 z "},"ĝ":{"ha":811,"x_min":46,"x_max":771,"o":"m 275 876 l 519 1128 l 631 1128 l 771 875 l 703 839 l 558 993 l 333 840 l 275 876 m 642 -53 q 506 -279 621 -210 q 243 -349 390 -349 q 145 -340 197 -349 q 72 -321 93 -331 l 104 -190 q 185 -228 131 -207 q 289 -249 239 -249 q 407 -217 369 -249 q 456 -96 444 -185 l 478 69 q 281 -14 392 -14 q 105 66 164 -14 q 46 275 46 146 q 99 521 46 403 q 256 714 153 639 q 501 789 360 789 q 585 780 540 789 q 661 758 629 771 l 761 789 l 642 -53 m 567 686 q 485 704 532 704 q 344 640 400 704 q 263 478 289 575 q 238 283 238 381 q 267 142 238 193 q 350 90 297 90 q 427 114 390 90 q 490 171 464 138 l 567 686 z "},"ģ":{"ha":811,"x_min":47,"x_max":761,"o":"m 600 1154 q 560 1115 578 1142 q 543 1053 543 1089 q 558 1004 543 1026 q 593 979 572 982 l 586 928 l 496 858 q 423 909 451 868 q 394 1003 394 950 q 419 1101 394 1056 q 479 1174 443 1146 q 550 1210 515 1203 l 601 1171 l 600 1154 m 643 -53 q 507 -279 622 -210 q 244 -349 392 -349 q 146 -340 197 -349 q 74 -321 94 -331 l 106 -190 q 185 -228 132 -207 q 289 -249 239 -249 q 408 -217 369 -249 q 457 -96 446 -185 l 478 69 q 390 10 440 33 q 282 -14 340 -14 q 106 66 165 -14 q 47 275 47 146 q 101 521 47 403 q 257 714 154 639 q 501 789 360 789 q 585 780 540 789 q 663 758 631 771 l 761 789 l 643 -53 m 567 686 q 486 704 535 704 q 346 640 401 704 q 264 478 290 575 q 238 283 238 381 q 267 142 238 193 q 350 90 297 90 q 428 114 390 90 q 492 171 465 138 l 567 686 z "},"ġ":{"ha":811,"x_min":46,"x_max":761,"o":"m 642 -53 q 506 -279 621 -210 q 243 -349 390 -349 q 145 -340 197 -349 q 72 -321 93 -331 l 104 -190 q 185 -228 131 -207 q 289 -249 239 -249 q 407 -217 369 -249 q 456 -96 444 -185 l 478 69 q 281 -14 392 -14 q 105 66 164 -14 q 46 275 46 146 q 99 521 46 403 q 256 714 153 639 q 501 789 360 789 q 585 780 540 789 q 661 758 629 771 l 761 789 l 642 -53 m 567 686 q 485 704 532 704 q 344 640 400 704 q 263 478 289 575 q 238 283 238 381 q 267 142 238 193 q 350 90 297 90 q 427 114 390 90 q 490 171 464 138 l 567 686 m 528 921 q 463 950 490 921 q 435 1017 435 979 q 467 1101 435 1067 q 550 1136 500 1136 q 620 1109 593 1136 q 647 1044 647 1082 q 617 956 647 992 q 528 921 586 921 z "},"h":{"ha":867,"x_min":60,"x_max":808,"o":"m 319 611 q 443 740 371 692 q 596 789 515 789 q 723 742 678 789 q 768 585 768 694 q 756 479 768 551 q 742 388 744 407 l 733 343 l 725 299 q 709 203 717 253 q 701 124 701 154 q 725 88 701 88 q 751 95 738 88 q 790 122 765 103 l 808 79 q 742 19 790 51 q 626 -14 694 -14 q 535 12 561 -14 q 510 83 510 38 q 535 260 510 124 l 543 303 q 567 445 558 383 q 576 558 576 507 q 561 647 576 622 q 510 671 546 671 q 403 617 461 671 q 304 486 346 563 l 243 0 l 60 0 l 186 1013 l 103 1040 l 113 1092 l 349 1119 l 382 1101 l 319 611 z "},"ħ":{"ha":867,"x_min":60,"x_max":808,"o":"m 319 610 q 443 740 371 690 q 596 789 515 789 q 723 742 678 789 q 768 585 768 694 q 756 479 768 551 q 742 388 744 407 l 733 343 l 725 299 q 709 203 717 253 q 701 124 701 154 q 725 88 701 88 q 751 95 738 88 q 790 122 765 103 l 808 79 q 742 19 790 51 q 626 -14 694 -14 q 535 12 561 -14 q 510 83 510 38 q 535 260 510 124 l 543 303 q 567 445 558 383 q 576 558 576 507 q 561 647 576 622 q 510 671 546 671 q 403 617 461 671 q 304 486 346 563 l 243 0 l 60 0 l 167 860 l 69 860 l 81 939 l 176 939 l 186 1013 l 103 1040 l 113 1092 l 349 1119 l 382 1101 l 361 939 l 521 939 l 510 860 l 351 860 l 319 610 z "},"ĥ":{"ha":867,"x_min":33,"x_max":808,"o":"m 319 611 q 443 740 371 692 q 596 789 515 789 q 723 742 678 789 q 768 585 768 694 q 756 479 768 551 q 742 388 744 407 l 733 343 l 725 299 q 709 203 717 253 q 701 124 701 154 q 725 88 701 88 q 751 95 738 88 q 790 122 765 103 l 808 79 q 742 19 790 51 q 626 -14 694 -14 q 535 12 561 -14 q 510 83 510 38 q 535 260 510 124 l 543 303 q 567 445 558 383 q 576 558 576 507 q 561 647 576 622 q 510 671 546 671 q 403 617 461 671 q 304 486 346 563 l 243 0 l 60 0 l 186 1013 l 103 1040 l 113 1092 l 349 1119 l 382 1101 l 319 611 m 33 1189 l 272 1424 l 383 1424 l 528 1189 l 460 1151 l 315 1303 l 93 1153 l 33 1189 z "},"i":{"ha":447,"x_min":86,"x_max":406,"o":"m 278 139 q 276 122 276 132 q 300 88 276 88 q 328 96 313 88 q 367 124 343 104 l 385 82 q 315 18 361 50 q 203 -14 269 -14 q 118 8 149 -14 q 88 67 88 29 l 89 81 q 121 318 89 86 l 168 663 l 86 700 l 96 754 l 333 788 l 367 772 l 278 139 m 286 921 q 221 950 249 921 q 193 1017 193 979 q 226 1101 193 1067 q 308 1136 258 1136 q 378 1109 351 1136 q 406 1044 406 1082 q 375 956 406 992 q 286 921 344 921 z "},"ı":{"ha":447,"x_min":86,"x_max":385,"o":"m 278 139 q 276 122 276 132 q 300 88 276 88 q 328 96 313 88 q 367 124 343 104 l 385 82 q 315 18 361 50 q 203 -14 269 -14 q 118 8 149 -14 q 88 67 88 29 l 89 81 q 121 318 89 86 l 168 663 l 86 700 l 96 754 l 333 788 l 367 772 l 278 139 z "},"í":{"ha":447,"x_min":86,"x_max":536,"o":"m 424 1179 l 536 1069 q 472 998 522 1047 q 363 903 421 949 q 265 840 304 857 l 207 889 l 424 1179 m 278 139 q 276 122 276 132 q 300 88 276 88 q 328 96 313 88 q 367 124 343 104 l 385 82 q 315 18 361 50 q 203 -14 269 -14 q 118 8 149 -14 q 88 67 88 29 l 89 81 q 121 318 89 86 l 168 663 l 86 700 l 96 754 l 333 788 l 367 772 l 278 139 z "},"ĭ":{"ha":447,"x_min":83,"x_max":522,"o":"m 278 139 q 276 122 276 132 q 300 88 276 88 q 328 96 313 88 q 367 124 343 104 l 385 82 q 315 18 361 50 q 203 -14 269 -14 q 118 8 149 -14 q 88 67 88 29 l 89 81 q 121 318 89 86 l 168 663 l 86 700 l 96 754 l 333 788 l 367 772 l 278 139 m 290 883 q 135 947 186 883 q 83 1097 83 1010 q 86 1133 83 1108 l 188 1133 l 188 1106 q 293 1007 193 1007 q 422 1133 410 1007 l 522 1133 l 522 1110 q 492 1002 519 1054 q 414 917 465 950 q 290 883 363 883 z "},"î":{"ha":447,"x_min":33,"x_max":529,"o":"m 33 876 l 278 1128 l 389 1128 l 529 875 l 461 839 l 317 993 l 92 840 l 33 876 m 278 139 q 276 122 276 132 q 300 88 276 88 q 328 96 313 88 q 367 124 343 104 l 385 82 q 315 18 361 50 q 203 -14 269 -14 q 118 8 149 -14 q 88 67 88 29 l 89 81 q 121 318 89 86 l 168 663 l 86 700 l 96 754 l 333 788 l 367 772 l 278 139 z "},"ï":{"ha":447,"x_min":50,"x_max":543,"o":"m 135 922 q 76 951 101 922 q 50 1017 50 979 q 79 1102 50 1068 q 156 1136 108 1136 q 219 1109 194 1136 q 243 1044 243 1082 q 215 957 243 992 q 135 922 188 922 m 435 922 q 376 951 401 922 q 350 1017 350 979 q 378 1102 350 1068 q 456 1136 407 1136 q 519 1109 494 1136 q 543 1044 543 1082 q 515 957 543 992 q 435 922 486 922 m 278 139 q 276 122 276 132 q 300 88 276 88 q 328 96 313 88 q 367 124 343 104 l 385 82 q 315 18 361 50 q 203 -14 269 -14 q 118 8 149 -14 q 88 67 88 29 l 89 81 q 121 318 89 86 l 168 663 l 86 700 l 96 754 l 333 788 l 367 772 l 278 139 z "},"ị":{"ha":447,"x_min":71,"x_max":406,"o":"m 278 139 q 276 122 276 132 q 300 88 276 88 q 328 96 313 88 q 367 124 343 104 l 385 82 q 315 18 361 50 q 203 -14 269 -14 q 118 8 149 -14 q 88 67 88 29 l 89 81 q 121 318 89 86 l 168 663 l 86 700 l 96 754 l 333 788 l 367 772 l 278 139 m 286 921 q 221 950 249 921 q 193 1017 193 979 q 226 1101 193 1067 q 308 1136 258 1136 q 378 1109 351 1136 q 406 1044 406 1082 q 375 956 406 992 q 286 921 344 921 m 71 -189 q 101 -114 71 -143 q 168 -85 131 -85 q 224 -107 204 -85 q 243 -162 243 -129 q 212 -241 243 -212 q 140 -269 181 -269 q 91 -247 111 -269 q 71 -189 71 -224 z "},"ì":{"ha":447,"x_min":-1,"x_max":385,"o":"m 278 139 q 276 122 276 132 q 300 88 276 88 q 328 96 313 88 q 367 124 343 104 l 385 82 q 315 18 361 50 q 203 -14 269 -14 q 118 8 149 -14 q 88 67 88 29 l 89 81 q 121 318 89 86 l 168 663 l 86 700 l 96 754 l 333 788 l 367 772 l 278 139 m 256 844 q 117 946 207 869 q -1 1072 26 1022 l 115 1179 l 315 888 l 256 844 z "},"ỉ":{"ha":447,"x_min":86,"x_max":471,"o":"m 278 139 q 276 122 276 132 q 300 88 276 88 q 328 96 313 88 q 367 124 343 104 l 385 82 q 315 18 361 50 q 203 -14 269 -14 q 118 8 149 -14 q 88 67 88 29 l 89 81 q 121 318 89 86 l 168 663 l 86 700 l 96 754 l 333 788 l 367 772 l 278 139 m 251 833 q 237 865 244 843 q 231 897 229 888 q 243 924 233 914 q 275 949 253 933 q 303 969 293 960 q 319 990 314 978 l 321 994 q 322 1008 322 999 q 267 1051 322 1047 q 225 1047 231 1051 l 242 1169 q 265 1175 246 1172 q 299 1178 283 1178 q 424 1147 378 1178 q 471 1056 471 1115 q 467 1021 471 1040 q 438 965 460 988 q 378 921 415 943 l 351 903 q 331 878 338 892 q 325 842 324 865 l 251 833 z "},"ĳ":{"ha":889,"x_min":86,"x_max":864,"o":"m 278 139 q 276 122 276 132 q 300 88 276 88 q 328 96 313 88 q 367 124 343 104 l 385 82 q 315 18 361 50 q 203 -14 269 -14 q 118 8 149 -14 q 88 67 88 29 l 89 81 q 121 318 89 86 l 168 663 l 86 700 l 96 754 l 333 788 l 367 772 l 278 139 m 286 921 q 221 950 249 921 q 193 1017 193 979 q 226 1101 193 1067 q 308 1136 258 1136 q 378 1109 351 1136 q 406 1044 406 1082 q 375 956 406 992 q 286 921 344 921 m 726 0 q 666 -194 713 -114 q 549 -315 619 -274 q 396 -356 479 -356 q 288 -331 313 -356 l 310 -261 q 335 -268 318 -265 q 364 -271 353 -271 q 491 -189 453 -271 q 547 43 529 -107 l 619 672 l 513 704 l 526 756 l 788 788 l 819 772 l 726 0 m 744 921 q 679 950 707 921 q 651 1017 651 979 q 684 1101 651 1067 q 767 1136 717 1136 q 837 1109 810 1136 q 864 1044 864 1082 q 833 956 864 992 q 744 921 803 921 z "},"ī":{"ha":447,"x_min":83,"x_max":469,"o":"m 278 139 q 276 122 276 132 q 300 88 276 88 q 328 96 313 88 q 367 124 343 104 l 385 82 q 315 18 361 50 q 203 -14 269 -14 q 118 8 149 -14 q 88 67 88 29 l 89 81 q 121 318 89 86 l 168 663 l 86 700 l 96 754 l 333 788 l 367 772 l 278 139 m 96 1081 l 469 1081 l 457 958 l 83 958 l 96 1081 z "},"į":{"ha":447,"x_min":-8,"x_max":406,"o":"m 308 1136 q 378 1109 351 1136 q 406 1044 406 1082 q 374 956 406 992 q 286 921 343 921 q 221 950 249 921 q 193 1017 193 979 q 226 1101 193 1067 q 308 1136 258 1136 m 278 139 q 276 122 276 132 q 300 88 276 88 q 328 96 313 88 q 367 124 343 104 l 385 82 q 354 48 375 67 q 307 14 333 29 q 194 -74 236 -33 q 153 -149 153 -114 q 199 -200 151 -200 q 249 -187 225 -200 q 303 -151 274 -175 l 324 -219 q 231 -285 285 -260 q 113 -311 176 -311 q 22 -281 53 -311 q -8 -203 -8 -251 q -1 -163 -8 -186 q 19 -122 7 -140 q 81 -56 49 -82 q 153 -7 113 -29 q 101 24 118 1 q 89 81 85 46 q 121 318 89 86 l 168 663 l 86 700 l 96 754 l 333 788 l 367 772 l 278 139 z "},"ĩ":{"ha":447,"x_min":36,"x_max":546,"o":"m 278 139 q 276 122 276 132 q 300 88 276 88 q 328 96 313 88 q 367 124 343 104 l 385 82 q 315 18 361 50 q 203 -14 269 -14 q 118 8 149 -14 q 88 67 88 29 l 89 81 q 121 318 89 86 l 168 663 l 86 700 l 96 754 l 333 788 l 367 772 l 278 139 m 36 1013 q 108 1092 58 1057 q 206 1126 157 1126 q 265 1112 242 1126 q 318 1068 289 1097 q 355 1035 340 1046 q 390 1025 369 1025 q 447 1043 425 1025 q 496 1097 468 1061 l 546 1022 q 480 937 529 974 q 379 900 431 900 q 313 915 338 900 q 260 957 288 929 q 222 990 238 979 q 182 1001 206 1000 q 78 940 133 1001 l 36 1013 z "},"j":{"ha":442,"x_min":-160,"x_max":417,"o":"m 279 0 q 219 -194 265 -114 q 102 -315 172 -274 q -51 -356 32 -356 q -160 -331 -135 -356 l -137 -261 q -112 -268 -129 -265 q -83 -271 -94 -271 q 44 -189 6 -271 q 100 43 82 -107 l 172 672 l 65 704 l 79 756 l 340 788 l 372 772 l 279 0 m 297 921 q 232 950 260 921 q 204 1017 204 979 q 237 1101 204 1067 q 319 1136 269 1136 q 390 1109 363 1136 q 417 1044 417 1082 q 386 956 417 992 q 297 921 356 921 z "},"ȷ":{"ha":442,"x_min":-160,"x_max":372,"o":"m 279 0 q 219 -194 265 -114 q 102 -315 172 -274 q -51 -356 32 -356 q -160 -331 -135 -356 l -137 -261 q -112 -268 -129 -265 q -83 -271 -94 -271 q 44 -189 6 -271 q 100 43 82 -107 l 172 672 l 65 704 l 79 756 l 340 788 l 372 772 l 279 0 z "},"ĵ":{"ha":442,"x_min":-160,"x_max":513,"o":"m 279 0 q 219 -194 265 -114 q 102 -315 172 -274 q -51 -356 32 -356 q -160 -331 -135 -356 l -137 -261 q -112 -268 -129 -265 q -83 -271 -94 -271 q 44 -189 6 -271 q 100 43 82 -107 l 172 672 l 65 704 l 79 756 l 340 788 l 372 772 l 279 0 m 17 876 l 261 1128 l 372 1128 l 513 875 l 444 839 l 300 993 l 75 840 l 17 876 z "},"k":{"ha":764,"x_min":54,"x_max":782,"o":"m 349 1119 l 383 1101 l 236 0 l 54 0 l 188 1013 l 103 1040 l 114 1092 l 349 1119 m 328 432 q 438 506 396 472 q 524 597 481 539 q 561 707 558 643 q 592 769 563 750 q 658 789 622 789 q 714 767 693 789 q 735 713 735 744 q 700 611 736 661 q 596 516 663 561 q 458 435 529 471 l 608 167 q 647 120 626 138 q 683 103 667 103 q 719 112 697 103 q 761 138 742 121 l 782 94 q 699 23 756 58 q 578 -12 643 -12 q 501 7 531 -12 q 454 65 472 26 l 299 414 l 328 432 z "},"ķ":{"ha":764,"x_min":54,"x_max":782,"o":"m 239 -325 q 274 -284 258 -311 q 290 -222 290 -257 q 278 -174 290 -196 q 244 -147 265 -151 l 250 -93 l 342 -28 q 410 -78 383 -37 q 438 -171 438 -119 q 416 -270 438 -225 q 362 -344 394 -315 q 297 -379 329 -372 l 239 -340 l 239 -325 m 349 1119 l 383 1101 l 236 0 l 54 0 l 188 1013 l 103 1040 l 114 1092 l 349 1119 m 328 432 q 438 506 396 472 q 524 597 481 539 q 561 707 558 643 q 592 769 563 750 q 658 789 622 789 q 714 767 693 789 q 735 713 735 744 q 700 611 736 661 q 596 516 663 561 q 458 435 529 471 l 608 167 q 647 120 626 138 q 683 103 667 103 q 719 112 697 103 q 761 138 742 121 l 782 94 q 699 23 756 58 q 578 -12 643 -12 q 501 7 531 -12 q 454 65 472 26 l 299 414 l 328 432 z "},"ĸ":{"ha":790,"x_min":69,"x_max":783,"o":"m 313 786 l 346 769 l 247 0 l 69 0 l 157 665 l 85 699 l 96 754 l 313 786 m 614 165 q 651 119 631 136 q 688 101 671 101 q 720 108 700 101 q 758 126 740 115 l 778 88 q 698 21 753 54 q 581 -12 643 -12 q 505 7 533 -12 q 460 65 476 26 l 308 408 l 621 776 l 783 776 l 467 433 l 614 165 z "},"l":{"ha":424,"x_min":74,"x_max":390,"o":"m 260 139 q 258 124 258 133 q 283 88 258 88 q 310 95 296 88 q 350 124 324 103 l 368 82 q 303 19 349 51 q 193 -14 257 -14 q 107 8 140 -14 q 74 75 74 31 q 78 125 74 92 l 199 1013 l 113 1040 l 125 1092 l 358 1119 l 390 1101 l 260 139 z "},"ĺ":{"ha":424,"x_min":72,"x_max":533,"o":"m 533 1258 q 434 1156 508 1211 q 303 1075 360 1100 l 239 1129 l 428 1363 l 533 1258 m 260 139 q 258 122 258 133 q 281 88 258 88 q 309 95 294 88 q 347 124 324 103 l 367 82 q 301 19 347 51 q 192 -14 256 -14 q 106 8 139 -14 q 72 75 72 31 q 78 125 72 86 l 193 929 l 108 957 l 121 1010 l 353 1036 l 385 1018 l 260 139 z "},"ľ":{"ha":581,"x_min":74,"x_max":632,"o":"m 260 139 q 258 124 258 133 q 283 88 258 88 q 310 95 296 88 q 350 124 324 103 l 368 82 q 303 19 349 51 q 193 -14 257 -14 q 107 8 140 -14 q 74 75 74 31 q 78 125 74 92 l 199 1013 l 113 1040 l 125 1092 l 358 1119 l 390 1101 l 260 139 m 457 719 q 483 824 472 760 q 493 954 493 889 q 489 1021 493 990 q 476 1064 485 1051 l 489 1090 l 608 1119 q 632 999 632 1094 q 603 824 632 913 q 531 685 575 735 l 461 704 l 457 719 z "},"ļ":{"ha":424,"x_min":8,"x_max":390,"o":"m 8 -325 q 44 -284 28 -311 q 60 -222 60 -257 q 47 -174 60 -196 q 14 -147 35 -151 l 19 -93 l 111 -28 q 180 -78 153 -37 q 207 -171 207 -119 q 185 -270 207 -225 q 131 -344 164 -315 q 67 -379 99 -372 l 8 -340 l 8 -325 m 260 139 q 258 124 258 133 q 283 88 258 88 q 310 95 296 88 q 350 124 324 103 l 368 82 q 303 19 349 51 q 193 -14 257 -14 q 107 8 140 -14 q 74 75 74 31 q 78 125 74 92 l 199 1013 l 113 1040 l 125 1092 l 358 1119 l 390 1101 l 260 139 z "},"ŀ":{"ha":547,"x_min":74,"x_max":597,"o":"m 260 139 q 258 124 258 133 q 283 88 258 88 q 310 95 296 88 q 350 124 324 103 l 368 82 q 303 19 349 51 q 193 -14 257 -14 q 107 8 140 -14 q 74 75 74 31 q 78 125 74 92 l 199 1013 l 113 1040 l 125 1092 l 358 1119 l 390 1101 l 260 139 m 396 522 q 431 609 396 575 q 510 643 467 643 q 575 617 553 643 q 597 551 597 590 q 560 460 597 493 q 476 428 524 428 q 419 454 443 428 q 396 522 396 481 z "},"ǉ":{"ha":865,"x_min":74,"x_max":840,"o":"m 260 139 q 258 124 258 133 q 283 88 258 88 q 310 95 296 88 q 350 124 324 103 l 368 82 q 303 19 349 51 q 193 -14 257 -14 q 107 8 140 -14 q 74 75 74 31 q 78 125 74 92 l 199 1013 l 113 1040 l 125 1092 l 358 1119 l 390 1101 l 260 139 m 703 0 q 642 -194 689 -114 q 526 -315 596 -274 q 372 -356 456 -356 q 264 -331 289 -356 l 286 -261 q 312 -268 294 -265 q 340 -271 329 -271 q 467 -189 429 -271 q 524 43 506 -107 l 596 672 l 489 704 l 503 756 l 764 788 l 796 772 l 703 0 m 721 921 q 656 950 683 921 q 628 1017 628 979 q 660 1101 628 1067 q 743 1136 693 1136 q 813 1109 786 1136 q 840 1044 840 1082 q 810 956 840 992 q 721 921 779 921 z "},"ł":{"ha":424,"x_min":32,"x_max":446,"o":"m 260 139 q 258 124 258 133 q 283 88 258 88 q 310 95 296 88 q 350 124 324 103 l 368 82 q 303 19 349 51 q 193 -14 257 -14 q 107 8 140 -14 q 74 75 74 31 q 78 125 74 92 l 132 510 l 32 471 l 32 557 l 143 603 l 199 1013 l 113 1040 l 125 1092 l 358 1119 l 390 1101 l 333 681 l 446 726 l 446 635 l 321 585 l 260 139 z "},"m":{"ha":1314,"x_min":68,"x_max":1256,"o":"m 331 619 q 451 742 382 694 q 597 789 521 789 q 769 617 756 789 q 888 743 818 697 q 1040 789 958 789 q 1167 740 1121 789 q 1213 585 1213 692 q 1185 379 1213 540 l 1179 343 l 1172 307 q 1147 129 1149 178 q 1171 88 1147 88 q 1198 95 1183 88 q 1238 124 1213 103 l 1256 82 q 1188 19 1236 53 q 1071 -14 1139 -14 q 981 14 1006 -14 q 957 89 957 42 q 990 304 958 146 q 1015 458 1007 401 q 1022 567 1022 514 q 1006 648 1021 626 q 956 669 990 669 q 859 626 911 669 q 768 517 807 583 q 750 343 763 435 l 707 0 l 521 0 l 563 303 q 578 433 571 363 q 586 554 586 503 q 570 648 586 625 q 513 671 554 671 q 412 622 468 671 q 317 504 356 574 l 247 0 l 68 0 l 157 661 l 88 699 l 97 756 l 313 789 l 344 774 l 331 619 z "},"ṁ":{"ha":1314,"x_min":68,"x_max":1256,"o":"m 331 619 q 451 742 382 694 q 597 789 521 789 q 769 617 756 789 q 888 743 818 697 q 1040 789 958 789 q 1167 740 1121 789 q 1213 585 1213 692 q 1185 379 1213 540 l 1179 343 l 1172 307 q 1147 129 1149 178 q 1171 88 1147 88 q 1198 95 1183 88 q 1238 124 1213 103 l 1256 82 q 1188 19 1236 53 q 1071 -14 1139 -14 q 981 14 1006 -14 q 957 89 957 42 q 990 304 958 146 q 1015 458 1007 401 q 1022 567 1022 514 q 1006 648 1021 626 q 956 669 990 669 q 859 626 911 669 q 768 517 807 583 q 750 343 763 435 l 707 0 l 521 0 l 563 303 q 578 433 571 363 q 586 554 586 503 q 570 648 586 625 q 513 671 554 671 q 412 622 468 671 q 317 504 356 574 l 247 0 l 68 0 l 157 661 l 88 699 l 97 756 l 313 789 l 344 774 l 331 619 m 719 921 q 654 950 682 921 q 626 1017 626 979 q 659 1101 626 1067 q 742 1136 692 1136 q 812 1109 785 1136 q 839 1044 839 1082 q 808 956 839 992 q 719 921 778 921 z "},"n":{"ha":874,"x_min":69,"x_max":813,"o":"m 331 619 q 453 742 382 696 q 603 789 525 789 q 729 741 685 789 q 774 585 774 693 q 758 449 774 542 q 740 343 742 356 l 732 294 q 716 201 724 249 q 708 124 708 153 q 731 88 708 88 q 757 95 743 88 q 793 121 771 103 l 813 78 q 744 17 792 49 q 631 -14 697 -14 q 515 89 515 -14 q 542 257 517 129 l 550 303 q 574 445 565 383 q 583 558 583 507 q 568 647 583 624 q 515 671 553 671 q 412 619 469 671 q 315 494 354 568 l 249 0 l 69 0 l 157 661 l 88 699 l 97 756 l 313 789 l 344 774 l 331 619 z "},"ń":{"ha":874,"x_min":69,"x_max":813,"o":"m 644 1179 l 757 1069 q 692 998 743 1047 q 583 903 642 949 q 486 840 525 857 l 428 889 l 644 1179 m 331 619 q 453 742 382 696 q 603 789 525 789 q 729 741 685 789 q 774 585 774 693 q 758 449 774 542 q 740 343 742 356 l 732 294 q 716 201 724 249 q 708 124 708 153 q 731 88 708 88 q 757 95 743 88 q 793 121 771 103 l 813 78 q 744 17 792 49 q 631 -14 697 -14 q 515 89 515 -14 q 542 257 517 129 l 550 303 q 574 445 565 383 q 583 558 583 507 q 568 647 583 624 q 515 671 553 671 q 412 619 469 671 q 315 494 354 568 l 249 0 l 69 0 l 157 661 l 88 699 l 97 756 l 313 789 l 344 774 l 331 619 z "},"ŉ":{"ha":1018,"x_min":-28,"x_max":957,"o":"m 149 1175 q 244 1102 213 1158 q 275 972 275 1046 q 196 758 275 847 q 8 622 117 668 l -28 683 l -28 697 q 42 744 8 710 q 97 827 76 779 q 118 924 118 875 q 99 1000 118 969 q 44 1036 79 1031 l 49 1063 l 149 1175 m 475 619 q 598 742 526 696 q 747 789 669 789 q 874 741 829 789 q 918 585 918 693 q 902 449 918 542 q 885 343 886 356 l 876 294 q 860 201 868 249 q 853 124 853 153 q 875 88 853 88 q 901 95 888 88 q 938 121 915 103 l 957 78 q 889 17 936 49 q 775 -14 842 -14 q 660 89 660 -14 q 686 257 661 129 l 694 303 q 719 445 710 383 q 728 558 728 507 q 713 647 728 624 q 660 671 697 671 q 556 619 614 671 q 460 494 499 568 l 393 0 l 214 0 l 301 661 l 232 699 l 242 756 l 457 789 l 489 774 l 475 619 z "},"ň":{"ha":874,"x_min":69,"x_max":813,"o":"m 281 1092 l 351 1128 l 497 971 l 717 1128 l 776 1092 l 538 844 l 428 844 l 281 1092 m 331 619 q 453 742 382 696 q 603 789 525 789 q 729 741 685 789 q 774 585 774 693 q 758 449 774 542 q 740 343 742 356 l 732 294 q 716 201 724 249 q 708 124 708 153 q 731 88 708 88 q 757 95 743 88 q 793 121 771 103 l 813 78 q 744 17 792 49 q 631 -14 697 -14 q 515 89 515 -14 q 542 257 517 129 l 550 303 q 574 445 565 383 q 583 558 583 507 q 568 647 583 624 q 515 671 553 671 q 412 619 469 671 q 315 494 354 568 l 249 0 l 69 0 l 157 661 l 88 699 l 97 756 l 313 789 l 344 774 l 331 619 z "},"ņ":{"ha":874,"x_min":69,"x_max":813,"o":"m 246 -325 q 281 -284 265 -311 q 297 -222 297 -257 q 285 -174 297 -196 q 251 -147 272 -151 l 257 -93 l 349 -28 q 417 -78 390 -37 q 444 -171 444 -119 q 423 -270 444 -225 q 369 -344 401 -315 q 304 -379 336 -372 l 246 -340 l 246 -325 m 331 619 q 453 742 382 696 q 603 789 525 789 q 729 741 685 789 q 774 585 774 693 q 758 449 774 542 q 740 343 742 356 l 732 294 q 716 201 724 249 q 708 124 708 153 q 731 88 708 88 q 757 95 743 88 q 793 121 771 103 l 813 78 q 744 17 792 49 q 631 -14 697 -14 q 515 89 515 -14 q 542 257 517 129 l 550 303 q 574 445 565 383 q 583 558 583 507 q 568 647 583 624 q 515 671 553 671 q 412 619 469 671 q 315 494 354 568 l 249 0 l 69 0 l 157 661 l 88 699 l 97 756 l 313 789 l 344 774 l 331 619 z "},"ṅ":{"ha":874,"x_min":69,"x_max":813,"o":"m 331 619 q 453 742 382 696 q 603 789 525 789 q 729 741 685 789 q 774 585 774 693 q 758 449 774 542 q 740 343 742 356 l 732 294 q 716 201 724 249 q 708 124 708 153 q 731 88 708 88 q 757 95 743 88 q 793 121 771 103 l 813 78 q 744 17 792 49 q 631 -14 697 -14 q 515 89 515 -14 q 542 257 517 129 l 550 303 q 574 445 565 383 q 583 558 583 507 q 568 647 583 624 q 515 671 553 671 q 412 619 469 671 q 315 494 354 568 l 249 0 l 69 0 l 157 661 l 88 699 l 97 756 l 313 789 l 344 774 l 331 619 m 507 921 q 442 950 469 921 q 414 1017 414 979 q 447 1101 414 1067 q 529 1136 479 1136 q 599 1109 572 1136 q 626 1044 626 1082 q 596 956 626 992 q 507 921 565 921 z "},"ŋ":{"ha":868,"x_min":69,"x_max":781,"o":"m 331 619 q 450 740 381 693 q 603 788 519 788 q 733 740 686 788 q 774 583 781 693 q 704 0 746 210 q 634 -213 676 -136 q 528 -323 592 -290 q 369 -356 465 -356 q 302 -349 332 -356 q 261 -331 272 -343 l 285 -261 q 311 -268 294 -265 q 339 -271 328 -271 q 460 -200 419 -271 q 522 11 500 -129 q 551 245 533 86 q 583 567 568 404 q 517 671 592 671 q 416 623 472 671 q 315 493 360 575 l 249 0 l 69 0 l 157 658 l 86 696 l 97 751 l 313 785 l 344 769 l 331 619 z "},"ǌ":{"ha":1315,"x_min":69,"x_max":1292,"o":"m 331 619 q 453 742 382 696 q 603 789 525 789 q 729 741 685 789 q 774 585 774 693 q 758 449 774 542 q 740 343 742 356 l 732 294 q 716 201 724 249 q 708 124 708 153 q 731 88 708 88 q 757 95 743 88 q 793 121 771 103 l 813 78 q 744 17 792 49 q 631 -14 697 -14 q 515 89 515 -14 q 542 257 517 129 l 550 303 q 574 445 565 383 q 583 558 583 507 q 568 647 583 624 q 515 671 553 671 q 412 619 469 671 q 315 494 354 568 l 249 0 l 69 0 l 157 661 l 88 699 l 97 756 l 313 789 l 344 774 l 331 619 m 1153 0 q 1092 -194 1139 -114 q 976 -315 1046 -274 q 822 -356 906 -356 q 714 -331 739 -356 l 736 -261 q 762 -268 744 -265 q 790 -271 779 -271 q 917 -189 879 -271 q 974 43 956 -107 l 1046 672 l 939 704 l 953 756 l 1214 788 l 1246 772 l 1153 0 m 1172 921 q 1107 950 1135 921 q 1079 1017 1079 979 q 1112 1101 1079 1067 q 1194 1136 1144 1136 q 1265 1109 1238 1136 q 1292 1044 1292 1082 q 1261 956 1292 992 q 1172 921 1231 921 z "},"ñ":{"ha":874,"x_min":69,"x_max":813,"o":"m 331 619 q 453 742 382 696 q 603 789 525 789 q 729 741 685 789 q 774 585 774 693 q 758 449 774 542 q 740 343 742 356 l 732 294 q 716 201 724 249 q 708 124 708 153 q 731 88 708 88 q 757 95 743 88 q 793 121 771 103 l 813 78 q 744 17 792 49 q 631 -14 697 -14 q 515 89 515 -14 q 542 257 517 129 l 550 303 q 574 445 565 383 q 583 558 583 507 q 568 647 583 624 q 515 671 553 671 q 412 619 469 671 q 315 494 354 568 l 249 0 l 69 0 l 157 661 l 88 699 l 97 756 l 313 789 l 344 774 l 331 619 m 256 1013 q 327 1092 278 1057 q 425 1126 376 1126 q 485 1112 461 1126 q 538 1068 508 1097 q 574 1035 560 1046 q 610 1025 589 1025 q 666 1043 644 1025 q 715 1097 688 1061 l 765 1022 q 699 937 749 974 q 599 900 650 900 q 532 915 557 900 q 479 957 507 929 q 441 990 457 979 q 401 1001 425 1000 q 297 940 353 1001 l 256 1013 z "},"o":{"ha":799,"x_min":40,"x_max":757,"o":"m 460 790 q 681 706 604 790 q 757 465 757 622 q 704 225 757 336 q 556 48 651 114 q 338 -18 461 -18 q 117 67 193 -18 q 40 308 40 151 q 92 549 40 439 q 240 725 144 660 q 460 790 336 790 m 438 704 q 328 645 372 704 q 261 496 283 586 q 239 311 239 406 q 269 123 239 183 q 365 63 300 63 q 472 122 429 63 q 536 272 515 181 q 557 460 557 364 q 528 646 557 588 q 438 704 499 704 z "},"ó":{"ha":799,"x_min":40,"x_max":757,"o":"m 608 1179 l 721 1069 q 656 998 707 1047 q 547 903 606 949 q 450 840 489 857 l 392 889 l 608 1179 m 460 790 q 681 706 604 790 q 757 465 757 622 q 704 225 757 336 q 556 48 651 114 q 338 -18 461 -18 q 117 67 193 -18 q 40 308 40 151 q 92 549 40 439 q 240 725 144 660 q 460 790 336 790 m 438 704 q 328 645 372 704 q 261 496 283 586 q 239 311 239 406 q 269 123 239 183 q 365 63 300 63 q 472 122 429 63 q 536 272 515 181 q 557 460 557 364 q 528 646 557 588 q 438 704 499 704 z "},"ŏ":{"ha":799,"x_min":40,"x_max":757,"o":"m 460 790 q 681 706 604 790 q 757 465 757 622 q 704 225 757 336 q 556 48 651 114 q 338 -18 461 -18 q 117 67 193 -18 q 40 308 40 151 q 92 549 40 439 q 240 725 144 660 q 460 790 336 790 m 438 704 q 328 645 372 704 q 261 496 283 586 q 239 311 239 406 q 269 123 239 183 q 365 63 300 63 q 472 122 429 63 q 536 272 515 181 q 557 460 557 364 q 528 646 557 588 q 438 704 499 704 m 474 883 q 318 947 369 883 q 267 1097 267 1010 q 269 1133 267 1108 l 371 1133 l 371 1106 q 476 1007 376 1007 q 606 1133 593 1007 l 706 1133 l 706 1110 q 676 1002 703 1054 q 597 917 649 950 q 474 883 546 883 z "},"ô":{"ha":799,"x_min":40,"x_max":757,"o":"m 222 876 l 467 1128 l 578 1128 l 718 875 l 650 839 l 506 993 l 281 840 l 222 876 m 460 790 q 681 706 604 790 q 757 465 757 622 q 704 225 757 336 q 556 48 651 114 q 338 -18 461 -18 q 117 67 193 -18 q 40 308 40 151 q 92 549 40 439 q 240 725 144 660 q 460 790 336 790 m 438 704 q 328 645 372 704 q 261 496 283 586 q 239 311 239 406 q 269 123 239 183 q 365 63 300 63 q 472 122 429 63 q 536 272 515 181 q 557 460 557 364 q 528 646 557 588 q 438 704 499 704 z "},"ố":{"ha":799,"x_min":40,"x_max":954,"o":"m 861 1301 l 954 1211 q 857 1112 936 1181 q 731 1022 778 1043 l 683 1063 l 861 1301 m 218 876 l 463 1128 l 574 1128 l 714 875 l 646 839 l 501 993 l 276 840 l 218 876 m 460 790 q 681 706 604 790 q 757 465 757 622 q 704 225 757 336 q 556 48 651 114 q 338 -18 461 -18 q 117 67 193 -18 q 40 308 40 151 q 92 549 40 439 q 240 725 144 660 q 460 790 336 790 m 438 704 q 328 645 372 704 q 261 496 283 586 q 239 311 239 406 q 269 123 239 183 q 365 63 300 63 q 472 122 429 63 q 536 272 515 181 q 557 460 557 364 q 528 646 557 588 q 438 704 499 704 z "},"ộ":{"ha":799,"x_min":40,"x_max":757,"o":"m 460 790 q 681 706 604 790 q 757 465 757 622 q 704 225 757 336 q 556 48 651 114 q 338 -18 461 -18 q 117 67 193 -18 q 40 308 40 151 q 92 549 40 439 q 240 725 144 660 q 460 790 336 790 m 438 704 q 328 645 372 704 q 261 496 283 586 q 239 311 239 406 q 269 123 239 183 q 365 63 300 63 q 472 122 429 63 q 536 272 515 181 q 557 460 557 364 q 528 646 557 588 q 438 704 499 704 m 228 -222 q 258 -147 228 -176 q 325 -118 288 -118 q 381 -140 361 -118 q 400 -196 400 -162 q 369 -274 400 -246 q 297 -303 338 -303 q 248 -280 268 -303 q 228 -222 228 -257 m 218 876 l 463 1128 l 574 1128 l 714 875 l 646 839 l 501 993 l 276 840 l 218 876 z "},"ồ":{"ha":799,"x_min":40,"x_max":781,"o":"m 732 1089 q 617 1172 692 1108 q 519 1276 543 1236 l 617 1364 l 781 1124 l 732 1089 m 218 876 l 463 1128 l 574 1128 l 714 875 l 646 839 l 501 993 l 276 840 l 218 876 m 460 790 q 681 706 604 790 q 757 465 757 622 q 704 225 757 336 q 556 48 651 114 q 338 -18 461 -18 q 117 67 193 -18 q 40 308 40 151 q 92 549 40 439 q 240 725 144 660 q 460 790 336 790 m 438 704 q 328 645 372 704 q 261 496 283 586 q 239 311 239 406 q 269 123 239 183 q 365 63 300 63 q 472 122 429 63 q 536 272 515 181 q 557 460 557 364 q 528 646 557 588 q 438 704 499 704 z "},"ổ":{"ha":799,"x_min":40,"x_max":904,"o":"m 718 1008 q 706 1036 713 1017 q 700 1064 699 1056 q 712 1087 703 1078 q 738 1107 721 1096 q 762 1124 753 1117 q 775 1143 771 1132 l 776 1146 q 778 1158 778 1150 q 731 1194 778 1193 q 694 1192 700 1194 l 710 1296 q 729 1300 713 1297 q 758 1303 746 1303 q 865 1276 826 1303 q 904 1197 904 1249 q 901 1168 904 1179 q 876 1122 896 1140 q 835 1090 857 1104 q 803 1068 814 1075 q 785 1047 790 1058 q 781 1015 779 1035 l 718 1008 m 218 876 l 463 1128 l 574 1128 l 714 875 l 646 839 l 501 993 l 276 840 l 218 876 m 460 790 q 681 706 604 790 q 757 465 757 622 q 704 225 757 336 q 556 48 651 114 q 338 -18 461 -18 q 117 67 193 -18 q 40 308 40 151 q 92 549 40 439 q 240 725 144 660 q 460 790 336 790 m 438 704 q 328 645 372 704 q 261 496 283 586 q 239 311 239 406 q 269 123 239 183 q 365 63 300 63 q 472 122 429 63 q 536 272 515 181 q 557 460 557 364 q 528 646 557 588 q 438 704 499 704 z "},"ỗ":{"ha":799,"x_min":40,"x_max":768,"o":"m 306 1268 q 370 1340 325 1308 q 460 1372 415 1372 q 515 1358 493 1372 q 561 1318 538 1343 q 595 1288 582 1297 q 626 1279 608 1279 q 678 1296 658 1279 q 722 1346 697 1313 l 768 1278 q 708 1201 753 1235 q 617 1167 664 1167 q 556 1180 579 1167 q 508 1218 533 1193 q 475 1247 490 1238 q 438 1258 460 1257 q 343 1203 393 1258 l 306 1268 m 218 876 l 463 1128 l 574 1128 l 714 875 l 646 839 l 501 993 l 276 840 l 218 876 m 460 790 q 681 706 604 790 q 757 465 757 622 q 704 225 757 336 q 556 48 651 114 q 338 -18 461 -18 q 117 67 193 -18 q 40 308 40 151 q 92 549 40 439 q 240 725 144 660 q 460 790 336 790 m 438 704 q 328 645 372 704 q 261 496 283 586 q 239 311 239 406 q 269 123 239 183 q 365 63 300 63 q 472 122 429 63 q 536 272 515 181 q 557 460 557 364 q 528 646 557 588 q 438 704 499 704 z "},"ö":{"ha":799,"x_min":40,"x_max":757,"o":"m 324 922 q 265 951 290 922 q 239 1017 239 979 q 268 1102 239 1068 q 344 1136 297 1136 q 408 1109 383 1136 q 432 1044 432 1082 q 404 957 432 992 q 324 922 376 922 m 624 922 q 565 951 590 922 q 539 1017 539 979 q 567 1102 539 1068 q 644 1136 596 1136 q 708 1109 683 1136 q 732 1044 732 1082 q 703 957 732 992 q 624 922 675 922 m 460 790 q 681 706 604 790 q 757 465 757 622 q 704 225 757 336 q 556 48 651 114 q 338 -18 461 -18 q 117 67 193 -18 q 40 308 40 151 q 92 549 40 439 q 240 725 144 660 q 460 790 336 790 m 438 704 q 328 645 372 704 q 261 496 283 586 q 239 311 239 406 q 269 123 239 183 q 365 63 300 63 q 472 122 429 63 q 536 272 515 181 q 557 460 557 364 q 528 646 557 588 q 438 704 499 704 z "},"ọ":{"ha":799,"x_min":40,"x_max":757,"o":"m 460 790 q 681 706 604 790 q 757 465 757 622 q 704 225 757 336 q 556 48 651 114 q 338 -18 461 -18 q 117 67 193 -18 q 40 308 40 151 q 92 549 40 439 q 240 725 144 660 q 460 790 336 790 m 438 704 q 328 645 372 704 q 261 496 283 586 q 239 311 239 406 q 269 123 239 183 q 365 63 300 63 q 472 122 429 63 q 536 272 515 181 q 557 460 557 364 q 528 646 557 588 q 438 704 499 704 m 228 -222 q 258 -147 228 -176 q 325 -118 288 -118 q 381 -140 361 -118 q 400 -196 400 -162 q 369 -274 400 -246 q 297 -303 338 -303 q 248 -280 268 -303 q 228 -222 228 -257 z "},"ò":{"ha":799,"x_min":40,"x_max":757,"o":"m 460 790 q 681 706 604 790 q 757 465 757 622 q 704 225 757 336 q 556 48 651 114 q 338 -18 461 -18 q 117 67 193 -18 q 40 308 40 151 q 92 549 40 439 q 240 725 144 660 q 460 790 336 790 m 438 704 q 328 645 372 704 q 261 496 283 586 q 239 311 239 406 q 269 123 239 183 q 365 63 300 63 q 472 122 429 63 q 536 272 515 181 q 557 460 557 364 q 528 646 557 588 q 438 704 499 704 m 439 844 q 300 946 390 869 q 182 1072 210 1022 l 299 1179 l 499 888 l 439 844 z "},"ỏ":{"ha":799,"x_min":40,"x_max":757,"o":"m 460 790 q 681 706 604 790 q 757 465 757 622 q 704 225 757 336 q 556 48 651 114 q 338 -18 461 -18 q 117 67 193 -18 q 40 308 40 151 q 92 549 40 439 q 240 725 144 660 q 460 790 336 790 m 438 704 q 328 645 372 704 q 261 496 283 586 q 239 311 239 406 q 269 123 239 183 q 365 63 300 63 q 472 122 429 63 q 536 272 515 181 q 557 460 557 364 q 528 646 557 588 q 438 704 499 704 m 435 833 q 420 865 428 843 q 414 897 413 888 q 426 924 417 914 q 458 949 436 933 q 487 969 476 960 q 503 990 497 978 l 504 994 q 506 1008 506 999 q 450 1051 506 1047 q 408 1047 414 1051 l 425 1169 q 448 1175 429 1172 q 482 1178 467 1178 q 608 1147 561 1178 q 654 1056 654 1115 q 650 1021 654 1040 q 621 965 643 988 q 561 921 599 943 l 535 903 q 514 878 521 892 q 508 842 507 865 l 435 833 z "},"ơ":{"ha":799,"x_min":40,"x_max":858,"o":"m 858 914 l 854 883 q 694 689 833 743 q 757 465 757 604 q 704 225 757 336 q 556 48 651 114 q 338 -18 461 -18 q 117 67 193 -18 q 40 308 40 151 q 92 549 40 439 q 240 725 144 660 q 460 790 336 790 q 576 772 526 790 q 648 792 622 775 q 685 830 674 808 q 713 890 697 851 q 717 902 714 894 q 718 914 719 910 l 858 914 m 365 63 q 472 122 429 63 q 536 272 515 181 q 557 460 557 364 q 528 646 557 588 q 438 704 499 704 q 328 645 372 704 q 261 496 283 586 q 239 311 239 406 q 269 123 239 183 q 365 63 300 63 z "},"ớ":{"ha":799,"x_min":40,"x_max":858,"o":"m 858 914 l 854 883 q 694 689 833 743 q 757 465 757 604 q 704 225 757 336 q 556 48 651 114 q 338 -18 461 -18 q 117 67 193 -18 q 40 308 40 151 q 92 549 40 439 q 240 725 144 660 q 460 790 336 790 q 576 772 526 790 q 648 792 622 775 q 685 830 674 808 q 713 890 697 851 q 717 902 714 894 q 718 914 719 910 l 858 914 m 365 63 q 472 122 429 63 q 536 272 515 181 q 557 460 557 364 q 528 646 557 588 q 438 704 499 704 q 328 645 372 704 q 261 496 283 586 q 239 311 239 406 q 269 123 239 183 q 365 63 300 63 m 611 1251 l 724 1142 q 659 1070 710 1119 q 550 975 608 1021 q 453 913 492 929 l 394 961 l 611 1251 z "},"ợ":{"ha":799,"x_min":40,"x_max":858,"o":"m 858 914 l 854 883 q 694 689 833 743 q 757 465 757 604 q 704 225 757 336 q 556 48 651 114 q 338 -18 461 -18 q 117 67 193 -18 q 40 308 40 151 q 92 549 40 439 q 240 725 144 660 q 460 790 336 790 q 576 772 526 790 q 648 792 622 775 q 685 830 674 808 q 713 890 697 851 q 717 902 714 894 q 718 914 719 910 l 858 914 m 365 63 q 472 122 429 63 q 536 272 515 181 q 557 460 557 364 q 528 646 557 588 q 438 704 499 704 q 328 645 372 704 q 261 496 283 586 q 239 311 239 406 q 269 123 239 183 q 365 63 300 63 m 228 -222 q 258 -147 228 -176 q 325 -118 288 -118 q 381 -140 361 -118 q 400 -196 400 -162 q 369 -274 400 -246 q 297 -303 338 -303 q 248 -280 268 -303 q 228 -222 228 -257 z "},"ờ":{"ha":799,"x_min":40,"x_max":858,"o":"m 858 914 l 854 883 q 694 689 833 743 q 757 465 757 604 q 704 225 757 336 q 556 48 651 114 q 338 -18 461 -18 q 117 67 193 -18 q 40 308 40 151 q 92 549 40 439 q 240 725 144 660 q 460 790 336 790 q 576 772 526 790 q 648 792 622 775 q 685 830 674 808 q 713 890 697 851 q 717 902 714 894 q 718 914 719 910 l 858 914 m 365 63 q 472 122 429 63 q 536 272 515 181 q 557 460 557 364 q 528 646 557 588 q 438 704 499 704 q 328 645 372 704 q 261 496 283 586 q 239 311 239 406 q 269 123 239 183 q 365 63 300 63 m 497 917 q 358 1018 449 942 q 240 1144 268 1094 l 357 1251 l 557 960 l 497 917 z "},"ở":{"ha":799,"x_min":40,"x_max":858,"o":"m 858 914 l 854 883 q 694 689 833 743 q 757 465 757 604 q 704 225 757 336 q 556 48 651 114 q 338 -18 461 -18 q 117 67 193 -18 q 40 308 40 151 q 92 549 40 439 q 240 725 144 660 q 460 790 336 790 q 576 772 526 790 q 648 792 622 775 q 685 830 674 808 q 713 890 697 851 q 717 902 714 894 q 718 914 719 910 l 858 914 m 365 63 q 472 122 429 63 q 536 272 515 181 q 557 460 557 364 q 528 646 557 588 q 438 704 499 704 q 328 645 372 704 q 261 496 283 586 q 239 311 239 406 q 269 123 239 183 q 365 63 300 63 m 435 833 q 420 865 428 843 q 414 897 413 888 q 426 924 417 914 q 458 949 436 933 q 487 969 476 960 q 503 990 497 978 l 504 994 q 506 1008 506 999 q 450 1051 506 1047 q 408 1047 414 1051 l 425 1169 q 448 1175 429 1172 q 482 1178 467 1178 q 608 1147 561 1178 q 654 1056 654 1115 q 650 1021 654 1040 q 621 965 643 988 q 561 921 599 943 l 535 903 q 514 878 521 892 q 508 842 507 865 l 435 833 z "},"ỡ":{"ha":799,"x_min":40,"x_max":858,"o":"m 858 914 l 854 883 q 694 689 833 743 q 757 465 757 604 q 704 225 757 336 q 556 48 651 114 q 338 -18 461 -18 q 117 67 193 -18 q 40 308 40 151 q 92 549 40 439 q 240 725 144 660 q 460 790 336 790 q 576 772 526 790 q 648 792 622 775 q 685 830 674 808 q 713 890 697 851 q 717 902 714 894 q 718 914 719 910 l 858 914 m 365 63 q 472 122 429 63 q 536 272 515 181 q 557 460 557 364 q 528 646 557 588 q 438 704 499 704 q 328 645 372 704 q 261 496 283 586 q 239 311 239 406 q 269 123 239 183 q 365 63 300 63 m 219 1013 q 291 1092 242 1057 q 389 1126 340 1126 q 449 1112 425 1126 q 501 1068 472 1097 q 538 1035 524 1046 q 574 1025 553 1025 q 630 1043 608 1025 q 679 1097 651 1061 l 729 1022 q 663 937 713 974 q 563 900 614 900 q 496 915 521 900 q 443 957 471 929 q 405 990 421 979 q 365 1001 389 1000 q 261 940 317 1001 l 219 1013 z "},"ő":{"ha":799,"x_min":40,"x_max":819,"o":"m 400 1174 l 503 1101 q 455 1013 493 1068 q 369 908 417 958 q 290 840 322 858 l 229 878 l 400 1174 m 719 1174 l 819 1103 q 770 1013 810 1068 q 683 909 731 958 q 604 842 636 860 l 542 879 l 719 1174 m 460 790 q 681 706 604 790 q 757 465 757 622 q 704 225 757 336 q 556 48 651 114 q 338 -18 461 -18 q 117 67 193 -18 q 40 308 40 151 q 92 549 40 439 q 240 725 144 660 q 460 790 336 790 m 438 704 q 328 645 372 704 q 261 496 283 586 q 239 311 239 406 q 269 123 239 183 q 365 63 300 63 q 472 122 429 63 q 536 272 515 181 q 557 460 557 364 q 528 646 557 588 q 438 704 499 704 z "},"ō":{"ha":799,"x_min":40,"x_max":757,"o":"m 285 1081 l 658 1081 l 646 958 l 272 958 l 285 1081 m 460 790 q 681 706 604 790 q 757 465 757 622 q 704 225 757 336 q 556 48 651 114 q 338 -18 461 -18 q 117 67 193 -18 q 40 308 40 151 q 92 549 40 439 q 240 725 144 660 q 460 790 336 790 m 438 704 q 328 645 372 704 q 261 496 283 586 q 239 311 239 406 q 269 123 239 183 q 365 63 300 63 q 472 122 429 63 q 536 272 515 181 q 557 460 557 364 q 528 646 557 588 q 438 704 499 704 z "},"ø":{"ha":800,"x_min":42,"x_max":757,"o":"m 654 732 q 731 624 704 692 q 757 467 757 557 q 705 226 757 338 q 557 49 653 115 q 338 -17 461 -17 q 188 15 254 -17 l 115 -89 l 60 -60 l 135 51 q 42 310 42 133 q 94 551 42 440 q 241 726 146 661 q 460 792 336 792 q 599 765 535 792 l 676 881 l 732 850 l 654 732 m 517 654 q 438 704 490 704 q 325 642 371 704 q 258 485 279 581 q 240 296 238 390 q 253 217 240 249 l 517 654 m 272 133 q 365 64 301 64 q 472 123 429 64 q 536 274 515 182 q 557 461 557 365 q 539 575 557 535 l 272 133 z "},"ǿ":{"ha":800,"x_min":42,"x_max":757,"o":"m 654 732 q 731 624 704 692 q 757 467 757 557 q 705 226 757 338 q 557 49 653 115 q 338 -17 461 -17 q 188 15 254 -17 l 115 -89 l 60 -60 l 135 51 q 42 310 42 133 q 94 551 42 440 q 241 726 146 661 q 460 792 336 792 q 599 765 535 792 l 676 881 l 732 850 l 654 732 m 517 654 q 438 704 490 704 q 325 642 371 704 q 258 485 279 581 q 240 296 238 390 q 253 217 240 249 l 517 654 m 272 133 q 365 64 301 64 q 472 123 429 64 q 536 274 515 182 q 557 461 557 365 q 539 575 557 535 l 272 133 m 500 1179 l 613 1069 q 548 998 599 1047 q 439 903 497 949 q 342 840 381 857 l 283 889 l 500 1179 z "},"õ":{"ha":799,"x_min":40,"x_max":757,"o":"m 460 790 q 681 706 604 790 q 757 465 757 622 q 704 225 757 336 q 556 48 651 114 q 338 -18 461 -18 q 117 67 193 -18 q 40 308 40 151 q 92 549 40 439 q 240 725 144 660 q 460 790 336 790 m 438 704 q 328 645 372 704 q 261 496 283 586 q 239 311 239 406 q 269 123 239 183 q 365 63 300 63 q 472 122 429 63 q 536 272 515 181 q 557 460 557 364 q 528 646 557 588 q 438 704 499 704 m 219 1013 q 291 1092 242 1057 q 389 1126 340 1126 q 449 1112 425 1126 q 501 1068 472 1097 q 538 1035 524 1046 q 574 1025 553 1025 q 630 1043 608 1025 q 679 1097 651 1061 l 729 1022 q 663 937 713 974 q 563 900 614 900 q 496 915 521 900 q 443 957 471 929 q 405 990 421 979 q 365 1001 389 1000 q 261 940 317 1001 l 219 1013 z "},"œ":{"ha":1208,"x_min":47,"x_max":1169,"o":"m 1125 139 q 1007 34 1088 82 q 818 -14 926 -14 q 594 89 669 -14 q 476 13 542 40 q 335 -14 410 -14 q 120 72 193 -14 q 47 314 47 157 q 99 550 47 442 q 244 724 150 658 q 460 789 338 789 q 689 676 618 789 q 812 759 743 729 q 957 789 881 789 q 1117 740 1064 789 q 1169 613 1169 692 q 1097 446 1169 513 q 922 347 1025 379 q 729 311 819 314 q 763 152 726 211 q 871 93 799 93 q 1088 200 996 93 l 1125 139 m 435 704 q 326 642 369 704 q 261 484 282 579 q 243 294 240 389 q 275 122 247 179 q 361 65 303 65 q 468 126 425 65 q 532 286 511 186 q 535 355 531 314 q 549 428 540 396 q 524 631 549 558 q 435 704 499 704 m 915 704 q 786 606 833 704 q 731 386 739 507 q 847 415 786 389 q 948 489 907 442 q 989 599 989 536 q 915 704 989 704 z "},"p":{"ha":814,"x_min":10,"x_max":767,"o":"m 331 697 q 418 763 367 738 q 532 789 469 789 q 707 711 647 789 q 767 494 767 633 q 711 246 767 363 q 553 58 656 129 q 318 -14 451 -14 q 235 -4 283 -14 l 186 -353 l 10 -353 l 149 665 l 75 701 l 85 756 l 308 789 l 340 774 l 331 697 m 247 89 q 336 71 282 71 q 469 133 415 71 q 548 290 522 194 q 574 492 574 386 q 545 631 574 578 q 463 683 517 683 q 383 658 419 683 q 318 594 346 632 l 247 89 z "},"ṗ":{"ha":814,"x_min":10,"x_max":767,"o":"m 331 697 q 418 763 367 738 q 532 789 469 789 q 707 711 647 789 q 767 494 767 633 q 711 246 767 363 q 553 58 656 129 q 318 -14 451 -14 q 235 -4 283 -14 l 186 -353 l 10 -353 l 149 665 l 75 701 l 85 756 l 308 789 l 340 774 l 331 697 m 247 89 q 336 71 282 71 q 469 133 415 71 q 548 290 522 194 q 574 492 574 386 q 545 631 574 578 q 463 683 517 683 q 383 658 419 683 q 318 594 346 632 l 247 89 m 499 921 q 433 950 461 921 q 406 1017 406 979 q 438 1101 406 1067 q 521 1136 471 1136 q 591 1109 564 1136 q 618 1044 618 1082 q 588 956 618 992 q 499 921 557 921 z "},"þ":{"ha":810,"x_min":11,"x_max":760,"o":"m 325 699 q 413 763 361 738 q 528 789 465 789 q 701 712 643 789 q 760 494 760 635 q 705 246 760 363 q 547 58 650 129 q 308 -14 444 -14 q 226 -4 288 -14 l 221 -89 l 185 -353 l 11 -353 l 60 -10 l 190 1014 l 121 1042 l 135 1094 l 344 1119 l 378 1101 l 325 699 m 244 88 q 325 71 274 71 q 463 133 407 71 q 544 291 518 194 q 571 492 571 388 q 542 631 571 578 q 458 683 513 683 q 375 657 414 683 q 311 594 336 631 l 244 88 z "},"q":{"ha":815,"x_min":47,"x_max":753,"o":"m 622 -201 q 621 -214 621 -206 q 627 -240 621 -229 q 644 -250 633 -250 q 711 -212 669 -250 l 731 -256 q 662 -318 711 -285 q 544 -351 613 -351 q 456 -322 483 -351 q 432 -246 429 -292 l 476 72 q 390 10 440 35 q 278 -14 339 -14 q 104 66 161 -14 q 47 275 47 146 q 99 522 47 403 q 252 715 150 640 q 497 789 354 789 q 582 779 536 789 q 658 757 628 769 l 753 783 l 622 -201 m 563 686 q 482 704 528 704 q 342 640 399 704 q 260 478 286 575 q 235 283 235 382 q 265 141 235 192 q 346 90 294 90 q 427 117 389 90 q 492 179 465 143 l 563 686 z "},"r":{"ha":574,"x_min":69,"x_max":596,"o":"m 314 589 q 403 728 339 668 q 550 789 468 789 q 577 785 564 789 q 596 776 590 781 l 557 578 q 530 591 549 585 q 485 597 511 597 q 388 575 435 597 q 317 513 342 553 l 249 0 l 69 0 l 157 661 l 86 699 l 97 754 l 293 788 l 326 768 l 318 642 l 314 589 z "},"ŕ":{"ha":574,"x_min":69,"x_max":596,"o":"m 467 1179 l 579 1069 q 515 998 565 1047 q 406 903 464 949 q 308 840 347 857 l 250 889 l 467 1179 m 314 589 q 403 728 339 668 q 550 789 468 789 q 577 785 564 789 q 596 776 590 781 l 557 578 q 530 591 549 585 q 485 597 511 597 q 388 575 435 597 q 317 513 342 553 l 249 0 l 69 0 l 157 661 l 86 699 l 97 754 l 293 788 l 326 768 l 318 642 l 314 589 z "},"ř":{"ha":574,"x_min":69,"x_max":624,"o":"m 128 1092 l 199 1128 l 344 971 l 564 1128 l 624 1092 l 385 844 l 275 844 l 128 1092 m 314 589 q 403 728 339 668 q 550 789 468 789 q 577 785 564 789 q 596 776 590 781 l 557 578 q 530 591 549 585 q 485 597 511 597 q 388 575 435 597 q 317 513 342 553 l 249 0 l 69 0 l 157 661 l 86 699 l 97 754 l 293 788 l 326 768 l 318 642 l 314 589 z "},"ŗ":{"ha":574,"x_min":18,"x_max":596,"o":"m 18 -325 q 53 -284 38 -311 q 69 -222 69 -257 q 57 -174 69 -196 q 24 -147 44 -151 l 29 -93 l 121 -28 q 190 -78 163 -37 q 217 -171 217 -119 q 195 -270 217 -225 q 141 -344 174 -315 q 76 -379 108 -372 l 18 -340 l 18 -325 m 314 589 q 403 728 339 668 q 550 789 468 789 q 577 785 564 789 q 596 776 590 781 l 557 578 q 530 591 549 585 q 485 597 511 597 q 388 575 435 597 q 317 513 342 553 l 249 0 l 69 0 l 157 661 l 86 699 l 97 754 l 293 788 l 326 768 l 318 642 l 314 589 z "},"s":{"ha":593,"x_min":10,"x_max":554,"o":"m 528 639 q 473 679 511 658 q 383 700 435 700 q 294 676 328 700 q 260 604 260 651 q 289 529 260 563 q 381 451 318 496 q 489 349 451 399 q 526 224 526 300 q 485 94 526 147 q 374 13 443 40 q 222 -14 306 -14 q 94 1 160 -14 q 10 32 29 15 l 38 150 q 117 103 67 125 q 221 81 167 81 q 310 104 272 81 q 347 178 347 128 q 315 256 347 221 q 218 335 283 290 q 120 431 160 376 q 81 563 81 485 q 119 681 81 629 q 225 760 157 732 q 379 789 293 789 q 483 781 431 789 q 554 763 536 772 l 528 639 z "},"ś":{"ha":596,"x_min":11,"x_max":631,"o":"m 518 1179 l 631 1069 q 566 998 617 1047 q 457 903 515 949 q 360 840 399 857 l 301 889 l 518 1179 m 529 639 q 474 679 513 658 q 385 700 436 700 q 295 676 329 700 q 261 604 261 651 q 290 529 261 563 q 382 451 319 496 q 490 349 453 399 q 528 224 528 300 q 486 94 528 147 q 376 13 444 40 q 224 -14 307 -14 q 96 1 161 -14 q 11 32 31 15 l 39 150 q 118 103 68 125 q 222 81 168 81 q 311 104 274 81 q 349 178 349 128 q 317 256 349 221 q 219 335 285 290 q 122 431 161 376 q 82 563 82 485 q 120 681 82 629 q 226 760 158 732 q 381 789 294 789 q 485 781 432 789 q 556 763 538 772 l 529 639 z "},"š":{"ha":596,"x_min":11,"x_max":650,"o":"m 154 1092 l 225 1128 l 371 971 l 590 1128 l 650 1092 l 411 844 l 301 844 l 154 1092 m 529 639 q 474 679 513 658 q 385 700 436 700 q 295 676 329 700 q 261 604 261 651 q 290 529 261 563 q 382 451 319 496 q 490 349 453 399 q 528 224 528 300 q 486 94 528 147 q 376 13 444 40 q 224 -14 307 -14 q 96 1 161 -14 q 11 32 31 15 l 39 150 q 118 103 68 125 q 222 81 168 81 q 311 104 274 81 q 349 178 349 128 q 317 256 349 221 q 219 335 285 290 q 122 431 161 376 q 82 563 82 485 q 120 681 82 629 q 226 760 158 732 q 381 789 294 789 q 485 781 432 789 q 556 763 538 772 l 529 639 z "},"ş":{"ha":593,"x_min":10,"x_max":554,"o":"m 383 700 q 294 676 328 700 q 260 604 260 651 q 289 529 260 563 q 381 451 318 496 q 489 349 451 399 q 526 224 526 300 q 466 71 526 129 q 307 -6 406 13 q 323 -69 317 -32 q 329 -137 329 -106 q 280 -276 329 -228 q 133 -324 231 -324 q 65 -318 104 -324 q 14 -306 25 -312 l 33 -208 q 92 -219 56 -219 q 217 -74 217 -219 q 213 -14 217 -39 q 90 2 151 -12 q 10 32 29 17 l 38 150 q 117 103 67 125 q 221 81 167 81 q 310 104 272 81 q 347 178 347 128 q 315 256 347 221 q 218 335 283 290 q 120 431 160 376 q 81 563 81 485 q 119 681 81 629 q 225 760 157 732 q 379 789 293 789 q 483 781 431 789 q 554 763 536 772 l 528 639 q 473 679 511 658 q 383 700 435 700 z "},"ŝ":{"ha":596,"x_min":11,"x_max":625,"o":"m 129 876 l 374 1128 l 485 1128 l 625 875 l 557 839 l 413 993 l 188 840 l 129 876 m 529 639 q 474 679 513 658 q 385 700 436 700 q 295 676 329 700 q 261 604 261 651 q 290 529 261 563 q 382 451 319 496 q 490 349 453 399 q 528 224 528 300 q 486 94 528 147 q 376 13 444 40 q 224 -14 307 -14 q 96 1 161 -14 q 11 32 31 15 l 39 150 q 118 103 68 125 q 222 81 168 81 q 311 104 274 81 q 349 178 349 128 q 317 256 349 221 q 219 335 285 290 q 122 431 161 376 q 82 563 82 485 q 120 681 82 629 q 226 760 158 732 q 381 789 294 789 q 485 781 432 789 q 556 763 538 772 l 529 639 z "},"ș":{"ha":596,"x_min":11,"x_max":556,"o":"m 117 -325 q 152 -284 136 -311 q 168 -222 168 -257 q 156 -174 168 -196 q 122 -147 143 -151 l 128 -93 l 219 -28 q 288 -78 261 -37 q 315 -171 315 -119 q 294 -270 315 -225 q 240 -344 272 -315 q 175 -379 207 -372 l 117 -340 l 117 -325 m 529 639 q 474 679 513 658 q 385 700 436 700 q 295 676 329 700 q 261 604 261 651 q 290 529 261 563 q 382 451 319 496 q 490 349 453 399 q 528 224 528 300 q 486 94 528 147 q 376 13 444 40 q 224 -14 307 -14 q 96 1 161 -14 q 11 32 31 15 l 39 150 q 118 103 68 125 q 222 81 168 81 q 311 104 274 81 q 349 178 349 128 q 317 256 349 221 q 219 335 285 290 q 122 431 161 376 q 82 563 82 485 q 120 681 82 629 q 226 760 158 732 q 381 789 294 789 q 485 781 432 789 q 556 763 538 772 l 529 639 z "},"ṡ":{"ha":593,"x_min":10,"x_max":554,"o":"m 528 639 q 473 679 511 658 q 383 700 435 700 q 294 676 328 700 q 260 604 260 651 q 289 529 260 563 q 381 451 318 496 q 489 349 451 399 q 526 224 526 300 q 485 94 526 147 q 374 13 443 40 q 222 -14 306 -14 q 94 1 160 -14 q 10 32 29 15 l 38 150 q 117 103 67 125 q 221 81 167 81 q 310 104 272 81 q 347 178 347 128 q 315 256 347 221 q 218 335 283 290 q 120 431 160 376 q 81 563 81 485 q 119 681 81 629 q 225 760 157 732 q 379 789 293 789 q 483 781 431 789 q 554 763 536 772 l 528 639 m 379 921 q 314 950 342 921 q 286 1017 286 979 q 319 1101 286 1067 q 401 1136 351 1136 q 472 1109 444 1136 q 499 1044 499 1082 q 468 956 499 992 q 379 921 438 921 z "},"ß":{"ha":829,"x_min":36,"x_max":799,"o":"m 117 629 q 210 917 143 818 q 360 1045 278 1015 q 544 1075 442 1075 q 725 1022 651 1075 q 799 876 799 969 q 767 761 799 804 q 676 675 735 718 q 618 624 638 646 q 599 572 599 603 q 615 526 599 550 q 676 443 631 503 l 694 419 q 757 325 735 367 q 779 228 779 283 q 742 102 779 157 q 640 18 706 47 q 492 -11 574 -11 q 310 24 368 -11 l 326 142 q 385 95 343 118 q 464 72 426 72 q 558 99 525 74 q 590 196 590 124 q 529 358 590 264 q 446 542 446 474 q 462 610 446 583 q 515 676 478 638 q 590 771 564 724 q 617 874 617 818 q 590 966 617 929 q 510 1003 563 1003 q 376 916 428 1003 q 299 613 325 829 l 221 0 l 36 0 l 117 629 z "},"ə":{"ha":706,"x_min":18,"x_max":656,"o":"m 63 636 q 180 741 99 692 q 368 790 261 790 q 585 701 515 790 q 656 481 656 611 q 599 229 656 343 q 445 49 542 115 q 231 -17 349 -17 q 72 32 125 -17 q 18 158 18 81 q 90 326 18 258 q 265 427 163 394 q 458 463 368 460 q 425 624 461 564 q 315 685 389 685 q 100 574 197 685 l 63 636 m 457 388 q 340 358 401 385 q 238 283 279 332 q 197 171 197 235 q 217 94 197 121 q 271 68 236 68 q 368 117 328 68 q 430 240 408 167 q 457 388 451 314 z "},"t":{"ha":493,"x_min":74,"x_max":508,"o":"m 278 254 q 268 157 268 174 q 281 111 268 125 q 324 97 293 97 q 388 110 351 97 q 447 143 424 124 l 461 93 q 360 19 426 53 q 210 -14 293 -14 q 118 15 153 -14 q 83 106 83 43 q 97 240 83 132 l 157 685 l 74 685 l 89 750 l 174 781 q 223 854 197 804 q 269 960 249 904 l 372 960 l 350 783 l 508 783 l 494 685 l 336 685 l 278 254 z "},"ŧ":{"ha":493,"x_min":50,"x_max":508,"o":"m 278 254 q 268 157 268 174 q 281 111 268 125 q 324 97 293 97 q 388 110 351 97 q 447 143 424 124 l 461 93 q 360 19 426 53 q 210 -14 293 -14 q 118 15 153 -14 q 83 106 83 43 q 97 240 83 132 l 122 424 l 50 424 l 60 507 l 132 507 l 157 685 l 74 685 l 89 750 l 174 781 q 223 854 197 804 q 269 960 249 904 l 372 960 l 350 783 l 508 783 l 494 685 l 336 685 l 313 507 l 454 507 l 444 424 l 301 424 l 278 254 z "},"ť":{"ha":493,"x_min":74,"x_max":629,"o":"m 278 254 q 268 157 268 174 q 281 111 268 125 q 324 97 293 97 q 388 110 351 97 q 447 143 424 124 l 461 93 q 360 19 426 53 q 210 -14 293 -14 q 118 15 153 -14 q 83 106 83 43 q 97 240 83 132 l 157 685 l 74 685 l 89 750 l 174 781 q 223 854 197 804 q 269 960 249 904 l 372 960 l 350 783 l 508 783 l 494 685 l 336 685 l 278 254 m 454 882 q 480 987 469 922 q 490 1117 490 1051 q 486 1183 490 1153 q 474 1226 482 1214 l 486 1253 l 606 1282 q 629 1161 629 1257 q 601 986 629 1075 q 528 847 572 897 l 458 867 l 454 882 z "},"ţ":{"ha":493,"x_min":-33,"x_max":508,"o":"m 278 254 q 268 157 268 174 q 281 111 268 125 q 324 97 293 97 q 388 110 351 97 q 447 143 424 124 l 461 93 q 381 30 433 60 q 261 -10 328 0 q 276 -73 269 -37 q 282 -137 282 -108 q 233 -276 282 -228 q 86 -324 183 -324 q 17 -318 57 -324 q -33 -306 -22 -312 l -14 -208 q 44 -219 8 -219 q 169 -72 169 -219 q 164 -8 169 -42 q 105 28 126 0 q 83 106 83 57 q 97 240 83 132 l 157 685 l 74 685 l 89 750 l 174 781 q 223 854 197 804 q 269 960 249 904 l 372 960 l 350 783 l 508 783 l 494 685 l 336 685 l 278 254 z "},"ț":{"ha":493,"x_min":74,"x_max":508,"o":"m 90 -325 q 126 -284 110 -311 q 142 -222 142 -257 q 129 -174 142 -196 q 96 -147 117 -151 l 101 -93 l 193 -28 q 262 -78 235 -37 q 289 -171 289 -119 q 267 -270 289 -225 q 213 -344 246 -315 q 149 -379 181 -372 l 90 -340 l 90 -325 m 278 254 q 268 157 268 174 q 281 111 268 125 q 324 97 293 97 q 388 110 351 97 q 447 143 424 124 l 461 93 q 360 19 426 53 q 210 -14 293 -14 q 118 15 153 -14 q 83 106 83 43 q 97 240 83 132 l 157 685 l 74 685 l 89 750 l 174 781 q 223 854 197 804 q 269 960 249 904 l 372 960 l 350 783 l 508 783 l 494 685 l 336 685 l 278 254 z "},"ṫ":{"ha":493,"x_min":74,"x_max":508,"o":"m 278 254 q 268 157 268 174 q 281 111 268 125 q 324 97 293 97 q 388 110 351 97 q 447 143 424 124 l 461 93 q 360 19 426 53 q 210 -14 293 -14 q 118 15 153 -14 q 83 106 83 43 q 97 240 83 132 l 157 685 l 74 685 l 89 750 l 174 781 q 223 854 197 804 q 269 960 249 904 l 372 960 l 350 783 l 508 783 l 494 685 l 336 685 l 278 254 m 326 1007 q 261 1036 289 1007 q 233 1103 233 1065 q 266 1188 233 1153 q 349 1222 299 1222 q 419 1195 392 1222 q 446 1131 446 1168 q 415 1042 446 1078 q 326 1007 385 1007 z "}}}
